<?xml version="1.0" standalone="no"?>
<!DOCTYPE svg PUBLIC "-//W3C//DTD SVG 1.1//EN" "http://www.w3.org/Graphics/SVG/1.1/DTD/svg11.dtd" >
<svg>
<metadata>
Created by FontForge 20090914 at Wed Jan 20 10:29:26 2016
 By www-data
Copyright (C) 1993; Type Market Ltd. Moscow, 119136, Box 20; phone:(095)1427712; Created by A.Kustov
</metadata>
<defs>
<font id="Cricket" horiz-adv-x="572" >
  <font-face 
    font-family="Cricket"
    font-weight="400"
    font-stretch="normal"
    units-per-em="1000"
    panose-1="0 0 0 0 0 0 0 0 0 0"
    ascent="800"
    descent="-200"
    x-height="540"
    cap-height="690.999"
    bbox="-155 -183.998 1016 848.001"
    underline-thickness="50"
    underline-position="-23"
    unicode-range="U+0020-U+2122"
  />
<missing-glyph horiz-adv-x="827" 
d="M51 0v827h725v-827h-725zM725 51v725h-623v-725h623z" />
    <glyph glyph-name=".notdef" horiz-adv-x="827" 
d="M51 0v827h725v-827h-725zM725 51v725h-623v-725h623z" />
    <glyph glyph-name="space" unicode=" " horiz-adv-x="278" 
 />
    <glyph glyph-name="exclam" unicode="!" horiz-adv-x="297" 
d="M138 0l-83 0.000976562c-22.667 0 -34 9 -34 27c0 8 0.666992 14.333 2 19l12 52h83c23.333 0 35 -8.33301 35 -25c0 -6.66699 -0.666992 -12.334 -2 -17.001zM146 691.001h113c24 0 36 -10.667 36 -32c0 -3.33301 -0.5 -7.33301 -1.5 -12
s-1.83301 -8.33398 -2.5 -11.001l-143 -491h-98l109 481c2.66699 10 4 18.667 4 26c0 10.667 -7 17.334 -21 20.001z" />
    <glyph glyph-name="quotedbl" unicode="&#x22;" horiz-adv-x="474" 
d="M278 418v271h98v-271h-98zM98 418v271h98v-271h-98z" />
    <glyph glyph-name="numbersign" unicode="#" horiz-adv-x="556" 
d="M509 289l-12 -90h-97l-28 -199h-94l28 199h-97l-28 -199h-94l28 199h-97l12 90h97l17 120h-97l12 90h97l28 199h94l-28 -199h97l28 199h94l-28 -199h97l-12 -90h-97l-17 -120h97zM335 409h-97l-17 -120h97z" />
    <glyph glyph-name="dollar" unicode="$" horiz-adv-x="553" 
d="M261 0l-10.998 -0.00195312l-15 -66h-33c-14.667 0 -25.167 2.16699 -31.5 6.5s-9.5 12.5 -9.5 24.5v16c2 7.33301 3.33301 12.333 4 15l1 4h-90c-20.667 0 -36.167 3.16699 -46.5 9.5s-15.5 17.5 -15.5 33.5c0 9.33301 1.33301 19 4 29l18 78h18
c2.66699 -23.333 17 -35 43 -35h96l49 205l-36 15c-30.667 13.333 -54.334 31.333 -71.001 54s-25 51 -25 85c0 16.667 2.66699 37.334 8 62.001c13.333 56 35.5 95.833 66.5 119.5s74.5 35.5 130.5 35.5h16l14 61h32c14.667 0 25 -1.83301 31 -5.5s9 -11.167 9 -22.5
c0 -6.66699 -1.66699 -17.667 -5 -33h115l-13 -57c-4.66699 -20 -11.5 -33.833 -20.5 -41.5s-23.833 -11.5 -44.5 -11.5h-62l-38 -162l35 -15c34 -14.667 58.667 -31.667 74 -51c18 -22.667 27 -52 27 -88c0 -15.333 -0.5 -26.666 -1.5 -33.999s-3.16699 -18 -6.5 -32
c-16 -70 -40.333 -120.667 -73 -152s-80.334 -47 -143.001 -47zM343.002 234.998c0 20 -8.66699 36.332 -26 48.999l-38 -162c17.333 5.33301 30.333 14.5 39 27.5s15.667 30.833 21 53.5c2.66699 10.667 4 21.334 4 32.001zM245.002 498.997c0 -18.667 9.66699 -34 29 -46
l30 126c-30 -5.33301 -48.667 -24.333 -56 -57z" />
    <glyph glyph-name="percent" unicode="%" horiz-adv-x="675" 
d="M55 24l479.001 667h73c10 0 15 -3.66699 15 -11c0 -4.66699 -1.66699 -9.66699 -5 -15l-478 -665h-72c-10.667 0 -16 4 -16 12c1.33301 6 2.66602 10 3.99902 12zM460.001 -9c-40.667 0 -71.168 9.00098 -91.501 27.001s-30.5 47.667 -30.5 89
c0 16.667 1.33301 31.667 4 45l6 30c16 67.333 37.333 113.666 64 138.999s68.334 38 125.001 38c40.667 0 71 -10.333 91 -31s30 -49.667 30 -87c0 -21.333 -3 -45 -9 -71c-18 -71.333 -40 -119 -66 -143s-67 -36 -123 -36zM471 58.001c23.333 0 41.833 7.83301 55.5 23.5
s26.167 47.167 37.5 94.5c7.33301 28 11 50 11 66c0 33.333 -16.333 50 -49 50c-24.667 0 -43.5 -7.16699 -56.5 -21.5s-24.833 -44.833 -35.5 -91.5c-3.33301 -14 -6 -27.167 -8 -39.5s-3 -23.5 -3 -33.5c0 -32 16 -48 48 -48zM132 333.001
c-40.667 0 -71.168 9.00098 -91.501 27.001s-30.5 47.667 -30.5 89c0 16.667 1.33301 31.667 4 45l6 30c16 67.333 37.333 113.666 64 138.999s68.334 38 125.001 38c40.667 0 71 -10.333 91 -31s30 -49.667 30 -87c0 -21.333 -3 -45 -9 -71c-18 -71.333 -40 -119 -66 -143
s-67 -36 -123 -36zM142.999 400.002c23.333 0 41.833 7.83301 55.5 23.5s26.167 47.167 37.5 94.5c7.33301 28 11 50 11 66c0 33.333 -16.333 50 -49 50c-24.667 0 -43.5 -7.16699 -56.5 -21.5s-24.833 -44.833 -35.5 -91.5c-3.33301 -14 -6 -27.167 -8 -39.5
s-3 -23.5 -3 -33.5c0 -32 16 -48 48 -48z" />
    <glyph glyph-name="ampersand" unicode="&#x26;" 
d="M166 385c-26 27.333 -39 63.6689 -39 109.002c0 10.667 0.333008 19 1 25s2.66699 15 6 27c14 52 38.833 89 74.5 111s84.834 33 147.501 33c52 0 94.833 -12.833 128.5 -38.5s50.5 -58.834 50.5 -99.501c0 -19.333 -4.66699 -40.333 -14 -63h-120
c2.66699 4.66699 4.66699 10.334 6 17.001s2 12.667 2 18c0 37.333 -23 56 -69 56c-45.333 0 -74 -17.667 -86 -53c-2.66699 -7.33301 -4 -15.333 -4 -24c0 -10.667 2.5 -21.334 7.5 -32.001s12.5 -23 22.5 -37l108 -144l19 63c6 19.333 15 34.666 27 45.999
s27.667 17 47 17h153l-10 -46c-4.66699 -20.667 -11.5 -34.834 -20.5 -42.501s-23.833 -11.5 -44.5 -11.5c-14.667 0 -25.334 -6 -32.001 -18c-3.33301 -6 -10.666 -26.667 -21.999 -62l-21 -68l27 -34c9.33301 -11.333 16.833 -18.166 22.5 -20.499s18.5 -3.5 38.5 -3.5h42
l-13 -57c-4.66699 -22 -11.334 -36.333 -20.001 -43s-24 -10 -46 -10h-34c-21.333 0 -36.666 5.66699 -45.999 17l-27 31c-19.333 -22.667 -42.333 -37.167 -69 -43.5s-70.334 -9.5 -131.001 -9.5c-65.333 0 -116.833 14.5 -154.5 43.5s-56.5 69.833 -56.5 122.5
c0 20.667 3 43 9 67c12.667 50 30 87 52 111s51.333 39.333 88 46zM347 152.003l-129.001 163.998c-15.333 -8 -26.666 -18.167 -33.999 -30.5s-14.333 -32.166 -21 -59.499c-4 -16 -6 -30.333 -6 -43c0 -48.667 31.333 -73 94 -73c32 0 53.5 2.83301 64.5 8.5
s21.5 16.834 31.5 33.501z" />
    <glyph glyph-name="quotesingle" unicode="'" horiz-adv-x="294" 
d="M98 418v271h98v-271h-98z" />
    <glyph glyph-name="parenleft" unicode="(" horiz-adv-x="369" 
d="M329 762h87l-83 -134c-36.667 -61.333 -66.667 -117 -90 -167c-30 -64 -49.333 -118 -58 -162c-6 -38 -10.667 -73.167 -14 -105.5s-5 -60.833 -5 -85.5c0 -34 2.66699 -65.5 8 -94.5s15.333 -57.5 30 -85.5h-90c-48 86 -72 174.667 -72 266
c0 92 24.167 185.833 72.5 281.5s119.833 191.167 214.5 286.5z" />
    <glyph glyph-name="parenright" unicode=")" horiz-adv-x="385" 
d="M63 -72l-86 -1.00195c33.333 52.667 60.666 97.334 81.999 134.001c37.333 63.333 67.333 119.333 90 168c30 64.667 49.333 118.667 58 162c11.333 72.667 17 135.334 17 188.001c0 45.333 -3.16699 81.833 -9.5 109.5s-15.166 51.834 -26.499 72.501l90 1
c46.667 -84.667 70 -173.667 70 -267c0 -92 -24 -185.833 -72 -281.5s-119 -190.834 -213 -285.501z" />
    <glyph glyph-name="asterisk" unicode="*" horiz-adv-x="389" 
d="M338 606l24 -73l-105 -32l69 -97l-63 -44l-68 91l-69 -91l-63 44l68 97l-104 32l23 73l102 -34v119h85v-119z" />
    <glyph glyph-name="plus" unicode="+" horiz-adv-x="584" 
d="M236 309v197h112v-197h196v-112h-196v-197h-112v197h-196v112h196z" />
    <glyph glyph-name="comma" unicode="," horiz-adv-x="172" 
d="M40 98l86.001 -0.000976562c22 0 33 -8 33 -24c0 -7.33301 -0.666992 -13.333 -2 -18l-18 -78c-8.66699 -38.667 -32 -58 -70 -58h-50c-10.667 0 -14.334 7 -11.001 21l6 25h50c12 0 19.333 5.66699 22 17l4 17h-34c-20.667 0 -31 8.66699 -31 26
c0 6.66699 0.666992 12.334 2 17.001z" />
    <glyph glyph-name="hyphen" unicode="-" horiz-adv-x="584" 
d="M544 207h-504v112h504v-112z" />
    <glyph glyph-name="period" unicode="." horiz-adv-x="161" 
d="M135 0l-83 0.000976562c-22.667 0 -34 9 -34 27c0 8 0.666992 14.333 2 19l12 52h83c23.333 0 35 -8.33301 35 -25c0 -6.66699 -0.666992 -12.334 -2 -17.001z" />
    <glyph glyph-name="slash" unicode="/" horiz-adv-x="521" 
d="M-43 24l479.001 667h108c10 0 15 -3.66699 15 -11c0 -4.66699 -1.66699 -9.66699 -5 -15l-478 -665h-107c-10.667 0 -16 4 -16 12c1.33301 6 2.66602 10 3.99902 12z" />
    <glyph glyph-name="zero" unicode="0" 
d="M26 349c29.333 127.333 64.667 215.333 106 264c49.333 58 124 87 224 87c146.667 0 220 -68.333 220 -205c0 -20 -1.5 -41.667 -4.5 -65s-7.83301 -49.333 -14.5 -78c-31.333 -134.667 -68.333 -226.667 -111 -276c-48 -55.333 -121.667 -83 -221 -83
c-76.667 0 -132.667 16 -168 48s-53 81.333 -53 148c0 42.667 7.33301 96 22 160zM169.001 352c-16 -65.333 -23.999 -115.998 -23.999 -151.998c0 -32.667 7.66699 -56.334 23 -71.001s40.333 -22 75 -22c46 0 80.5 17.333 103.5 52s46.5 102 70.5 202
c11.333 48.667 17 88 17 118c0 71.333 -32.667 107 -98 107c-44.667 0 -78.834 -16.833 -102.501 -50.5s-45.167 -94.834 -64.5 -183.501z" />
    <glyph glyph-name="one" unicode="1" 
d="M173 61l115 491.999c2 6 3 11 3 15c0 8 -5 12 -15 12h-5c-25.333 0 -38 8.33301 -38 25c0 5.33301 1 12 3 20l15 65h158c12 0 20.833 -4 26.5 -12s8.5 -18 8.5 -30c0 -3.33301 -0.666992 -8.33301 -2 -15l-133 -569c-0.666992 -3.33301 -1.16699 -6.83301 -1.5 -10.5
s-0.5 -6.16699 -0.5 -7.5c0 -16.667 8.33301 -26 25 -28l-4 -19h-118c-26 0 -39 14 -39 42c0 8.66699 0.666992 15.334 2 20.001z" />
    <glyph glyph-name="two" unicode="2" 
d="M210 690l204.002 0.00195312c52 0 91.333 -13 118 -39c24.667 -24 37 -57 37 -99c0 -9.33301 -0.333008 -16.5 -1 -21.5s-2 -13.5 -4 -25.5c-10.667 -44.667 -28.334 -81 -53.001 -109c-18.667 -20.667 -46.334 -41.334 -83.001 -62.001l-153 -87
c-34.667 -20 -59.334 -39.5 -74.001 -58.5s-25.667 -45.167 -33 -78.5h228c21.333 0 36 1.66699 44 5s16.333 12 25 26h19l-22 -93c-7.33301 -32 -28 -48 -62 -48h-395c10 79.333 28.667 145.666 56 198.999c31.333 62 74.666 109.667 129.999 143l170 95
c40.667 23.333 64.334 49.333 71.001 78c2 8 3 15 3 21c0 14.667 -6.16699 25.667 -18.5 33s-32.166 11 -59.499 11h-127c-25.333 0 -38 8.33301 -38 25c0 5.33301 1 12 3 20z" />
    <glyph glyph-name="three" unicode="3" 
d="M272 321l-56.001 0.000976562c-25.333 0 -38 8.33301 -38 25l3 20l15 65h101c28.667 0 50.167 5 64.5 15s24.833 29.333 31.5 58l4 27c0 32.667 -23.667 49 -71 49h-113c-25.333 0 -38 8.66699 -38 26l3 20l15 65h161c57.333 0 101.333 -13 132 -39s46 -61 46 -105
c0 -5.33301 -0.166992 -10.333 -0.5 -15s-1.83301 -14.334 -4.5 -29.001c-8 -35.333 -19.333 -62.666 -34 -81.999c-18.667 -24 -43.334 -37.667 -74.001 -41c28.667 -10.667 49.834 -27.167 63.501 -49.5s20.5 -48.833 20.5 -79.5c0 -20 -2.66699 -41.667 -8 -65
c-16 -68 -42.333 -116 -79 -144s-93 -42 -169 -42h-126c-30.667 0 -52.167 3.5 -64.5 10.5s-18.5 19.167 -18.5 36.5c0 10.667 2 23 6 37l17 66h18c2.66699 -15.333 7.83398 -25 15.501 -29s21.834 -6 42.501 -6h83c46.667 0 79.167 6.5 97.5 19.5s32.166 38.5 41.499 76.5
c2 6 3.33301 12.167 4 18.5s1 13.166 1 20.499c0 23.333 -7.33301 41 -22 53s-38 18 -70 18z" />
    <glyph glyph-name="four" unicode="4" 
d="M269 62l26.001 109.999h-237c-8.66699 0 -16.834 3.5 -24.501 10.5s-11.5 15.167 -11.5 24.5l1 10l15 65l376 408h90c10 0 18.5 -3.16699 25.5 -9.5s10.5 -14.833 10.5 -25.5l-1 -10l-83 -363h93l-14 -57c-5.33301 -22 -12.333 -36.333 -21 -43s-23.667 -10 -45 -10h-39
l-25 -107c-0.666992 -3.33301 -1.16699 -6.83301 -1.5 -10.5s-0.5 -6.16699 -0.5 -7.5c0 -16.667 8.33301 -26 25 -28l-4 -19h-118c-26 0 -39 14 -39 42c0 8.66699 0.666992 15.334 2 20.001zM164.001 281.999h155l50 216z" />
    <glyph glyph-name="five" unicode="5" 
d="M130 115l125.999 0.000976562c32.667 0 55.667 4.16699 69 12.5s23.333 25.5 30 51.5l19 78c4 16 6 29 6 39c0 30.667 -20 46 -60 46h-207l70 294c4.66699 20.667 11.834 34.834 21.501 42.501s25.5 11.5 47.5 11.5h289l-13 -56
c-4.66699 -20.667 -11.5 -34.834 -20.5 -42.501s-23.833 -11.5 -44.5 -11.5h-159l-30 -128h98c52 0 90.667 -11.667 116 -35c23.333 -21.333 35 -52.333 35 -93c0 -12.667 -0.333008 -22.334 -1 -29.001s-2.66699 -17 -6 -31l-29 -128c-12 -48 -32.167 -82.667 -60.5 -104
s-66.5 -32 -114.5 -32h-203c-20.667 0 -36.167 3.16699 -46.5 9.5s-15.5 17.5 -15.5 33.5c0 9.33301 1.33301 19 4 29l18 78h18c2.66699 -23.333 17 -35 43 -35z" />
    <glyph glyph-name="six" unicode="6" 
d="M218 437h135c53.333 0 96.5 -13.5 129.5 -40.5s49.5 -65.833 49.5 -116.5c0 -18 -2.66699 -38.667 -8 -62c-21.333 -88.667 -51.833 -148.167 -91.5 -178.5s-104.5 -45.5 -194.5 -45.5c-137.333 0 -206 60 -206 180c0 27.333 4 58 12 92l36 157
c24 103.333 54.167 173.833 90.5 211.5s91.5 56.5 165.5 56.5h226l-13 -57c-4.66699 -20 -11.5 -33.833 -20.5 -41.5s-23.833 -11.5 -44.5 -11.5h-146c-28 0 -51.167 -7.83301 -69.5 -23.5s-30.5 -36.5 -36.5 -62.5zM194 327l-25 -103.001c-4 -16 -6 -30.333 -6 -43
c0 -48 29.333 -72 88 -72c43.333 0 73.333 7 90 21s30.667 43.333 42 88c2 6 3.33301 12.333 4 19s1 13.334 1 20.001c0 46.667 -29.667 70 -89 70h-105z" />
    <glyph glyph-name="seven" unicode="7" 
d="M147 690l407 0.00195312l-12 -55c-2 -12 -5.66699 -22.667 -11 -32c-6.66699 -9.33301 -11.667 -17 -15 -23l-313 -513c-4.66699 -10.667 -7 -18.334 -7 -23.001c0 -7.33301 2 -13.333 6 -18s10.333 -7 19 -7l-5 -19h-146c-24.667 0 -37 9.33301 -37 28
c0 11.333 4 23.666 12 36.999l318 515h-196c-25.333 0 -38 8.33301 -38 25c0 5.33301 1 12 3 20z" />
    <glyph glyph-name="eight" unicode="8" 
d="M166 385c-30 17.333 -45.002 49.999 -45.002 97.999c0 12 1.66699 26.333 5 43c12.667 58 34.334 98.667 65.001 122c36.667 28 95.667 42 177 42c129.333 0 194 -44 194 -132c0 -14.667 -2 -30.667 -6 -48c-10 -42.667 -22.333 -73.167 -37 -91.5
s-39.667 -32.5 -75 -42.5c26.667 -9.33301 46 -23.5 58 -42.5s18 -42.5 18 -70.5c0 -20.667 -2.33301 -41.667 -7 -63c-16 -76 -41.667 -128.333 -77 -157c-39.333 -32 -102.666 -48 -189.999 -48c-153.333 0 -230 52.667 -230 158c0 17.333 1.33301 32.5 4 45.5l6 29.5
c12.667 50 31 87.667 55 113c22 22.667 50.333 37.334 85 44.001zM162.998 225.999c-5.33301 -21.333 -8 -38.667 -8 -52c0 -22.667 7.5 -39 22.5 -49s39.5 -15 73.5 -15c36.667 0 63 6.66699 79 20c18.667 15.333 33 45 43 89c4 17.333 6 32 6 44c0 22 -7 38.167 -21 48.5
s-37 15.5 -69 15.5c-40.667 0 -69.5 -6.66699 -86.5 -20s-30.167 -40.333 -39.5 -81zM252.998 509.998c-2 -9.33301 -3 -17.668 -3 -25.001c0 -32 22.667 -48 68 -48c34.667 0 58.167 4.33301 70.5 13s21.5 25.334 27.5 50.001c3.33301 14.667 5 26.334 5 35.001
c0 15.333 -5 26.666 -15 33.999s-28 11 -54 11c-33.333 0 -56.5 -4.83301 -69.5 -14.5s-22.833 -28.167 -29.5 -55.5z" />
    <glyph glyph-name="nine" unicode="9" 
d="M364 253l-129 0.000976562c-58 0 -101.833 12.333 -131.5 37s-44.5 63.667 -44.5 117c0 25.333 3.33301 53.333 10 84c18.667 82.667 49.667 138.667 93 168c37.333 24.667 97.333 37 180 37c74 0 127.667 -12.667 161 -38s50 -65.333 50 -120
c0 -32 -4.33301 -66.667 -13 -104l-37 -164c-24.667 -110.667 -54.667 -184 -90 -220c-32.667 -33.333 -86 -50 -160 -50h-172c-20.667 0 -36.167 3.16699 -46.5 9.5s-15.5 17.5 -15.5 33.5c0 9.33301 1.33301 19 4 29l18 78h18c2.66699 -23.333 17 -35 43 -35h133
c34.667 0 61 7.66699 79 23s31.667 41.666 41 78.999zM389 363.001l13.999 56.998c10 41.333 15 72 15 92c0 26 -7.16699 44.833 -21.5 56.5s-37.166 17.5 -68.499 17.5c-41.333 0 -70.833 -8 -88.5 -24s-30.5 -43.333 -38.5 -82
c-2.66699 -13.333 -4.66699 -24.166 -6 -32.499s-2 -17.166 -2 -26.499c0 -23.333 7.16699 -38.833 21.5 -46.5s39.833 -11.5 76.5 -11.5h98z" />
    <glyph glyph-name="colon" unicode=":" horiz-adv-x="217" 
d="M189 201l-83 0.000976562c-22.667 0 -34 9 -34 27c0 8 0.666992 14.333 2 19l12 52h83c23.333 0 35 -8.33301 35 -25c0 -6.66699 -0.666992 -12.334 -2 -17.001zM141 0.000976562l-83 0.000976562c-22.667 0 -34 9 -34 27c0 8 0.666992 14.333 2 19l12 52h83
c23.333 0 35 -8.33301 35 -25c0 -6.66699 -0.666992 -12.334 -2 -17.001z" />
    <glyph glyph-name="semicolon" unicode=";" horiz-adv-x="217" 
d="M189 201l-83 0.000976562c-22.667 0 -34 9 -34 27c0 8 0.666992 14.333 2 19l12 52h83c23.333 0 35 -8.33301 35 -25c0 -6.66699 -0.666992 -12.334 -2 -17.001zM38 98.001l86.001 -0.000976562c22 0 33 -8 33 -24c0 -7.33301 -0.666992 -13.333 -2 -18l-18 -78
c-8.66699 -38.667 -32 -58 -70 -58h-50c-10.667 0 -14.334 7 -11.001 21l6 25h50c12 0 19.333 5.66699 22 17l4 17h-34c-20.667 0 -31 8.66699 -31 26c0 6.66699 0.666992 12.334 2 17.001z" />
    <glyph glyph-name="less" unicode="&#x3c;" horiz-adv-x="584" 
d="M546 100v-108l-508 216v90l508 216v-108l-363 -153z" />
    <glyph glyph-name="equal" unicode="=" horiz-adv-x="584" 
d="M544 419v-112h-504v112h504zM544 199v-112h-504v112h504z" />
    <glyph glyph-name="greater" unicode="&#x3e;" horiz-adv-x="584" 
d="M38 100l363 153l-363 153v108l508 -216v-90l-508 -216v108z" />
    <glyph glyph-name="question" unicode="?" horiz-adv-x="541" 
d="M179 690l203.999 0.000976562c50.667 0 89.667 -13.333 117 -40c25.333 -24.667 38 -57.667 38 -99c0 -12.667 -1.66699 -28 -5 -46c-10.667 -47.333 -27.5 -85 -50.5 -113s-51.5 -48 -85.5 -60l-128 -47c-32.667 -12 -55 -27.667 -67 -47
c-9.33301 -15.333 -19 -46.333 -29 -93h-124c18.667 79.333 37.667 135.333 57 168c23.333 39.333 57.333 66.666 102 81.999l122 42c20 6.66699 35.833 16.667 47.5 30s19.5 29.333 23.5 48c2 8 3 15 3 21c0 14.667 -6.16699 25.667 -18.5 33s-32.166 11 -59.499 11h-127
c-25.333 0 -38 8.33301 -38 25c0 5.33301 1 12 3 20zM144.999 0.000976562l-83 0.000976562c-22.667 0 -34 9 -34 27c0 8 0.666992 14.333 2 19l12 52h83c23.333 0 35 -8.33301 35 -25c0 -6.66699 -0.666992 -12.334 -2 -17.001z" />
    <glyph glyph-name="at" unicode="@" horiz-adv-x="975" 
d="M581 376c0 24.667 -7.33301 45.001 -22 61.001s-34 24 -58 24c-32.667 0 -60.334 -14.333 -83.001 -43s-34 -59.334 -34 -92.001c0 -26.667 6.83301 -48.167 20.5 -64.5s32.834 -24.5 57.501 -24.5c34 0 62.333 14.333 85 43s34 60.667 34 96zM611 493.001l13 53.0029h88
l-58 -255l-3 -15c-2.66699 -12.667 -4 -21.667 -4 -27c0 -14 5 -21 15 -21c28 0 53.833 16.5 77.5 49.5s35.5 75.167 35.5 126.5c0 80 -25.333 142.167 -76 186.5s-116.334 66.5 -197.001 66.5c-84.667 0 -153.334 -28.333 -206.001 -85s-79 -128.334 -79 -215.001
c0 -88.667 27.833 -160.167 83.5 -214.5s127.5 -81.5 215.5 -81.5c40.667 0 79 7.16699 115 21.5s67.667 34.166 95 59.499h89c-34.667 -51.333 -78.5 -91 -131.5 -119s-110.833 -42 -173.5 -42c-109.333 0 -202 36 -278 108s-114 162 -114 270
c0 106 37.833 195.5 113.5 268.5s166.5 109.5 272.5 109.5c94.667 0 176 -28 244 -84c72 -59.333 108 -134.333 108 -225c0 -94.667 -33.667 -170 -101 -226c-52 -43.333 -103.333 -65 -154 -65c-15.333 0 -28.666 4.66699 -39.999 14s-17 22.333 -17 39
c-15.333 -15.333 -32.333 -28 -51 -38s-37.334 -15 -56.001 -15c-43.333 0 -81 17.167 -113 51.5s-48 75.166 -48 122.499c0 65.333 19.333 122 58 170c41.333 51.333 93.333 77 156 77c26.667 0 49.834 -5 69.501 -15s36.834 -26.667 51.501 -50z" />
    <glyph glyph-name="A" unicode="A" horiz-adv-x="556" 
d="M525 0l-109 0.00195312c-32.667 0 -49 17.667 -49 53l-3 122h-203l-60 -100c-8.66699 -14.667 -13 -26.334 -13 -35.001c0 -14 9 -21 27 -21l-5 -19h-128c-20.667 0 -31 7 -31 21c0 8 3 17 9 27l340 566c7.33301 12.667 11 23 11 31c0 14 -8.66699 23.333 -26 28l5 18
h143c15.333 0 27.5 -4.5 36.5 -13.5s13.5 -20.833 13.5 -35.5l14 -575c0 -18 1.83301 -29.833 5.5 -35.5s12.5 -9.83398 26.5 -12.501zM357 500.002l-131 -215h136z" />
    <glyph glyph-name="B" unicode="B" horiz-adv-x="612" 
d="M275 580l-34 -149h101c29.333 0 51.5 5 66.5 15s25.833 29 32.5 57l4 27c0 33.333 -23 50 -69 50h-101zM216 321l-50 -211h113c36 0 63.5 7.66699 82.5 23s33.167 41.333 42.5 78c2.66699 10.667 4 21.667 4 33c0 25.333 -8.16699 44.5 -24.5 57.5s-38.5 19.5 -66.5 19.5
h-101zM306 0l-249.999 -0.00195312c-26 0 -39 14 -39 42c0 8.66699 0.666992 15.334 2 20.001l133 564c0.666992 3.33301 1.16699 6.83301 1.5 10.5s0.5 6.16699 0.5 7.5c0 16.667 -8 26 -24 28l4 19h265c56.667 0 100.5 -13 131.5 -39s46.5 -60.667 46.5 -104
c0 -11.333 -0.333008 -19.333 -1 -24s-2 -11.667 -4 -21c-8 -35.333 -19 -62.333 -33 -81c-17.333 -22.667 -42.333 -36.667 -75 -42c27.333 -12 47.666 -27 60.999 -45c16.667 -22 25 -50 25 -84c0 -16 -2.66699 -35.667 -8 -59c-16 -67.333 -42.5 -116.166 -79.5 -146.499
s-89.167 -45.5 -156.5 -45.5z" />
    <glyph glyph-name="C" unicode="C" horiz-adv-x="539" 
d="M327 -5l-145 0.00195312c-60 0 -103.333 17 -130 51c-23.333 29.333 -35 72.666 -35 129.999c0 25.333 2.33301 53.5 7 84.5s11.334 64.5 20.001 100.5c29.333 125.333 67 212.666 113 261.999c42 45.333 100.667 68 176 68h196l-13 -57
c-4.66699 -20 -11.5 -33.833 -20.5 -41.5s-24.167 -11.5 -45.5 -11.5h-86c-56 0 -96 -16.667 -120 -50c-19.333 -26.667 -38.666 -81.667 -57.999 -165s-29 -141.333 -29 -174c0 -31.333 7.16699 -52.833 21.5 -64.5s39.166 -17.5 74.499 -17.5h106c24 0 39 1 45 3
c11.333 4 22.666 13.333 33.999 28h19l-16 -69c-6.66699 -28 -19.5 -47.833 -38.5 -59.5s-44.167 -17.5 -75.5 -17.5z" />
    <glyph glyph-name="D" unicode="D" horiz-adv-x="616" 
d="M128 691h265c70.667 0 123.167 -17.333 157.5 -52s51.5 -85.334 51.5 -152.001c0 -23.333 -1.33301 -45.333 -4 -66s-7.66699 -46 -15 -76c-33.333 -140 -70.5 -232.5 -111.5 -277.5s-109.167 -67.5 -204.5 -67.5h-217c-26 0 -39 14 -39 42
c0 8.66699 0.666992 15.334 2 20.001l133 564c0.666992 3.33301 1.16699 6.83301 1.5 10.5s0.5 6.16699 0.5 7.5c0 16.667 -8 26 -24 28zM270 581l-110 -471h100c54 0 91.667 13.833 113 41.5s44.333 92.167 69 193.5c13.333 54.667 20 98.334 20 131.001
c0 37.333 -8.5 64.166 -25.5 80.499s-44.167 24.5 -81.5 24.5h-85z" />
    <glyph glyph-name="E" unicode="E" horiz-adv-x="537" 
d="M132 691l403.999 -0.000976562l-12 -57c-4 -20 -10.5 -33.833 -19.5 -41.5s-24.167 -11.5 -45.5 -11.5h-185l-35 -149h212l-12 -57c-4 -20 -10.5 -33.833 -19.5 -41.5s-24.167 -11.5 -45.5 -11.5h-105c-19.333 0 -34.166 -3.33301 -44.499 -10s-17.833 -19.667 -22.5 -39
l-39 -163h191c21.333 0 36 1.66699 44 5s16.333 12 25 26h19l-22 -93c-7.33301 -32 -28 -48 -62 -48h-304c-26 0 -39 14 -39 42c0 8.66699 0.666992 15.334 2 20.001l133 564c0.666992 3.33301 1.16699 6.83301 1.5 10.5s0.5 6.16699 0.5 7.5c0 16.667 -8 26 -24 28z" />
    <glyph glyph-name="F" unicode="F" horiz-adv-x="503" 
d="M127 691l407 -1.00098l-12 -57c-4 -20 -10.5 -33.833 -19.5 -41.5s-24.167 -11.5 -45.5 -11.5h-188l-35 -148h224l-12 -57c-4 -20 -10.5 -33.833 -19.5 -41.5s-24.167 -11.5 -45.5 -11.5h-110c-24 0 -42 -5.5 -54 -16.5s-20.667 -29.167 -26 -54.5l-43 -186
c-0.666992 -3.33301 -1.16699 -6.83301 -1.5 -10.5s-0.5 -6.16699 -0.5 -7.5c0 -16.667 8.33301 -26 25 -28l-4 -19h-118c-26 0 -39 14 -39 42c0 8.66699 0.666992 15.334 2 20.001l133 564c0.666992 3.33301 1.16699 6.83301 1.5 10.5s0.5 6.16699 0.5 7.5
c0 16.667 -8 26 -24 28z" />
    <glyph glyph-name="G" unicode="G" horiz-adv-x="606" 
d="M333 691l222 0.00292969l-13 -57c-4.66699 -20 -11.5 -33.833 -20.5 -41.5s-24.167 -11.5 -45.5 -11.5h-112c-56 0 -96 -16.667 -120 -50c-19.333 -26.667 -39 -83.334 -59 -170.001c-17.333 -73.333 -26 -127.333 -26 -162c0 -33.333 7.5 -56.166 22.5 -68.499
s40.167 -18.5 75.5 -18.5c38.667 0 65.5 6.66699 80.5 20s26.833 37.666 35.5 72.999l27 116h-59c-24.667 0 -37 9.66699 -37 29c0 2.66699 0.666992 8 2 16l15 65h172c20 0 34.333 -3 43 -9s13 -15.667 13 -29c0 -4.66699 -1.33301 -13.667 -4 -27l-45 -198
c-14.667 -65.333 -37.667 -110.5 -69 -135.5s-79 -37.5 -143 -37.5h-92c-63.333 0 -109.333 18.333 -138 55c-25.333 32 -38 78.333 -38 139c0 47.333 8 104.666 24 171.999c29.333 125.333 67 212.666 113 261.999c42 45.333 100.667 68 176 68z" />
    <glyph glyph-name="H" unicode="H" horiz-adv-x="643" 
d="M424 322l-216 -0.00195312l-60 -257c-0.666992 -3.33301 -1.16699 -6.83301 -1.5 -10.5s-0.5 -6.16699 -0.5 -7.5c0 -16.667 8.33301 -26 25 -28l-4 -19h-118c-26 0 -39 14 -39 42c0 8.66699 0.666992 15.334 2 20.001l133 564
c0.666992 3.33301 1.16699 6.83301 1.5 10.5s0.5 6.16699 0.5 7.5c0 16.667 -8 26 -24 28l4 19h118c25.333 0 38 -13.667 38 -41c0 -6 -1 -13 -3 -21l-46 -197h216l46 194c0.666992 3.33301 1.16699 6.83301 1.5 10.5s0.5 6.16699 0.5 7.5c0 16.667 -8 26 -24 28l4 19h118
c25.333 0 38 -13.667 38 -41c0 -6 -1 -13 -3 -21l-132 -564c-0.666992 -3.33301 -1.16699 -6.83301 -1.5 -10.5s-0.5 -6.16699 -0.5 -7.5c0 -16.667 8.33301 -26 25 -28l-4 -19h-118c-26 0 -39 14 -39 42c0 8.66699 0.666992 15.334 2 20.001z" />
    <glyph glyph-name="I" unicode="I" horiz-adv-x="297" 
d="M13 62l133 563.999c0.666992 3.33301 1.16699 6.83301 1.5 10.5s0.5 6.16699 0.5 7.5c0 16.667 -8 26 -24 28l4 19h118c25.333 0 38 -13.667 38 -41c0 -6 -1 -13 -3 -21l-132 -564c-0.666992 -3.33301 -1.16699 -6.83301 -1.5 -10.5s-0.5 -6.16699 -0.5 -7.5
c0 -16.667 8.33301 -26 25 -28l-4 -19h-118c-26 0 -39 14 -39 42c0 8.66699 0.666992 15.334 2 20.001z" />
    <glyph glyph-name="J" unicode="J" horiz-adv-x="414" 
d="M168 0l-150.001 -0.000976562c-21.333 0 -37 3.16699 -47 9.5s-15 17.833 -15 34.5c0 8.66699 1.33301 18 4 28l18 78h18c2.66699 -23.333 17 -35 43 -35h58c18.667 0 31.834 3.5 39.501 10.5s14.167 21.5 19.5 43.5l88 373c1.33301 4.66699 2 10.334 2 17.001
c0 14 -10 21 -30 21h-37c-25.333 0 -38 8.33301 -38 25c0 5.33301 1 12 3 20l15 65h209c23.333 0 35 -11.333 35 -34c0 -6.66699 -1 -14 -3 -22l-126 -535c-8 -36 -20 -61.5 -36 -76.5s-39.333 -22.5 -70 -22.5z" />
    <glyph glyph-name="K" unicode="K" horiz-adv-x="598" 
d="M12 62l133.001 563.999c0.666992 3.33301 1.16699 6.83301 1.5 10.5s0.5 6.16699 0.5 7.5c0 16.667 -8 26 -24 28l4 19h118c25.333 0 38 -13.667 38 -41c0 -6 -1 -13 -3 -21l-48 -201l215 203c8 8 12 15.333 12 22c0 10.667 -6.66699 17 -20 19l3 19h144
c20 0 30 -7 30 -21c0 -8 -4.33301 -16.333 -13 -25l-235 -232l99 -276c4 -12 8.5 -19.5 13.5 -22.5s14.5 -4.5 28.5 -4.5h30l-13 -57c-4.66699 -22 -11.334 -36.333 -20.001 -43s-24 -10 -46 -10h-34c-20.667 0 -34.5 3.16699 -41.5 9.5s-14.833 21.833 -23.5 46.5l-96 269
l-72 -67l-45 -193c-0.666992 -3.33301 -1.16699 -6.83301 -1.5 -10.5s-0.5 -6.16699 -0.5 -7.5c0 -16.667 8.33301 -26 25 -28l-4 -19h-118c-26 0 -39 14 -39 42c0 8.66699 0.666992 15.334 2 20.001z" />
    <glyph glyph-name="L" unicode="L" horiz-adv-x="444" 
d="M158 110l176 -0.000976562c21.333 0 36 1.66699 44 5s16.333 12 25 26h19l-22 -93c-7.33301 -32 -28 -48 -62 -48h-290c-26 0 -39 14 -39 42c0 8.66699 0.666992 15.334 2 20.001l133 564c0.666992 3.33301 1.16699 6.83301 1.5 10.5s0.5 6.16699 0.5 7.5
c0 16.667 -8 26 -24 28l4 19h118c25.333 0 38 -13.667 38 -41c0 -6 -1 -13 -3 -21z" />
    <glyph glyph-name="M" unicode="M" horiz-adv-x="770" 
d="M510 691l146 -0.000976562c17.333 0 30.166 -5.16699 38.499 -15.5s12.5 -24.833 12.5 -43.5v-581c0 -11.333 2 -19 6 -23s12 -7 24 -9l-5 -19h-119c-24 0 -36 14.333 -36 43v408l-195 -451h-72c-20.667 0 -34.167 3.16699 -40.5 9.5s-10.833 21.833 -13.5 46.5l-38 376
l-131 -366c-4.66699 -14 -7 -23.333 -7 -28c0 -10.667 7.66699 -17 23 -19l-5 -19h-112c-18 0 -27 6.66699 -27 20c0 6 1.33301 12.667 4 20l211 577c3.33301 11.333 5 20 5 26c0 14.667 -9 24.334 -27 29.001l4 19h113c18.667 0 31.834 -4 39.501 -12
s12.167 -20.333 13.5 -37l43 -414l163 389c4 10 6 18.667 6 26c0 15.333 -9.33301 25 -28 29z" />
    <glyph glyph-name="N" unicode="N" horiz-adv-x="636" 
d="M265 652l156.001 -403.001l91 377c0.666992 3.33301 1.16699 6.83301 1.5 10.5s0.5 6.16699 0.5 7.5c0 16.667 -8 26 -24 28l4 19h94c25.333 0 38 -13.667 38 -41c0 -6 -1 -13 -3 -21l-147 -629h-69c-16.667 0 -28.334 8 -35.001 24l-160 410l-86 -369
c-0.666992 -3.33301 -1.16699 -6.83301 -1.5 -10.5s-0.5 -6.16699 -0.5 -7.5c0 -16.667 8.33301 -26 25 -28l-4 -19h-95c-26 0 -39 14 -39 42c0 8.66699 0.666992 15.334 2 20.001l133 564c0.666992 3.33301 1.16699 6.83301 1.5 10.5s0.5 6.16699 0.5 7.5
c0 16.667 -8 26 -24 28l4 19h90c24 0 39.667 -13 47 -39z" />
    <glyph glyph-name="O" unicode="O" horiz-adv-x="615" 
d="M42 349c29.333 127.333 64.667 215.333 106 264c49.333 58 124 87 224 87c146.667 0 220 -68.333 220 -205c0 -20 -1.5 -41.667 -4.5 -65s-7.83301 -49.333 -14.5 -78c-31.333 -134.667 -68.333 -226.667 -111 -276c-48 -55.333 -121.667 -83 -221 -83
c-76.667 0 -132.667 16 -168 48s-53 81.333 -53 148c0 42.667 7.33301 96 22 160zM185.001 352c-16 -65.333 -23.999 -115.998 -23.999 -151.998c0 -32.667 7.66699 -56.334 23 -71.001s40.333 -22 75 -22c46 0 80.5 17.333 103.5 52s46.5 102 70.5 202
c11.333 48.667 17 88 17 118c0 71.333 -32.667 107 -98 107c-44.667 0 -78.834 -16.833 -102.501 -50.5s-45.167 -94.834 -64.5 -183.501z" />
    <glyph glyph-name="P" unicode="P" horiz-adv-x="581" 
d="M221 364l85.999 -0.000976562c44 0 74.833 6.83301 92.5 20.5s31.5 41.167 41.5 82.5c2 9.33301 3.66699 17.833 5 25.5s2 14.834 2 21.501c0 22.667 -7.16699 39.5 -21.5 50.5s-37.166 16.5 -68.499 16.5h-87zM193.999 253.999l-44.001 -189.001
c-0.666992 -3.33301 -1.16699 -6.83301 -1.5 -10.5s-0.5 -6.16699 -0.5 -7.5c0 -16.667 8.33301 -26 25 -28l-4 -19h-118c-26 0 -39 14 -39 42c0 8.66699 0.666992 15.334 2 20.001l133 564c0.666992 3.33301 1.16699 6.83301 1.5 10.5s0.5 6.16699 0.5 7.5
c0 16.667 -8 26 -24 28l4 19h280c56 0 99.833 -14.833 131.5 -44.5s47.5 -70.5 47.5 -122.5c0 -21.333 -3 -45 -9 -71c-19.333 -82.667 -49.666 -137.667 -90.999 -165c-34.667 -22.667 -94 -34 -178 -34h-116z" />
    <glyph glyph-name="Q" unicode="Q" horiz-adv-x="618" 
d="M469 -40l-15.999 -76.999c-3.33301 -19.333 -15 -29 -35 -29h-67c-17.333 0 -29.666 2.83301 -36.999 8.5s-14 17.5 -20 35.5l-31 95h-20c-76.667 0 -132.667 16 -168 48s-53 81.333 -53 148c0 42.667 7.33301 96 22 160c29.333 127.333 64.666 215.333 105.999 264
c49.333 58 124 87 224 87c146.667 0 220 -68.333 220 -205c0 -20 -1.5 -41.667 -4.5 -65s-7.83301 -49.333 -14.5 -78c-24 -104 -49.333 -179.667 -76 -227c-30.667 -54.667 -72.334 -92 -125.001 -112l7 -20c4.66699 -12.667 9 -21.334 13 -26.001s11 -7 21 -7h54z
M187.001 352.001c-7.33301 -29.333 -13.3311 -57.832 -17.998 -85.499s-7 -49.834 -7 -66.501c0 -27.333 5.16699 -48.166 15.5 -62.499s26.5 -23.5 48.5 -27.5l-19 60h113l15 -42c35.333 26 68.666 103.667 99.999 233c11.333 48.667 17 88 17 118
c0 71.333 -32.667 107 -98 107c-44.667 0 -78.834 -16.833 -102.501 -50.5s-45.167 -94.834 -64.5 -183.501z" />
    <glyph glyph-name="R" unicode="R" horiz-adv-x="584" 
d="M272 580l-45.001 -193h99c37.333 0 63.833 7 79.5 21s27.834 38.667 36.501 74c2.66699 12 4.16699 19.167 4.5 21.5s0.5 7.5 0.5 15.5c0 21.333 -6.83301 36.833 -20.5 46.5s-35.167 14.5 -64.5 14.5h-90zM258.999 277l-56.998 -0.00195312l-51 -213
c-0.666992 -3.33301 -1.16699 -6.83301 -1.5 -10.5s-0.5 -6.16699 -0.5 -7.5c0 -16.667 8.33301 -26 25 -28l-4 -19h-118c-26 0 -39 14 -39 42c0 8.66699 0.666992 15.334 2 20.001l133 564c0.666992 3.33301 1.16699 6.83301 1.5 10.5s0.5 6.16699 0.5 7.5
c0 16.667 -8 26 -24 28l4 19h273c60.667 0 106.334 -15.333 137.001 -46c28 -28 42 -65 42 -111c0 -20.667 -2.33301 -40 -7 -58c-16 -66.667 -38.333 -113.667 -67 -141c-24.667 -23.333 -62.334 -38.666 -113.001 -45.999l47 -151c4 -12 8.5 -19.5 13.5 -22.5
s14.5 -4.5 28.5 -4.5h30l-13 -57c-4.66699 -22 -11.334 -36.333 -20.001 -43s-24 -10 -46 -10h-35c-20.667 0 -34.334 3 -41.001 9s-14.667 21.667 -24 47z" />
    <glyph glyph-name="S" unicode="S" horiz-adv-x="553" 
d="M315 691l212.003 -0.000976562l-13 -57c-4.66699 -20 -11.5 -33.833 -20.5 -41.5s-23.833 -11.5 -44.5 -11.5h-115c-26 0 -45.5 -4.33301 -58.5 -13s-22.167 -24 -27.5 -46l-3 -23c0 -11.333 3.16699 -21.333 9.5 -30s17.5 -16.334 33.5 -23.001l96 -42
c34 -14.667 58.667 -31.667 74 -51c18 -22.667 27 -52 27 -88c0 -15.333 -0.5 -26.666 -1.5 -33.999s-3.16699 -18 -6.5 -32c-16 -70 -40.333 -120.667 -73 -152s-80.334 -47 -143.001 -47h-185c-20.667 0 -36.167 3.16699 -46.5 9.5s-15.5 17.5 -15.5 33.5
c0 9.33301 1.33301 19 4 29l18 78h18c2.66699 -23.333 17 -35 43 -35h128c38 0 65.667 7.66699 83 23c13.333 12 23.666 33.667 30.999 65c2.66699 10.667 4 21.334 4 32.001c0 14.667 -4.5 27.167 -13.5 37.5s-24.167 20.166 -45.5 29.499l-78 33
c-30.667 13.333 -54.334 31.333 -71.001 54s-25 51 -25 85c0 16.667 2.66699 37.334 8 62.001c13.333 56 35.5 95.833 66.5 119.5s74.5 35.5 130.5 35.5z" />
    <glyph glyph-name="T" unicode="T" horiz-adv-x="489" 
d="M121 690l345 -0.000976562c21.333 0 36 1.66699 44 5s16.333 12 25 26h19l-22 -93c-7.33301 -32 -28 -48 -62 -48h-111l-121 -515c-0.666992 -3.33301 -1.16699 -6.83301 -1.5 -10.5s-0.5 -6.16699 -0.5 -7.5c0 -16.667 8.33301 -26 25 -28l-4 -19h-118
c-26 0 -39 14 -39 42c0 8.66699 0.666992 15.334 2 20.001l122 518h-99c-21.333 0 -36 -1.66699 -44 -5s-16.333 -12 -25 -26h-19l22 93c7.33301 32 28 48 62 48z" />
    <glyph glyph-name="U" unicode="U" horiz-adv-x="635" 
d="M255 111c36.667 0 64.832 7.33203 84.499 21.999s34.167 41.334 43.5 80.001l98 413c0.666992 3.33301 1.16699 6.83301 1.5 10.5s0.5 6.16699 0.5 7.5c0 16.667 -8 26 -24 28l4 19h118c25.333 0 38 -13.667 38 -41c0 -6 -1 -13 -3 -21l-102 -436
c-18 -75.333 -44.333 -126.333 -79 -153c-40 -30 -108.333 -45 -205 -45c-136.667 0 -205 50.667 -205 152c0 18 1.33301 33.5 4 46.5l6 29.5l94 403c0.666992 3.33301 1.16699 6.83301 1.5 10.5s0.5 6.16699 0.5 7.5c0 16.667 -8 26 -24 28l4 19h118
c25.333 0 38 -13.667 38 -41c0 -6 -1 -13 -3 -21l-94 -402c-5.33301 -22.667 -8 -40.667 -8 -54c0 -22 6.83301 -37.833 20.5 -47.5s37.834 -14.5 72.501 -14.5z" />
    <glyph glyph-name="V" unicode="V" horiz-adv-x="559" 
d="M30 691h120c26.667 0 40 -13 40 -39l40 -483l220 455c4.66699 10.667 7 19 7 25c0 12 -7.66699 19.667 -23 23l4 19h121c19.333 0 29 -6.33301 29 -19c0 -7.33301 -2.33301 -15.333 -7 -24l-313 -648h-110c-28 -0 -42 12.333 -42 37l-55 602c-2 22 -13.667 33 -35 33z
" />
    <glyph glyph-name="W" unicode="W" horiz-adv-x="845" 
d="M731 691l125.999 0.000976562c17.333 0 26 -6.33301 26 -19c0 -6.66699 -2.66699 -16 -8 -28l-312 -644h-92c-13.333 0 -24.166 3.83301 -32.499 11.5s-12.5 17.167 -12.5 28.5l2 438l-230 -478h-93c-28 0 -42 14 -42 42v587c0 25.333 -10 39.666 -30 42.999l4 19h121
c13.333 0 22.5 -4.33301 27.5 -13s7.5 -20.667 7.5 -36v-406l220 455h145v-455l185 384c5.33301 12 8 21.667 8 29c0 13.333 -8 21 -24 23z" />
    <glyph glyph-name="X" unicode="X" horiz-adv-x="555" 
d="M437 691l131 -0.00195312c22 0 33 -7.33301 33 -22c0 -7.33301 -3.66699 -15.666 -11 -24.999l-216 -271l117 -333c4.66699 -8.66699 8.5 -14.334 11.5 -17.001s10.167 -4 21.5 -4l-4 -19h-120c-22 0 -37 12.333 -45 37l-72 221l-163 -201
c-7.33301 -8.66699 -11 -15.667 -11 -21c0 -9.33301 8.66699 -15 26 -17l-5 -19h-127c-21.333 0 -32 8.33301 -32 25c0 8.66699 4.66699 19.334 14 32.001l252 312l-96 256c-6.66699 17.333 -12.5 29 -17.5 35s-13.5 10 -25.5 12l4 19h113c16.667 0 28.667 -2.83301 36 -8.5
s13.333 -15.167 18 -28.5l60 -176l115 149c7.33301 10.667 11 19.334 11 26.001c0 10.667 -7.33301 17 -22 19z" />
    <glyph glyph-name="Y" unicode="Y" horiz-adv-x="490" 
d="M23 691l111.999 -0.000976562c14.667 0 25.334 -2.33301 32.001 -7s11.667 -14.334 15 -29.001l63 -243l141 213c6.66699 10.667 10 19.334 10 26.001c0 10 -7.66699 17 -23 21l5 19h128c19.333 0 29 -6.33301 29 -19c0 -7.33301 -3.66699 -16.666 -11 -27.999l-244 -370
l-49 -209c-0.666992 -3.33301 -1.16699 -6.83301 -1.5 -10.5s-0.5 -6.16699 -0.5 -7.5c0 -16.667 8.33301 -26 25 -28l-4 -19h-118c-26 0 -39 14 -39 42c0 8.66699 0.666992 15.334 2 20.001l53 221l-96 354c-2.66699 8.66699 -5 15 -7 19
c-5.33301 9.33301 -14.333 14.666 -27 15.999z" />
    <glyph glyph-name="Z" unicode="Z" horiz-adv-x="539" 
d="M558 691l-20.999 -87c-1.33301 -6 -3.33301 -11.333 -6 -16s-9.33398 -14 -20.001 -28l-349 -450h187c21.333 0 36 1.66699 44 5s16.333 12 25 26h19l-22 -93c-7.33301 -32 -28 -48 -62 -48h-344c-14.667 0 -25.167 3.16699 -31.5 9.5s-9.5 14.833 -9.5 25.5l1 10l11 45
l385 491h-192c-25.333 0 -38 8.33301 -38 25c0 5.33301 1 12 3 20l15 65h405z" />
    <glyph glyph-name="bracketleft" unicode="[" horiz-adv-x="333" 
d="M185 638v-646h124v-96h-246v838h246v-96h-124z" />
    <glyph glyph-name="backslash" unicode="\" horiz-adv-x="521" 
d="M555 24l-479.001 667h-108c-10 0 -15 -3.66699 -15 -11c0 -4.66699 1.66699 -9.66699 5 -15l478 -665h107c10.667 0 16 4 16 12c-1.33301 6 -2.66602 10 -3.99902 12z" />
    <glyph glyph-name="bracketright" unicode="]" horiz-adv-x="349" 
d="M143 -8v646h-124v96h246v-838h-246v96h124z" />
    <glyph glyph-name="asciicircum" unicode="^" horiz-adv-x="584" 
d="M170 316h-109l180 375h100l180 -375h-110l-120 263z" />
    <glyph glyph-name="underscore" unicode="_" horiz-adv-x="556" 
d="M556 -95h-556v50h556v-50z" />
    <glyph glyph-name="grave" unicode="`" horiz-adv-x="333" 
d="M124 561l-147 146h154l94 -146h-101z" />
    <glyph glyph-name="a" unicode="a" horiz-adv-x="522" 
d="M305 124l31.999 135.001h-88c-29.333 0 -51.666 -6.66699 -66.999 -20s-26.333 -34 -33 -62c-4 -16 -6 -29 -6 -39c0 -16 5.5 -27.333 16.5 -34s30.167 -10 57.5 -10c18.667 0 35 2.66699 49 8s27 12.666 39 21.999zM171.999 540.001l226 0.000976562
c68 0 102 -28.667 102 -86c0 -13.333 -2 -28.666 -6 -45.999l-82 -349c-2 -8 -3 -14.333 -3 -19c0 -12 8.33301 -20 25 -24l-3 -16h-97c-16.667 0 -28.5 3.16699 -35.5 9.5s-10.5 16.166 -10.5 29.499c0 8.66699 1.66699 19.667 5 33h-9l-38 -56
c-12 -8.66699 -23.833 -14.667 -35.5 -18s-33.167 -5 -64.5 -5c-40 0 -71 8 -93 24c-28 20 -42 52 -42 96c0 18 3 39.667 9 65c16 65.333 39.333 111.166 70 137.499s77.667 39.5 141 39.5h90c14 0 24.5 2.83301 31.5 8.5s12.833 17.167 17.5 34.5
c2.66699 13.333 4 21.333 4 24c0 14.667 -11 22 -33 22h-145c-14 0 -24 1.83301 -30 5.5s-9 11.167 -9 22.5c0 4.66699 1 10.667 3 18z" />
    <glyph glyph-name="b" unicode="b" horiz-adv-x="541" 
d="M276 627l-34.001 -144.998h9l37 48c10 7.33301 21.333 12.333 34 15s28.667 4 48 4c99.333 0 149 -55.667 149 -167c0 -32 -4.66699 -69.667 -14 -113c-24 -108.667 -56.667 -181.667 -98 -219c-36.667 -33.333 -96 -50 -178 -50h-164c-16.667 0 -28.5 3.16699 -35.5 9.5
s-10.5 16.166 -10.5 29.499c0 8.66699 1.66699 19.667 5 33l132 564c1.33301 8 2 13.667 2 17c0 12 -7.33301 19.667 -22 23l4 15h98c14.667 0 25.334 -3 32.001 -9s10 -14.667 10 -26c0 -4.66699 -1.33301 -14.334 -4 -29.001zM151.999 100.002l55.001 0.000976562
c51.333 0 87.666 11 108.999 33s41 70 59 144c9.33301 40.667 14 72 14 94c0 51.333 -24.667 77 -74 77c-28.667 0 -51.167 -7.83301 -67.5 -23.5s-29.5 -44.834 -39.5 -87.501z" />
    <glyph glyph-name="c" unicode="c" horiz-adv-x="482" 
d="M308 444c-35.333 0 -62.666 -11.333 -81.999 -34c-22 -25.333 -40.667 -71.333 -56 -138c-11.333 -48.667 -17 -84.667 -17 -108c0 -26.667 6.66699 -45 20 -55s35.666 -15 66.999 -15h63c26 0 44.667 1.5 56 4.5s22 10.167 32 21.5h14l-13 -54
c-6.66699 -28 -19.167 -47.167 -37.5 -57.5s-50.166 -15.5 -95.499 -15.5h-64c-54.667 0 -96 12 -124 36c-31.333 26.667 -47 69 -47 127c0 29.333 4.66699 65.333 14 108c24 104 59.667 178.667 107 224c36 34.667 77.667 52 125 52h192l-15 -63
c-4.66699 -22 -19.334 -33 -44.001 -33h-95z" />
    <glyph glyph-name="d" unicode="d" horiz-adv-x="556" 
d="M397 444l-64 -0.000976562c-40 0 -71.667 -12 -95 -36c-25.333 -26.667 -45.666 -71.334 -60.999 -134.001c-6 -26 -10.667 -48.667 -14 -68s-5 -35.666 -5 -48.999c0 -23.333 5 -39.666 15 -48.999s26.333 -14 49 -14c34.667 0 60.667 7.66699 78 23
s30.666 43.333 39.999 84zM418 539.999l23.998 96.002c1.33301 8 2 13.667 2 17c0 12 -7.33301 19.667 -22 23l4 15h98c14.667 0 25.334 -3 32.001 -9s10 -14.667 10 -26c0 -4.66699 -1.33301 -14.334 -4 -29.001l-134 -568c-2 -8 -3 -14.333 -3 -19
c0 -12 8.33301 -20 25 -24l-3 -16h-97c-16.667 0 -28.5 3.16699 -35.5 9.5s-10.5 16.166 -10.5 29.499c0 8.66699 1.66699 19.667 5 33h-7l-44 -56c-12.667 -8 -26.167 -13.833 -40.5 -17.5s-34.5 -5.5 -60.5 -5.5c-87.333 0 -131 48.667 -131 146
c0 38 6.33301 83.333 19 136c24.667 105.333 64.334 178.333 119.001 219c41.333 30.667 96 46 164 46h90z" />
    <glyph glyph-name="e" unicode="e" horiz-adv-x="511" 
d="M402 248l-238.003 0.00195312l-8 -44c-2.66699 -14.667 -4 -29 -4 -43c0 -23.333 6.16699 -40.333 18.5 -51s33.833 -16 64.5 -16h92c26 0 44.667 1.5 56 4.5s22 10.167 32 21.5h14l-13 -54c-6.66699 -28 -19.167 -47.167 -37.5 -57.5s-50.166 -15.5 -95.499 -15.5h-79
c-58 0 -101 10.667 -129 32c-33.333 25.333 -50 68.666 -50 129.999c0 37.333 5.66699 79.666 17 126.999c21.333 92 52 157.333 92 196c42.667 41.333 103.334 62 182.001 62c120.667 0 181 -46 181 -138c0 -10 -1 -20.833 -3 -32.5s-3.33301 -20.167 -4 -25.5
c-8.66699 -40 -18.667 -66 -30 -78s-30.666 -18 -57.999 -18zM368.997 344.002c4.66699 18.667 7 35 7 49c0 18 -5.5 31 -16.5 39s-29.167 12 -54.5 12c-35.333 0 -62 -9.33301 -80 -28c-13.333 -14 -25 -38 -35 -72h179z" />
    <glyph glyph-name="f" unicode="f" horiz-adv-x="396" 
d="M21 72l87.999 372.001h-45l18 76c16.667 3.33301 29.334 9 38.001 17s15.334 21.333 20.001 40l2 8c10 40.667 26 68.667 48 84s55 23 99 23h147l-14 -57c-4.66699 -22 -20.334 -33 -47.001 -33h-72c-23.333 0 -37.666 -11.333 -42.999 -34l-7 -28h135l-15 -63
c-4.66699 -22 -19.334 -33 -44.001 -33h-68c-20 0 -32.667 -11 -38 -33l-83 -352c-2 -8 -3 -14.333 -3 -19c0 -12 8.33301 -20 25 -24l-3 -16h-97c-16.667 0 -28.5 3.16699 -35.5 9.5s-10.5 16.166 -10.5 29.499c0 8.66699 1.66699 19.667 5 33z" />
    <glyph glyph-name="g" unicode="g" horiz-adv-x="559" 
d="M314 93l-9 -0.00195312l-41 -50c-24 -15.333 -59.667 -23 -107 -23c-44.667 0 -77.334 10.333 -98.001 31s-31 53.667 -31 99c0 35.333 6 79 18 131c21.333 90.667 57.333 157.334 108 200.001c46.667 39.333 106.334 59 179.001 59h159c26.667 0 40 -11.667 40 -35
c0 -6 -1 -13 -3 -21l-110 -464c-12 -52.667 -34.667 -93 -68 -121c-36 -30.667 -84.333 -46 -145 -46h-118c-30.667 0 -53.667 4.33301 -69 13s-23 24.334 -23 47.001c0 10 1.33301 20 4 30l11 45h12c6.66699 -13.333 16 -22.333 28 -27s29.667 -7 53 -7h72
c37.333 0 66 7 86 21s34.667 39.667 44 77zM397 443.998h-63.999c-78 0 -129.667 -54.333 -155 -163c-10.667 -44.667 -16 -79 -16 -103c0 -22 5 -37 15 -45s26.667 -12 50 -12c34.667 0 60.667 7.66699 78 23s30.666 43.333 39.999 84z" />
    <glyph glyph-name="h" unicode="h" horiz-adv-x="546" 
d="M275 627l-35.001 -147.996h9l35 42c14 10.667 28 18 42 22s36.667 6 68 6c45.333 0 78.5 -8.5 99.5 -25.5s31.5 -43.167 31.5 -78.5c0 -17.333 -2.66699 -38.333 -8 -63l-76 -323c-2 -8 -3 -14.333 -3 -19c0 -12 8.33301 -20 25 -24l-3 -16h-97
c-16.667 0 -28.5 3.16699 -35.5 9.5s-10.5 16.166 -10.5 29.499c0 8.66699 1.66699 19.667 5 33l66 281c4.66699 19.333 7 36 7 50c0 17.333 -5.5 29.166 -16.5 35.499s-29.833 9.5 -56.5 9.5c-32 0 -56.833 -9 -74.5 -27s-30.167 -43 -37.5 -75l-67 -287
c-2 -8 -3 -14.333 -3 -19c0 -12 8.33301 -20 25 -24l-3 -16h-97c-16.667 0 -28.5 3.16699 -35.5 9.5s-10.5 16.166 -10.5 29.499c0 8.66699 1.66699 19.667 5 33l131 564c1.33301 8 2 13.667 2 17c0 12 -7.33301 19.667 -22 23l4 15h98c14.667 0 25.334 -3 32.001 -9
s10 -14.667 10 -26c0 -4.66699 -1.33301 -14.334 -4 -29.001z" />
    <glyph glyph-name="i" unicode="i" horiz-adv-x="272" 
d="M243 476l-98.001 -416.998c-2 -8 -3 -14.333 -3 -19c0 -12 8.33301 -20 25 -24l-3 -16h-97c-16.667 0 -28.5 3.16699 -35.5 9.5s-10.5 16.166 -10.5 29.499c0 8.66699 1.66699 19.667 5 33l97 413c1.33301 8 2 13.667 2 17c0 12 -7.33301 19.667 -22 23l4 15h98
c14.667 0 25.334 -3 32.001 -9s10 -14.667 10 -26c0 -4.66699 -1.33301 -14.334 -4 -29.001zM270.999 595.002h-79c-23.333 0 -35 8 -35 24l2 16l14 56h79c23.333 0 35 -8 35 -24l-2 -16z" />
    <glyph glyph-name="j" unicode="j" horiz-adv-x="277" 
d="M251 476l-115.001 -494c-10.667 -45.333 -27.167 -78.166 -49.5 -98.499s-55.166 -30.5 -98.499 -30.5h-65c-28 0 -48 3.33301 -60 10s-18 19.667 -18 39c0 4 1.33301 13.333 4 28l12 53h12c7.33301 -19.333 25.666 -29 54.999 -29h17c22.667 0 39 4 49 12
c12.667 10 22.667 31 30 63l107 456c1.33301 8 2 13.667 2 17c0 12 -7.33301 19.667 -22 23l4 15h98c14.667 0 25.334 -3 32.001 -9s10 -14.667 10 -26c0 -4.66699 -1.33301 -14.334 -4 -29.001zM277.999 595h-79c-23.333 0 -35 8 -35 24l2 16l14 56h79
c23.333 0 35 -8 35 -24l-2 -16z" />
    <glyph glyph-name="k" unicode="k" horiz-adv-x="527" 
d="M24 72l129.999 564.003c1.33301 8 2 13.667 2 17c0 12 -7.33301 19.667 -22 23l4 15h98c14.667 0 25.334 -3 32.001 -9s10 -14.667 10 -26c0 -4.66699 -1.33301 -14.334 -4 -29.001l-63 -275l142 136c8.66699 8 13 15.333 13 22c0 7.33301 -5.66699 12 -17 14l5 16h111
c17.333 0 26 -7 26 -21c0 -9.33301 -4.66699 -18.666 -14 -27.999l-143 -139h31c36 0 63.667 -8.33301 83 -25s29 -40.334 29 -71.001v-17c-2 -8 -3.33301 -14 -4 -18l-38 -162c-2 -8 -3 -14.333 -3 -19c0 -12 8.33301 -20 25 -24l-3 -16h-97
c-16.667 0 -28.5 3.16699 -35.5 9.5s-10.5 16.166 -10.5 29.499c0 8.66699 1.66699 19.667 5 33l29 122c2.66699 10 4 19.667 4 29c0 26 -17 39 -51 39h-108l-47 -203c-2 -8 -3 -14.333 -3 -19c0 -12 8.33301 -20 25 -24l-3 -16h-97c-16.667 0 -28.5 3.16699 -35.5 9.5
s-10.5 16.166 -10.5 29.499c0 8.66699 1.66699 19.667 5 33z" />
    <glyph glyph-name="l" unicode="l" horiz-adv-x="270" 
d="M23 72l132.999 564.002c1.33301 8 2 13.667 2 17c0 12 -7.33301 19.667 -22 23l4 15h98c14.667 0 25.334 -3 32.001 -9s10 -14.667 10 -26c0 -4.66699 -1.33301 -14.334 -4 -29.001l-134 -568c-2 -8 -3 -14.333 -3 -19c0 -12 8.33301 -20 25 -24l-3 -16h-97
c-16.667 0 -28.5 3.16699 -35.5 9.5s-10.5 16.166 -10.5 29.499c0 8.66699 1.66699 19.667 5 33z" />
    <glyph glyph-name="m" unicode="m" horiz-adv-x="817" 
d="M208 352l-69.0039 -292.998c-2 -8 -3 -14.333 -3 -19c0 -12 8.33301 -20 25 -24l-3 -16h-97c-16.667 0 -28.5 3.16699 -35.5 9.5s-10.5 16.166 -10.5 29.499c0 8.66699 1.66699 19.667 5 33l97 413c1.33301 8 2 13.667 2 17c0 12 -7.33301 19.667 -22 23l4 15h98
c14.667 0 25.334 -3 32.001 -9s10 -14.667 10 -26c0 -4.66699 -1.33301 -14.334 -4 -29.001h7l38 48c11.333 8 25.833 14.167 43.5 18.5s41.834 6.5 72.501 6.5c32.667 0 57.5 -5.83301 74.5 -17.5s28.833 -30.5 35.5 -56.5l42 49c14.667 9.33301 27.667 15.333 39 18
c18 4.66699 45.333 7 82 7c39.333 0 68.333 -9.66699 87 -29s28 -46.333 28 -81c0 -19.333 -2.33301 -38.333 -7 -57l-76 -323c-2 -8 -3 -14.333 -3 -19c0 -12 8.33301 -20 25 -24l-3 -16h-97c-16.667 0 -28.5 3.16699 -35.5 9.5s-10.5 16.166 -10.5 29.499
c0 8.66699 1.66699 19.667 5 33l72 306c2.66699 10 4 19.333 4 28c0 28 -19.333 42 -58 42c-33.333 0 -58.166 -6.66699 -74.499 -20s-28.833 -38.666 -37.5 -75.999l-69 -293c-2 -8 -3 -14.333 -3 -19c0 -12 8.33301 -20 25 -24l-3 -16h-97
c-16.667 0 -28.5 3.16699 -35.5 9.5s-10.5 16.166 -10.5 29.499c0 8.66699 1.66699 19.667 5 33l72 306c2.66699 10 4 19.333 4 28c0 28 -19.333 42 -58 42c-33.333 0 -58.166 -6.66699 -74.499 -20s-28.833 -38.666 -37.5 -75.999z" />
    <glyph glyph-name="n" unicode="n" horiz-adv-x="542" 
d="M208 348l-68.001 -288.999c-2 -8 -3 -14.333 -3 -19c0 -12 8.33301 -20 25 -24l-3 -16h-97c-16.667 0 -28.5 3.16699 -35.5 9.5s-10.5 16.166 -10.5 29.499c0 8.66699 1.66699 19.667 5 33l97 413c1.33301 8 2 13.667 2 17c0 12 -7.33301 19.667 -22 23l4 15h98
c28 0 42 -11.333 42 -34c0 -4.66699 -1.33301 -13.667 -4 -27h8l35 42c14 10.667 28 18 42 22s36.667 6 68 6c45.333 0 78.5 -8.5 99.5 -25.5s31.5 -43.167 31.5 -78.5c0 -17.333 -2.66699 -38.333 -8 -63l-76 -323c-2 -8 -3 -14.333 -3 -19c0 -12 8.33301 -20 25 -24
l-3 -16h-97c-16.667 0 -28.5 3.16699 -35.5 9.5s-10.5 16.166 -10.5 29.499c0 8.66699 1.66699 19.667 5 33l66 281c4.66699 18 7 33.667 7 47c0 18.667 -5.5 31.334 -16.5 38.001s-29.833 10 -56.5 10c-30 0 -54.167 -8.83301 -72.5 -26.5s-31.166 -42.167 -38.499 -73.5z
" />
    <glyph glyph-name="o" unicode="o" horiz-adv-x="531" 
d="M209 -7c-60.667 0 -106 13.001 -136 39.001c-32 28 -48 72.333 -48 133c0 32 5 70.667 15 116c24 102.667 56 173 96 211s103.333 57 190 57c62 0 107.833 -15.333 137.5 -46s44.5 -74.667 44.5 -132c0 -30.667 -4.66699 -66.334 -14 -107.001
c-26 -107.333 -59 -179.333 -99 -216s-102 -55 -186 -55zM226 94.001c36 0 63.334 11 82.001 33c21.333 24.667 41 73 59 145c10 40 15 73 15 99c0 51.333 -25 77 -75 77c-37.333 0 -65 -10.333 -83 -31c-20.667 -23.333 -39.334 -70 -56.001 -140
c-10.667 -48 -16 -83.667 -16 -107c0 -27.333 5.83301 -46.833 17.5 -58.5s30.5 -17.5 56.5 -17.5z" />
    <glyph glyph-name="p" unicode="p" horiz-adv-x="555" 
d="M161 100l55 0.000976562c51.333 0 87.666 11 108.999 33s41 70 59 144c9.33301 40.667 14 72 14 94c0 51.333 -24.667 77 -74 77c-29.333 0 -52.166 -7.83301 -68.499 -23.5s-29.5 -44.834 -39.5 -87.501zM-2 -74.999l131.001 560.001c1.33301 8 2 13.667 2 17
c0 12 -7.33301 19.667 -22 23l4 15h98c15.333 0 26.166 -3 32.499 -9s9.5 -15 9.5 -27c0 -6.66699 -1 -14 -3 -22h8l39 48c10 7.33301 21.333 12.333 34 15s28.667 4 48 4c99.333 0 149 -55.667 149 -167c0 -32 -4.66699 -69.667 -14 -113
c-24 -108.667 -56.667 -181.667 -98 -219c-36.667 -33.333 -96 -50 -178 -50h-101l-20 -88c-2 -8 -3 -14.333 -3 -19c0 -12 8.33301 -20 25 -24l-3 -16h-97c-16.667 0 -28.5 3.16699 -35.5 9.5s-10.5 16.166 -10.5 29.499c0 8.66699 1.66699 19.667 5 33z" />
    <glyph glyph-name="q" unicode="q" horiz-adv-x="559" 
d="M275 -75l32.999 141.001h-9l-41 -50c-12.667 -8 -26.167 -13.833 -40.5 -17.5s-34.5 -5.5 -60.5 -5.5c-87.333 0 -131 48.667 -131 146c0 38 6.33301 83.333 19 136c24.667 105.333 64.334 178.333 119.001 219c41.333 30.667 96 46 164 46h164
c26.667 0 40 -11.667 40 -35c0 -6 -1 -13 -3 -21l-135 -572c-2 -8 -3 -14.333 -3 -19c0 -12 8.33301 -20 25 -24l-3 -16h-97c-16.667 0 -28.5 3.16699 -35.5 9.5s-10.5 16.166 -10.5 29.499c0 8.66699 1.66699 19.667 5 33zM396.999 444.001l-64 -0.000976562
c-40 0 -71.667 -12 -95 -36c-25.333 -26.667 -45.666 -71.334 -60.999 -134.001c-6 -26 -10.667 -48.667 -14 -68s-5 -35.666 -5 -48.999c0 -23.333 5 -39.666 15 -48.999s26.333 -14 49 -14c34.667 0 60.667 7.66699 78 23s30.666 43.333 39.999 84z" />
    <glyph glyph-name="r" unicode="r" horiz-adv-x="402" 
d="M218 375l-73.999 -315.999c-2 -8 -3 -14.333 -3 -19c0 -12 8.33301 -20 25 -24l-3 -16h-97c-16.667 0 -28.5 3.16699 -35.5 9.5s-10.5 16.166 -10.5 29.499c0 8.66699 1.66699 19.667 5 33l97 413c1.33301 8 2 13.667 2 17c0 12 -7.33301 19.667 -22 23l4 15h98
c15.333 0 26.166 -3 32.499 -9s9.5 -14.667 9.5 -26c0 -7.33301 -1 -15 -3 -23h8l33 44c8.66699 8.66699 18 14.667 28 18s26.333 5 49 5h80l-16 -67c-5.33301 -24.667 -20.333 -37 -45 -37h-72c-26 0 -46 -5.16699 -60 -15.5s-24 -28.5 -30 -54.5z" />
    <glyph glyph-name="s" unicode="s" horiz-adv-x="439" 
d="M187 96c24 0 42.168 3.66699 54.501 11s21.5 22 27.5 44c2 8 3 15.333 3 22c0 24 -13.667 41.667 -41 53l-62 27c-32.667 14 -55.834 29.5 -69.501 46.5s-20.5 38.5 -20.5 64.5c0 6 0.666992 13.5 2 22.5s3 18.833 5 29.5c9.33301 40 25.833 70.667 49.5 92
s55.834 32 96.501 32h188l-15 -63c-4.66699 -22 -19.334 -33 -44.001 -33h-110c-13.333 0 -24.833 -3 -34.5 -9s-15.667 -14.5 -18 -25.5s-3.5 -17.833 -3.5 -20.5c0 -9.33301 2.33301 -16.666 7 -21.999s12.667 -10.333 24 -15l90 -38c23.333 -10.667 42.333 -24 57 -40
c18 -20.667 27 -44.667 27 -72c0 -8.66699 -1.66699 -20.334 -5 -35.001c-14 -62.667 -30.667 -105 -50 -127c-23.333 -26.667 -60.333 -40 -111 -40h-183c-33.333 -0 -50 13.333 -50 40v12c0 3.33301 1.33301 10 4 20l13 58h12c4 -10 9.33301 -18.167 16 -24.5
s15 -9.5 25 -9.5h116z" />
    <glyph glyph-name="t" unicode="t" horiz-adv-x="365" 
d="M99 444l-38.998 -0.000976562l19 69c30.667 4 59.167 18 85.5 42s46.833 53 61.5 87h41l-24 -102h131l-15 -63c-4.66699 -22 -19.334 -33 -44.001 -33h-50c-16 0 -28.167 -3.5 -36.5 -10.5s-14.833 -20.167 -19.5 -39.5l-56 -238c-2 -9.33301 -3 -17.333 -3 -24
c0 -11.333 4 -19.333 12 -24s21.333 -7 40 -7h42c14.667 0 25.667 1.5 33 4.5s14.666 10.167 21.999 21.5h14l-14 -59c-6.66699 -28 -16.167 -46.333 -28.5 -55s-37.5 -13 -75.5 -13h-113c-47.333 0 -71 19.333 -71 58c0 12.667 2.66699 30.334 8 53.001z" />
    <glyph glyph-name="u" unicode="u" horiz-adv-x="550" 
d="M342 191l68.9971 294.003c1.33301 8 2 13.667 2 17c0 12 -7.33301 19.667 -22 23l4 15h98c14.667 0 25.334 -3 32.001 -9s10 -14.667 10 -26c0 -4.66699 -1.33301 -14.334 -4 -29.001l-98 -417c-2 -8 -3 -14.333 -3 -19c0 -12 8.33301 -20 25 -24l-3 -16h-97
c-16.667 0 -28.5 3.16699 -35.5 9.5s-10.5 16.166 -10.5 29.499c0 8.66699 1.66699 19.667 5 33h-7l-41 -56c-12 -9.33301 -25.167 -15.833 -39.5 -19.5s-36.833 -5.5 -67.5 -5.5c-44 0 -76.5 9.83301 -97.5 29.5s-31.5 47.5 -31.5 83.5c0 20 3 42 9 66l74 315
c1.33301 8 2 13.667 2 17c0 12 -7.33301 19.667 -22 23l4 15h98c14.667 0 25.334 -3 32.001 -9s10 -14.667 10 -26c0 -4.66699 -1.33301 -14.334 -4 -29.001l-68 -289c-4.66699 -19.333 -7 -36 -7 -50c0 -18 5.33301 -29.833 16 -35.5s29.334 -8.5 56.001 -8.5
c32 0 56.833 8.5 74.5 25.5s30.167 41.167 37.5 72.5z" />
    <glyph glyph-name="v" unicode="v" horiz-adv-x="465" 
d="M37 540l99.999 0.00195312c14.667 0 24.834 -4.33301 30.501 -13s8.5 -20.667 8.5 -36l16 -346l169 336c5.33301 9.33301 8 17.666 8 24.999c0 10 -6.66699 16 -20 18l3 16h95c20 0 30 -7 30 -21c0 -6.66699 -3.33301 -17.334 -10 -32.001l-242 -487h-138l-29 484
c0 13.333 -1.5 22.833 -4.5 28.5s-9.83301 9.5 -20.5 11.5z" />
    <glyph glyph-name="w" unicode="w" horiz-adv-x="772" 
d="M355 302l-136 -302h-140l-9 488c0 7.33301 -1 13.666 -3 18.999c-4 11.333 -11.333 17 -22 17l4 16h92c17.333 0 29.333 -3.33301 36 -10s10 -20 10 -40l4 -327l170 377h89l35 -379l152 316c5.33301 10.667 8 19.667 8 27c0 10.667 -6 17.334 -18 20.001l4 16h107
c16.667 0 25 -5.66699 25 -17l-3 -16l-246 -507h-134z" />
    <glyph glyph-name="x" unicode="x" horiz-adv-x="513" 
d="M196 288l-84.001 192.999c-6 14.667 -11 24.334 -15 29.001c-6.66699 8 -16 12.667 -28 14l5 16h96c16.667 0 28.834 -2.83301 36.501 -8.5s15.167 -17.167 22.5 -34.5l49 -112l89 100c8 9.33301 12 17.333 12 24c0 8 -6.33301 13 -19 15l4 16h124c17.333 0 26 -6 26 -18
c0 -8 -4.66699 -17.333 -14 -28l-178 -206l110 -248c4 -9.33301 7.66699 -15.333 11 -18s10.333 -4.66699 21 -6l-4 -16h-98c-16 0 -28 3.16699 -36 9.5s-15.667 17.833 -23 34.5l-64 148l-118 -137c-6.66699 -7.33301 -10 -14.333 -10 -21
c0 -9.33301 7.33301 -15.333 22 -18l-5 -16h-126c-7.33301 0 -13 2 -17 6s-6 9 -6 15c0 8 2.33301 14.333 7 19z" />
    <glyph glyph-name="y" unicode="y" horiz-adv-x="498" 
d="M115 540c26.667 0 43.667 -14.6641 51 -43.9971l62 -260l153 241c7.33301 11.333 11 20.666 11 27.999c0 10.667 -7 17 -21 19l4 16h120c13.333 0 20 -6 20 -18l-3 -13l-384 -605c-5.33301 -8.66699 -8 -15.334 -8 -20.001c0 -8 7 -13 21 -15l-4 -16h-110
c-16 0 -24 7 -24 21c0 6 2.33301 12.333 7 19l130 205l-92 384c-3.33301 13.333 -7 23.166 -11 29.499s-11 10.5 -21 12.5l4 16h95z" />
    <glyph glyph-name="z" unicode="z" horiz-adv-x="458" 
d="M138 96h165.002c14.667 0 25.667 1.5 33 4.5s14.666 10.167 21.999 21.5h14l-13 -54c-6.66699 -28 -16.167 -46.333 -28.5 -55s-37.5 -13 -75.5 -13h-242c-25.333 0 -38 10 -38 30l2 16l5 21c2 8 3.83301 14 5.5 18s5.16699 9 10.5 15l279 344h-157
c-14 0 -24 1.83301 -30 5.5s-9 11.167 -9 22.5c0 4.66699 1 10.667 3 18l12 50h338l-14 -60c-6.66699 -30.667 -16.334 -54 -29.001 -70z" />
    <glyph glyph-name="braceleft" unicode="{" horiz-adv-x="470" 
d="M39 262c33.333 14 57.3301 33.334 71.9971 58.001c9.33301 15.333 17.333 38 24 68l44 219c7.33301 35.333 29.166 61 65.499 77s81.5 24 135.5 24c10.667 0 26.667 -0.833008 48 -2.5s34.333 -2.5 39 -2.5c-37.333 -18 -61.666 -32.667 -72.999 -44
c-16 -15.333 -27.667 -40.333 -35 -75l-46 -217c-4.66699 -28 -13.667 -50.333 -27 -67c-17.333 -22 -40.666 -34.667 -69.999 -38c20 -2.66699 34.333 -10.5 43 -23.5s13 -29.5 13 -49.5l-4 -40l-38 -177c-3.33301 -16 -5.66602 -28.333 -6.99902 -37s-2 -16 -2 -22
c0 -18.667 4.5 -34.667 13.5 -48s24.833 -24.333 47.5 -33c-33.333 -3.33301 -64.333 -5 -93 -5c-46.667 0 -82.334 6.33301 -107.001 19c-30 15.333 -45 38.666 -45 69.999l4 28l40 191c0.666992 5.33301 2.33398 14.833 5.00098 28.5s4 24.5 4 32.5
c0 14 -3.66699 26.5 -11 37.5s-20.666 20.5 -39.999 28.5z" />
    <glyph glyph-name="bar" unicode="|" horiz-adv-x="289" 
d="M270 629l-147 -629.001h-66c-26 0 -39 14 -39 42c0 8.66699 0.666992 15.334 2 20.001l149 629h66c25.333 0 38 -13.667 38 -41c0 -6 -1 -13 -3 -21z" />
    <glyph glyph-name="braceright" unicode="}" horiz-adv-x="470" 
d="M257 278c-23.333 4 -39.999 11.3291 -49.999 21.9961s-15 23.667 -15 39c0 6.66699 2.16699 18.834 6.5 36.501s6.5 27.167 6.5 28.5l36 187c4 14 6 26.667 6 38c0 34 -20.667 58.667 -62 74c10.667 0 28.667 0.833008 54 2.5s41.333 2.5 48 2.5
c41.333 0 74.333 -5.33301 99 -16c30.667 -13.333 46 -34.666 46 -63.999l-4 -30l-40 -187c-2.66699 -15.333 -4.33398 -25.666 -5.00098 -30.999c-2.66699 -15.333 -4 -25.333 -4 -30c0 -18 4.33301 -33.5 13 -46.5s22.667 -21.5 42 -25.5c-33.333 -14 -58 -34.333 -74 -61
c-12.667 -20.667 -23 -51 -31 -91l-39 -182c-8.66699 -42 -33.334 -71.667 -74.001 -89c-29.333 -12.667 -68 -19 -116 -19c-20 0 -37.167 0.333008 -51.5 1s-27.5 1.33398 -39.5 2.00098c32.667 12 55.5 25.5 68.5 40.5s23.167 41.167 30.5 78.5l37 168
c8.66699 42.667 18.334 73.667 29.001 93c18 32 45.667 51.667 83 59z" />
    <glyph glyph-name="asciitilde" unicode="~" horiz-adv-x="533" 
d="M7 210c17.333 26 37.333 49.3359 60 70.0029c38.667 34.667 76.334 52 113.001 52c18 0 35.667 -3.33301 53 -10c6.66699 -2.66699 28.334 -13.334 65.001 -32.001c27.333 -14 48.666 -21 63.999 -21c14.667 0 29.5 5.33301 44.5 16s29.167 27.667 42.5 51l54 -67
c-22.667 -38.667 -49.834 -68.334 -81.501 -89.001s-63.167 -31 -94.5 -31c-10.667 0 -20.667 1.16699 -30 3.5s-20.333 6.16602 -33 11.499c-21.333 12.667 -38 22 -50 28c-22 12 -41.333 18 -58 18c-16 0 -31.667 -5 -47 -15s-31.333 -27.667 -48 -53z" />
    <glyph glyph-name="nonbreakingspace" unicode="&#xa0;" horiz-adv-x="500" 
 />
    <glyph glyph-name="exclamdown" unicode="&#xa1;" horiz-adv-x="507" 
d="M70 110l51.001 -0.000976562c16.667 0 28 2.33301 34 7s13.667 16.667 23 36l11 22l-143 468c-2.66699 9.33301 -6.33398 16.5 -11.001 21.5s-12 7.5 -22 7.5l5 19h117c13.333 0 23.333 -3.33301 30 -10s12 -16.334 16 -29.001l88 -320l150 299
c4.66699 10.667 7 18.334 7 23.001c0 9.33301 -6.66699 15.333 -20 18l4 19h105c23.333 0 35 -6.66699 35 -20c0 -5.33301 -3 -14.666 -9 -27.999l-275 -553c-18 -36 -35.833 -60 -53.5 -72s-41.5 -18 -71.5 -18h-45c-28 0 -42 11 -42 33c0 7.33301 0.666992 13.333 2 18z
M426.001 751.999h-245c-18 0 -27 7 -27 21c0 7.33301 0.666992 13 2 17l10 42h245c18 0 27 -7 27 -21c0 -7.33301 -0.666992 -13 -2 -17z" />
    <glyph glyph-name="cent" unicode="&#xa2;" horiz-adv-x="550" 
d="M349 220l61.998 265.004c1.33301 8 2 13.667 2 17c0 12 -7.33301 19.667 -22 23l4 15h98c14.667 0 25.334 -3 32.001 -9s10 -14.667 10 -26c0 -4.66699 -1.33301 -14.334 -4 -29.001l-105 -452c-12.667 -54.667 -33.334 -95.667 -62.001 -123
c-33.333 -32 -80 -48 -140 -48h-149c-24.667 0 -43.667 3.66699 -57 11s-20 20.666 -20 39.999c0 4 1.33301 12.667 4 26l14 58h12c4 -10.667 10.167 -19 18.5 -25s20.5 -9 36.5 -9h120c30 0 53.5 7.16699 70.5 21.5s29.167 38.166 36.5 71.499l11 54h-7l-41 -56
c-12 -9.33301 -25.167 -15.833 -39.5 -19.5s-36.833 -5.5 -67.5 -5.5c-44 0 -76.5 9.83301 -97.5 29.5s-31.5 47.5 -31.5 83.5c0 20 3 42 9 66l67 286c1.33301 8 2 13.667 2 17c0 12 -7.33301 19.667 -22 23l4 15h98c14.667 0 25.334 -3 32.001 -9s10 -14.667 10 -26
c0 -4.66699 -1.33301 -14.334 -4 -29.001l-61 -260c-4.66699 -19.333 -7 -36 -7 -50c0 -18 5.33301 -29.833 16 -35.5s29.334 -8.5 56.001 -8.5c32 0 56.833 8.5 74.5 25.5s30.167 41.167 37.5 72.5zM429.998 604.004h-187c-15.333 0 -23 6 -23 18c0 4 1 9 3 15l7 37h187
c15.333 0 23 -6 23 -18c0 -4 -1 -9 -3 -15z" />
    <glyph glyph-name="currency" unicode="&#xa4;" horiz-adv-x="556" 
d="M278 200c30 0 54.834 10.833 74.501 32.5s29.5 48.5 29.5 80.5s-9.5 58.5 -28.5 79.5s-44.167 31.5 -75.5 31.5c-30 0 -54.5 -10.5 -73.5 -31.5s-28.5 -47.5 -28.5 -79.5c0 -32.667 9.16699 -59.667 27.5 -81s43.166 -32 74.499 -32zM-2.99902 98l98 98.001
c-10 16.667 -17.667 34.5 -23 53.5s-8 40.167 -8 63.5c0 21.333 2.83301 42.166 8.5 62.499s13.167 37.833 22.5 52.5l-98 98l66 66l98 -98c17.333 10.667 35.5 18.834 54.5 24.501s39.833 8.5 62.5 8.5s43.834 -2.83301 63.501 -8.5s37.5 -13.834 53.5 -24.501l98 98
l66 -66l-98 -98c10 -15.333 18 -32.833 24 -52.5s9 -40.5 9 -62.5c0 -22.667 -2.83301 -43.834 -8.5 -63.501s-13.834 -37.5 -24.501 -53.5l98 -98l-66 -66l-98 98c-15.333 -10 -32.833 -18 -52.5 -24s-41.167 -9 -64.5 -9c-21.333 0 -41.833 2.83301 -61.5 8.5
s-38.167 13.834 -55.5 24.501l-98 -98z" />
    <glyph glyph-name="brokenbar" unicode="&#xa6;" horiz-adv-x="289" 
d="M270 629l-147 -629.001h-66c-26 0 -39 14 -39 42c0 8.66699 0.666992 15.334 2 20.001l149 629h66c25.333 0 38 -13.667 38 -41c0 -6 -1 -13 -3 -21z" />
    <glyph glyph-name="section" unicode="&#xa7;" horiz-adv-x="556" 
d="M240 512l161.995 -81c38.667 -19.333 67 -39.333 85 -60c23.333 -27.333 35 -61.666 35 -102.999c0 -18.667 -6.66699 -40 -20 -64c-18 -32 -43 -55.333 -75 -70c15.333 -12.667 28.333 -28 39 -46c15.333 -25.333 23 -52.666 23 -81.999c0 -60 -22 -107.333 -66 -142
c-40.667 -32 -90.667 -48 -150 -48c-77.333 0 -134.666 25 -171.999 75c-25.333 34 -38 71.333 -38 112h132c2.66699 -24 9.33398 -42.333 20.001 -55c14.667 -17.333 37.334 -26 68.001 -26c26.667 0 46.334 9.33301 59.001 28c8.66699 12.667 13 27 13 43
s-4.66699 28.667 -14 38s-24.333 19.333 -45 30l-153 78c-38 19.333 -65 39.666 -81 60.999c-18.667 25.333 -28 58.666 -28 99.999c0 28.667 9 54.667 27 78c15.333 20 37.333 38 66 54c-14 12.667 -25.333 27.334 -34 44.001c-12 22.667 -18 46.667 -18 72
c0 48.667 17.333 90 52 124c37.333 36.667 87.333 55 150 55c56 0 101.333 -12.333 136 -37c44 -31.333 66 -80 66 -146h-127c0 23.333 -6.66699 42 -20 56s-32.666 21 -57.999 21c-22 0 -39.5 -5.66699 -52.5 -17s-19.5 -24.333 -19.5 -39
c0 -22.667 12.667 -40.334 38 -53.001zM340.995 309l-146.001 74.002c-14 -4.66699 -24.667 -13.334 -32 -26.001s-11 -23.334 -11 -32.001c0 -14 4.16699 -26 12.5 -36s19.5 -18.667 33.5 -26l157 -84c28.667 16 43 38 43 66c0 14 -5.16699 26 -15.5 36
s-24.166 19.333 -41.499 28z" />
    <glyph glyph-name="dieresis" unicode="&#xa8;" horiz-adv-x="531" 
d="M128 691l404.999 0.000976562l-13 -57c-4.66699 -20.667 -11.5 -34.834 -20.5 -42.501s-23.833 -11.5 -44.5 -11.5h-185l-35 -148h213l-13 -56c-4.66699 -20.667 -11.5 -34.834 -20.5 -42.501s-23.833 -11.5 -44.5 -11.5h-105c-19.333 0 -34.166 -3.33301 -44.499 -10
s-17.833 -19.667 -22.5 -39l-39 -163h191c21.333 0 36 1.66699 44 5s16.333 12 25 26h19l-22 -93c-7.33301 -32 -28 -48 -62 -48h-304c-26 0 -39 14 -39 42c0 8.66699 0.666992 15.334 2 20.001l133 564c0.666992 3.33301 1.16699 6.83301 1.5 10.5s0.5 6.16699 0.5 7.5
c0 16.667 -8 26 -24 28zM319.999 752.001h-79c-23.333 0 -35 8 -35 24l2 16l14 56h79c23.333 0 35 -8 35 -24l-2 -16zM496.999 752.001h-79c-23.333 0 -35 8 -35 24l2 16l14 56h79c23.333 0 35 -8 35 -24l-2 -16z" />
    <glyph glyph-name="copyright" unicode="&#xa9;" horiz-adv-x="737" 
d="M450 289l81 0.00390625c-6.66699 -44 -25 -78.667 -55 -104s-65.333 -38 -106 -38c-56.667 0 -102.167 18.5 -136.5 55.5s-51.5 83.833 -51.5 140.5c0 57.333 16.667 104.166 50 140.499s78.666 54.5 135.999 54.5c42 0 77.333 -11.833 106 -35.5
s46.667 -57.834 54 -102.501h-78c-4 19.333 -13.5 34.166 -28.5 44.499s-32.833 15.5 -53.5 15.5c-29.333 0 -52.166 -10.167 -68.499 -30.5s-24.5 -48.5 -24.5 -84.5c0 -34 8.66699 -62.333 26 -85s40.333 -34 69 -34c23.333 0 42 5.16699 56 15.5s22 26.166 24 47.499z
M723 340.004c0 -108 -35.666 -195 -106.999 -261c-66.667 -62 -149.334 -93 -248.001 -93c-98 0 -180.667 31 -248 93c-72 66.667 -108 153.667 -108 261c0 108 35.667 195 107 261c67.333 62 150.333 93 249 93c98 0 180.667 -31 248 -93c71.333 -66 107 -153 107 -261z
M621.001 340.004c0 80 -24.667 145.333 -74 196s-109 76 -179 76c-72 0 -132.333 -25.333 -181 -76s-73 -116 -73 -196s24.333 -145.333 73 -196s109 -76 181 -76c70 0 129.667 25.333 179 76s74 116 74 196z" />
    <glyph glyph-name="ordfeminine" unicode="&#xaa;" horiz-adv-x="539" 
d="M327 -5l-145 0.000976562c-60 0 -103.333 17 -130 51c-23.333 29.333 -35 72.666 -35 129.999c0 25.333 2.33301 53.5 7 84.5s11.334 64.5 20.001 100.5c29.333 125.333 67 212.666 113 261.999c42 45.333 100.667 68 176 68h196l-13 -57
c-4.66699 -20 -11.5 -33.833 -20.5 -41.5s-24.167 -11.5 -45.5 -11.5h-86c-47.333 0 -82.166 -11 -104.499 -33s-41.5 -60.667 -57.5 -116h232l-13 -56c-4.66699 -20.667 -11.5 -34.834 -20.5 -42.501s-23.833 -11.5 -44.5 -11.5h-124
c-18.667 0 -32.834 -2.66699 -42.501 -8s-17.167 -16 -22.5 -32c-2.66699 -15.333 -5.16699 -31.166 -7.5 -47.499s-3.5 -30.166 -3.5 -41.499c0 -31.333 7.33301 -53 22 -65s39.667 -18 75 -18h106c24 0 39 1 45 3c11.333 4 22.666 13.333 33.999 28h19l-16 -69
c-6.66699 -28 -19.5 -47.833 -38.5 -59.5s-44.167 -17.5 -75.5 -17.5z" />
    <glyph glyph-name="guillemotleft" unicode="&#xab;" horiz-adv-x="556" 
d="M255 368l-100 -88l100 -88v-116l-167 144v120l167 144v-116zM468 368l-100 -88l100 -88v-116l-167 144v120l167 144v-116z" />
    <glyph glyph-name="logicalnot" unicode="&#xac;" horiz-adv-x="584" 
d="M432 63v199h-392v112h504v-311h-112z" />
    <glyph glyph-name="minus" unicode="&#xad;" horiz-adv-x="333" 
d="M306 349v-130h-279v130h279z" />
    <glyph glyph-name="registered" unicode="&#xae;" horiz-adv-x="737" 
d="M309 310l-0.000976562 -160.001h-82v381h143c52.667 0 91.834 -8.5 117.501 -25.5s38.5 -46.833 38.5 -89.5c0 -33.333 -8.5 -58.166 -25.5 -74.499s-39.167 -24.5 -66.5 -24.5l98 -167h-97l-88 160h-38zM308.999 374.999h72.001c21.333 0 35.666 2.66699 42.999 8
c10 7.33301 15 21 15 41c0 17.333 -8.33301 29.333 -25 36c-10.667 4 -26.667 6 -48 6h-57v-91zM723 339.999c0 -108 -35.666 -195 -106.999 -261c-66.667 -62 -149.334 -93 -248.001 -93c-98 0 -180.667 31 -248 93c-72 66.667 -108 153.667 -108 261
c0 108 35.667 195 107 261c67.333 62 150.333 93 249 93c98 0 180.667 -31 248 -93c71.333 -66 107 -153 107 -261zM621.001 339.999c0 80 -24.667 145.333 -74 196s-109 76 -179 76c-72 0 -132.333 -25.333 -181 -76s-73 -116 -73 -196s24.333 -145.333 73 -196
s109 -76 181 -76c70 0 129.667 25.333 179 76s74 116 74 196z" />
    <glyph glyph-name="macron" unicode="&#xaf;" horiz-adv-x="331" 
d="M32 62l133 563.999c0.666992 3.33301 1.16699 6.83301 1.5 10.5s0.5 6.16699 0.5 7.5c0 16.667 -8 26 -24 28l4 19h118c25.333 0 38 -13.667 38 -41c0 -6 -1 -13 -3 -21l-132 -564c-0.666992 -3.33301 -1.16699 -6.83301 -1.5 -10.5s-0.5 -6.16699 -0.5 -7.5
c0 -16.667 8.33301 -26 25 -28l-4 -19h-118c-26 0 -39 14 -39 42c0 8.66699 0.666992 15.334 2 20.001zM219 751.999h-79c-23.333 0 -35 8 -35 24l2 16l14 56h79c23.333 0 35 -8 35 -24l-2 -16zM396 751.999h-79c-23.333 0 -35 8 -35 24l2 16l14 56h79
c23.333 0 35 -8 35 -24l-2 -16z" />
    <glyph glyph-name="degree" unicode="&#xb0;" horiz-adv-x="400" 
d="M57 542c0 39.333 14 73 42 101s61.667 42 101 42s73 -14 101 -42s42 -61.667 42 -101s-14 -73 -42 -101s-61.667 -42 -101 -42s-73 14 -101 42s-42 61.667 -42 101zM113 542c0 -24 8.5 -44.5 25.5 -61.5s37.5 -25.5 61.5 -25.5s44.5 8.5 61.5 25.5s25.5 37.5 25.5 61.5
s-8.5 44.5 -25.5 61.5s-37.5 25.5 -61.5 25.5s-44.5 -8.5 -61.5 -25.5s-25.5 -37.5 -25.5 -61.5z" />
    <glyph glyph-name="plusminus" unicode="&#xb1;" horiz-adv-x="584" 
d="M234 381v125h112v-125h196v-112h-196v-126h-112v126h-196v112h196zM38 0v112h504v-112h-504z" />
    <glyph glyph-name="twosuperior" unicode="&#xb2;" horiz-adv-x="331" 
d="M32 62l133 563.999c0.666992 3.33301 1.16699 6.83301 1.5 10.5s0.5 6.16699 0.5 7.5c0 16.667 -8 26 -24 28l4 19h118c25.333 0 38 -13.667 38 -41c0 -6 -1 -13 -3 -21l-132 -564c-0.666992 -3.33301 -1.16699 -6.83301 -1.5 -10.5s-0.5 -6.16699 -0.5 -7.5
c0 -16.667 8.33301 -26 25 -28l-4 -19h-118c-26 0 -39 14 -39 42c0 8.66699 0.666992 15.334 2 20.001z" />
    <glyph glyph-name="threesuperior" unicode="&#xb3;" horiz-adv-x="272" 
d="M243 476l-98.001 -416.998c-2 -8 -3 -14.333 -3 -19c0 -12 8.33301 -20 25 -24l-3 -16h-97c-16.667 0 -28.5 3.16699 -35.5 9.5s-10.5 16.166 -10.5 29.499c0 8.66699 1.66699 19.667 5 33l97 413c1.33301 8 2 13.667 2 17c0 12 -7.33301 19.667 -22 23l4 15h98
c14.667 0 25.334 -3 32.001 -9s10 -14.667 10 -26c0 -4.66699 -1.33301 -14.334 -4 -29.001zM270.999 595.002h-79c-23.333 0 -35 8 -35 24l2 16l14 56h79c23.333 0 35 -8 35 -24l-2 -16z" />
    <glyph glyph-name="paragraph" unicode="&#xb6;" horiz-adv-x="570" 
d="M265 691h260c12 0 20 -2.66699 24 -8s6 -12.666 6 -21.999c0 -6 -1.66699 -15.667 -5 -29l-166 -720c-2 -8 -3 -14.333 -3 -19c0 -12 8.33301 -20 25 -24l-3 -16h-100c-16.667 0 -28.5 3.16699 -35.5 9.5s-10.5 16.166 -10.5 29.499c0 8.66699 1.66699 19.667 5 33
l146 636h-60l-150 -649c-2 -8 -3 -14.333 -3 -19c0 -12 8.33301 -20 25 -24l-3 -16h-100c-16.667 0 -28.5 3.16699 -35.5 9.5s-10.5 16.166 -10.5 29.499c0 8.66699 1.66699 19.667 5 33l84 363c-35.333 7.33301 -61.833 25.833 -79.5 55.5s-26.5 65.834 -26.5 108.501
c0 22 2.66699 45.333 8 70c12.667 54.667 34 95.667 64 123c34 30.667 80.333 46 139 46z" />
    <glyph glyph-name="periodcentered" unicode="&#xb7;" horiz-adv-x="249" 
d="M122 315c16 0 30.332 -6 42.999 -18s19 -27 19 -45c0 -16 -6 -30.333 -18 -43s-27 -19 -45 -19c-17.333 0 -32 6 -44 18s-18 26.667 -18 44c0 18 6.33301 33 19 45s27.334 18 44.001 18z" />
    <glyph glyph-name="periodcentered" unicode="&#x2219;" horiz-adv-x="249" 
d="M122 315c16 0 30.332 -6 42.999 -18s19 -27 19 -45c0 -16 -6 -30.333 -18 -43s-27 -19 -45 -19c-17.333 0 -32 6 -44 18s-18 26.667 -18 44c0 18 6.33301 33 19 45s27.334 18 44.001 18z" />
    <glyph glyph-name="cedilla" unicode="&#xb8;" horiz-adv-x="511" 
d="M402 248l-238.003 0.00195312l-8 -44c-2.66699 -14.667 -4 -29 -4 -43c0 -23.333 6.16699 -40.333 18.5 -51s33.833 -16 64.5 -16h92c26 0 44.667 1.5 56 4.5s22 10.167 32 21.5h14l-13 -54c-6.66699 -28 -19.167 -47.167 -37.5 -57.5s-50.166 -15.5 -95.499 -15.5h-79
c-58 0 -101 10.667 -129 32c-33.333 25.333 -50 68.666 -50 129.999c0 37.333 5.66699 79.666 17 126.999c21.333 92 52 157.333 92 196c42.667 41.333 103.334 62 182.001 62c120.667 0 181 -46 181 -138c0 -10 -1 -20.833 -3 -32.5s-3.33301 -20.167 -4 -25.5
c-8.66699 -40 -18.667 -66 -30 -78s-30.666 -18 -57.999 -18zM368.997 344.002c4.66699 18.667 7 35 7 49c0 18 -5.5 31 -16.5 39s-29.167 12 -54.5 12c-35.333 0 -62 -9.33301 -80 -28c-13.333 -14 -25 -38 -35 -72h179zM292.997 595.002h-79c-23.333 0 -35 8 -35 24l2 16
l14 56h79c23.333 0 35 -8 35 -24l-2 -16zM469.997 595.002h-79c-23.333 0 -35 8 -35 24l2 16l14 56h79c23.333 0 35 -8 35 -24l-2 -16z" />
    <glyph glyph-name="onesuperior" unicode="&#xb9;" horiz-adv-x="891" 
d="M268 652l156.001 -403.001l91 377c0.666992 3.33301 1.16699 6.83301 1.5 10.5s0.5 6.16699 0.5 7.5c0 16.667 -8 26 -24 28l4 19h94c25.333 0 38 -13.667 38 -41c0 -6 -1 -13 -3 -21l-147 -629h-69c-16.667 0 -28.334 8 -35.001 24l-160 410l-86 -369
c-0.666992 -3.33301 -1.16699 -6.83301 -1.5 -10.5s-0.5 -6.16699 -0.5 -7.5c0 -16.667 8.33301 -26 25 -28l-4 -19h-95c-26 0 -39 14 -39 42c0 8.66699 0.666992 15.334 2 20.001l133 564c0.666992 3.33301 1.16699 6.83301 1.5 10.5s0.5 6.16699 0.5 7.5
c0 16.667 -8 26 -24 28l4 19h90c24 0 39.667 -13 47 -39zM691.001 89.999c-35.333 0 -62.498 8.16797 -81.498 24.501s-28.5 42.166 -28.5 77.499c0 11.333 0.666992 22.333 2 33s4 24 8 40c13.333 61.333 32.166 103.5 56.499 126.5s62.833 34.5 115.5 34.5
c38 0 66 -9.33301 84 -28s27 -45 27 -79c0 -20 -3 -42 -9 -66c-16 -65.333 -35.833 -108.833 -59.5 -130.5s-61.834 -32.5 -114.501 -32.5zM702.003 150c22 0 38.833 7.00098 50.5 21.001s23.5 43.333 35.5 88c6 24 9 44 9 60c0 31.333 -15 47 -45 47
c-22 0 -39 -6.83301 -51 -20.5s-22.167 -38.334 -30.5 -74.001s-12.5 -61.5 -12.5 -77.5c0 -29.333 14.667 -44 44 -44zM794.003 7.00098h-207c-18.667 0 -28 5.66699 -28 17l2 12l6 24h207c18.667 0 28 -5.66699 28 -17l-2 -12z" />
    <glyph glyph-name="ordmasculine" unicode="&#xba;" horiz-adv-x="482" 
d="M303 94c26 0 44.6689 1.5 56.002 4.5s22 10.167 32 21.5h14l-13 -54c-6.66699 -28 -19.167 -47.167 -37.5 -57.5s-50.166 -15.5 -95.499 -15.5h-64c-54.667 0 -96 12 -124 36c-31.333 26.667 -47 69 -47 127c0 29.333 4.66699 65.333 14 108
c24 104 59.667 178.667 107 224c36 34.667 77.667 52 125 52h195l-15 -63c-4.66699 -22 -20.334 -33 -47.001 -33h-95c-29.333 0 -53.5 -8.16699 -72.5 -24.5s-35.5 -45.5 -49.5 -87.5h183l-15 -63c-4.66699 -22 -20.334 -33 -47.001 -33h-145c-8 -30 -12 -54.667 -12 -74
c0 -25.333 7.16699 -43 21.5 -53s37.166 -15 68.499 -15h63z" />
    <glyph glyph-name="guillemotright" unicode="&#xbb;" horiz-adv-x="556" 
d="M401 280l-100 88v116l167 -144v-120l-167 -144v116zM188 280l-100 88v116l167 -144v-120l-167 -144v116z" />
    <glyph glyph-name="onequarter" unicode="&#xbc;" horiz-adv-x="526" 
d="M485 213h-456l12 65h456zM234 429c2.66699 16.667 11.332 31.001 25.999 43.001s30 18 46 18c14.667 0 26.834 -4.83301 36.501 -14.5s14.5 -21.834 14.5 -36.501c0 -4.66699 -0.333008 -8 -1 -10c-2.66699 -16 -11 -30.333 -25 -43s-29.667 -19 -47 -19
c-14 0 -26 5 -36 15s-15 22.333 -15 37c0 4.66699 0.333008 8 1 10zM169.998 62.001c3.33301 17.333 11.8311 32 25.498 44s28.834 18 45.501 18c14.667 0 27 -5 37 -15s15 -22.333 15 -37c0 -4.66699 -0.333008 -8 -1 -10c-3.33301 -15.333 -12.166 -29.333 -26.499 -42
s-29.5 -19 -45.5 -19c-14 0 -26 5 -36 15s-15 22 -15 36c0 4.66699 0.333008 8 1 10z" />
    <glyph glyph-name="onehalf" unicode="&#xbd;" horiz-adv-x="512" 
d="M65 343l96 79l98 -132l161 132l61 -79l-158 -133l100 -131l-93 -75l-104 129l-154 -129l-65 75l161 131z" />
    <glyph glyph-name="threequarters" unicode="&#xbe;" horiz-adv-x="524" 
d="M135 0l-83 0.000976562c-22.667 0 -34 9 -34 27c0 8 0.666992 14.333 2 19l12 52h83c23.333 0 35 -8.33301 35 -25c0 -6.66699 -0.666992 -12.334 -2 -17.001zM315 0.000976562l-83 0.000976562c-22.667 0 -34 9 -34 27c0 8 0.666992 14.333 2 19l12 52h83
c23.333 0 35 -8.33301 35 -25c0 -6.66699 -0.666992 -12.334 -2 -17.001zM495 0.00195312l-83 0.000976562c-22.667 0 -34 9 -34 27c0 8 0.666992 14.333 2 19l12 52h83c23.333 0 35 -8.33301 35 -25c0 -6.66699 -0.666992 -12.334 -2 -17.001z" />
    <glyph glyph-name="questiondown" unicode="&#xbf;" horiz-adv-x="272" 
d="M243 476l-98.001 -416.998c-2 -8 -3 -14.333 -3 -19c0 -12 8.33301 -20 25 -24l-3 -16h-97c-16.667 0 -28.5 3.16699 -35.5 9.5s-10.5 16.166 -10.5 29.499c0 8.66699 1.66699 19.667 5 33l97 413c1.33301 8 2 13.667 2 17c0 12 -7.33301 19.667 -22 23l4 15h98
c14.667 0 25.334 -3 32.001 -9s10 -14.667 10 -26c0 -4.66699 -1.33301 -14.334 -4 -29.001zM164.999 595.002h-79c-23.333 0 -35 8 -35 24l2 16l14 56h79c23.333 0 35 -8 35 -24l-2 -16zM341.999 595.002h-79c-23.333 0 -35 8 -35 24l2 16l14 56h79c23.333 0 35 -8 35 -24
l-2 -16z" />
    <glyph glyph-name="Agrave" unicode="&#xc0;" horiz-adv-x="548" 
d="M517 0l-109 0.00195312c-32.667 0 -49 17.667 -49 53l-3 122h-203l-60 -100c-8.66699 -14.667 -13 -26.334 -13 -35.001c0 -14 9 -21 27 -21l-5 -19h-128c-20.667 0 -31 7 -31 21c0 8 3 17 9 27l340 566c7.33301 12.667 11 23 11 31c0 14 -8.66699 23.333 -26 28l5 18
h143c15.333 0 27.5 -4.5 36.5 -13.5s13.5 -20.833 13.5 -35.5l14 -575c0 -18 1.83301 -29.833 5.5 -35.5s12.5 -9.83398 26.5 -12.501zM349 500.002l-131 -215h136z" />
    <glyph glyph-name="Agrave" unicode="&#x410;" horiz-adv-x="548" 
d="M517 0l-109 0.00195312c-32.667 0 -49 17.667 -49 53l-3 122h-203l-60 -100c-8.66699 -14.667 -13 -26.334 -13 -35.001c0 -14 9 -21 27 -21l-5 -19h-128c-20.667 0 -31 7 -31 21c0 8 3 17 9 27l340 566c7.33301 12.667 11 23 11 31c0 14 -8.66699 23.333 -26 28l5 18
h143c15.333 0 27.5 -4.5 36.5 -13.5s13.5 -20.833 13.5 -35.5l14 -575c0 -18 1.83301 -29.833 5.5 -35.5s12.5 -9.83398 26.5 -12.501zM349 500.002l-131 -215h136z" />
    <glyph glyph-name="Aacute" unicode="&#xc1;" horiz-adv-x="581" 
d="M210 323l-49 -213h100c36 0 62.667 6.66699 80 20c20 15.333 35 43.333 45 84c4 17.333 6 32.333 6 45c0 22 -7 38.167 -21 48.5s-37.333 15.5 -70 15.5h-91zM129 691h422l-12 -57c-4 -20 -10.5 -33.833 -19.5 -41.5s-24.167 -11.5 -45.5 -11.5h-204l-34 -148h107
c60.667 0 108.167 -14.167 142.5 -42.5s51.5 -68.5 51.5 -120.5c0 -18.667 -2.66699 -40.334 -8 -65.001c-18 -77.333 -46.167 -130.833 -84.5 -160.5s-97.5 -44.5 -177.5 -44.5h-216c-26 0 -39 14 -39 42c0 8.66699 0.666992 15.334 2 20.001l133 564
c0.666992 3.33301 1.16699 6.83301 1.5 10.5s0.5 6.16699 0.5 7.5c0 16.667 -8 26 -24 28z" />
    <glyph glyph-name="Aacute" unicode="&#x411;" horiz-adv-x="581" 
d="M210 323l-49 -213h100c36 0 62.667 6.66699 80 20c20 15.333 35 43.333 45 84c4 17.333 6 32.333 6 45c0 22 -7 38.167 -21 48.5s-37.333 15.5 -70 15.5h-91zM129 691h422l-12 -57c-4 -20 -10.5 -33.833 -19.5 -41.5s-24.167 -11.5 -45.5 -11.5h-204l-34 -148h107
c60.667 0 108.167 -14.167 142.5 -42.5s51.5 -68.5 51.5 -120.5c0 -18.667 -2.66699 -40.334 -8 -65.001c-18 -77.333 -46.167 -130.833 -84.5 -160.5s-97.5 -44.5 -177.5 -44.5h-216c-26 0 -39 14 -39 42c0 8.66699 0.666992 15.334 2 20.001l133 564
c0.666992 3.33301 1.16699 6.83301 1.5 10.5s0.5 6.16699 0.5 7.5c0 16.667 -8 26 -24 28z" />
    <glyph glyph-name="Acircumflex" unicode="&#xc2;" horiz-adv-x="607" 
d="M270 580l-34 -149h101c29.333 0 51.5 5 66.5 15s25.833 29 32.5 57l4 27c0 33.333 -23 50 -69 50h-101zM211 321l-50 -211h113c36 0 63.5 7.66699 82.5 23s33.167 41.333 42.5 78c2.66699 10.667 4 21.667 4 33c0 25.333 -8.16699 44.5 -24.5 57.5s-38.5 19.5 -66.5 19.5
h-101zM301 0l-249.999 -0.00195312c-26 0 -39 14 -39 42c0 8.66699 0.666992 15.334 2 20.001l133 564c0.666992 3.33301 1.16699 6.83301 1.5 10.5s0.5 6.16699 0.5 7.5c0 16.667 -8 26 -24 28l4 19h265c56.667 0 100.5 -13 131.5 -39s46.5 -60.667 46.5 -104
c0 -11.333 -0.333008 -19.333 -1 -24s-2 -11.667 -4 -21c-8 -35.333 -19 -62.333 -33 -81c-17.333 -22.667 -42.333 -36.667 -75 -42c27.333 -12 47.666 -27 60.999 -45c16.667 -22 25 -50 25 -84c0 -16 -2.66699 -35.667 -8 -59c-16 -67.333 -42.5 -116.166 -79.5 -146.499
s-89.167 -45.5 -156.5 -45.5z" />
    <glyph glyph-name="Acircumflex" unicode="&#x412;" horiz-adv-x="607" 
d="M270 580l-34 -149h101c29.333 0 51.5 5 66.5 15s25.833 29 32.5 57l4 27c0 33.333 -23 50 -69 50h-101zM211 321l-50 -211h113c36 0 63.5 7.66699 82.5 23s33.167 41.333 42.5 78c2.66699 10.667 4 21.667 4 33c0 25.333 -8.16699 44.5 -24.5 57.5s-38.5 19.5 -66.5 19.5
h-101zM301 0l-249.999 -0.00195312c-26 0 -39 14 -39 42c0 8.66699 0.666992 15.334 2 20.001l133 564c0.666992 3.33301 1.16699 6.83301 1.5 10.5s0.5 6.16699 0.5 7.5c0 16.667 -8 26 -24 28l4 19h265c56.667 0 100.5 -13 131.5 -39s46.5 -60.667 46.5 -104
c0 -11.333 -0.333008 -19.333 -1 -24s-2 -11.667 -4 -21c-8 -35.333 -19 -62.333 -33 -81c-17.333 -22.667 -42.333 -36.667 -75 -42c27.333 -12 47.666 -27 60.999 -45c16.667 -22 25 -50 25 -84c0 -16 -2.66699 -35.667 -8 -59c-16 -67.333 -42.5 -116.166 -79.5 -146.499
s-89.167 -45.5 -156.5 -45.5z" />
    <glyph glyph-name="Atilde" unicode="&#xc3;" horiz-adv-x="504" 
d="M128 691l417 -0.000976562l-12 -57c-4 -20 -10.5 -33.833 -19.5 -41.5s-24.167 -11.5 -45.5 -11.5h-198l-121 -516c-0.666992 -3.33301 -1.16699 -6.83301 -1.5 -10.5s-0.5 -6.16699 -0.5 -7.5c0 -16.667 8.33301 -26 25 -28l-4 -19h-118c-26 0 -39 14 -39 42
c0 8.66699 0.666992 15.334 2 20.001l133 564c0.666992 3.33301 1.16699 6.83301 1.5 10.5s0.5 6.16699 0.5 7.5c0 16.667 -8 26 -24 28z" />
    <glyph glyph-name="Atilde" unicode="&#x413;" horiz-adv-x="504" 
d="M128 691l417 -0.000976562l-12 -57c-4 -20 -10.5 -33.833 -19.5 -41.5s-24.167 -11.5 -45.5 -11.5h-198l-121 -516c-0.666992 -3.33301 -1.16699 -6.83301 -1.5 -10.5s-0.5 -6.16699 -0.5 -7.5c0 -16.667 8.33301 -26 25 -28l-4 -19h-118c-26 0 -39 14 -39 42
c0 8.66699 0.666992 15.334 2 20.001l133 564c0.666992 3.33301 1.16699 6.83301 1.5 10.5s0.5 6.16699 0.5 7.5c0 16.667 -8 26 -24 28z" />
    <glyph glyph-name="Adieresis" unicode="&#xc4;" horiz-adv-x="615" 
d="M269 691l155.999 0.000976562c17.333 0 30 -5 38 -15c6 -8 10 -20.667 12 -38l42 -476c2 -20.667 6.5 -34.5 13.5 -41.5s20.833 -10.5 41.5 -10.5h14l-14 -61c-4.66699 -19.333 -11.167 -32.333 -19.5 -39s-22.166 -10 -41.499 -10h-509c-25.333 0 -38 8.33301 -38 25
c0 5.33301 1 12 3 20l15 65h20c23.333 0 42.333 15.333 57 46l223 461c6 12 9 22 9 30c0 13.333 -9.33301 21.666 -28 24.999zM352.999 523.001l-200 -413h233z" />
    <glyph glyph-name="Adieresis" unicode="&#x414;" horiz-adv-x="615" 
d="M269 691l155.999 0.000976562c17.333 0 30 -5 38 -15c6 -8 10 -20.667 12 -38l42 -476c2 -20.667 6.5 -34.5 13.5 -41.5s20.833 -10.5 41.5 -10.5h14l-14 -61c-4.66699 -19.333 -11.167 -32.333 -19.5 -39s-22.166 -10 -41.499 -10h-509c-25.333 0 -38 8.33301 -38 25
c0 5.33301 1 12 3 20l15 65h20c23.333 0 42.333 15.333 57 46l223 461c6 12 9 22 9 30c0 13.333 -9.33301 21.666 -28 24.999zM352.999 523.001l-200 -413h233z" />
    <glyph glyph-name="Aring" unicode="&#xc5;" horiz-adv-x="537" 
d="M132 691l403.999 -0.000976562l-12 -57c-4 -20 -10.5 -33.833 -19.5 -41.5s-24.167 -11.5 -45.5 -11.5h-185l-35 -149h212l-12 -57c-4 -20 -10.5 -33.833 -19.5 -41.5s-24.167 -11.5 -45.5 -11.5h-105c-19.333 0 -34.166 -3.33301 -44.499 -10s-17.833 -19.667 -22.5 -39
l-39 -163h191c21.333 0 36 1.66699 44 5s16.333 12 25 26h19l-22 -93c-7.33301 -32 -28 -48 -62 -48h-304c-26 0 -39 14 -39 42c0 8.66699 0.666992 15.334 2 20.001l133 564c0.666992 3.33301 1.16699 6.83301 1.5 10.5s0.5 6.16699 0.5 7.5c0 16.667 -8 26 -24 28z" />
    <glyph glyph-name="Aring" unicode="&#x415;" horiz-adv-x="537" 
d="M132 691l403.999 -0.000976562l-12 -57c-4 -20 -10.5 -33.833 -19.5 -41.5s-24.167 -11.5 -45.5 -11.5h-185l-35 -149h212l-12 -57c-4 -20 -10.5 -33.833 -19.5 -41.5s-24.167 -11.5 -45.5 -11.5h-105c-19.333 0 -34.166 -3.33301 -44.499 -10s-17.833 -19.667 -22.5 -39
l-39 -163h191c21.333 0 36 1.66699 44 5s16.333 12 25 26h19l-22 -93c-7.33301 -32 -28 -48 -62 -48h-304c-26 0 -39 14 -39 42c0 8.66699 0.666992 15.334 2 20.001l133 564c0.666992 3.33301 1.16699 6.83301 1.5 10.5s0.5 6.16699 0.5 7.5c0 16.667 -8 26 -24 28z" />
    <glyph glyph-name="AE" unicode="&#xc6;" horiz-adv-x="933" 
d="M609 629l-47 -201.001l215 203c8 8 12 15.333 12 22c0 10.667 -6.66699 17 -20 19l3 19h144c20 0 30 -7 30 -21c0 -8 -4.33301 -16.333 -13 -25l-235 -232l99 -276c4 -12 8.5 -19.5 13.5 -22.5s14.5 -4.5 28.5 -4.5h30l-13 -57c-4.66699 -22 -11.334 -36.333 -20.001 -43
s-24 -10 -46 -10h-34c-20.667 0 -34.5 3.16699 -41.5 9.5s-14.833 21.833 -23.5 46.5l-96 269l-72 -67l-46 -193c-0.666992 -3.33301 -1.16699 -6.83301 -1.5 -10.5s-0.5 -6.16699 -0.5 -7.5c0 -16.667 8.33301 -26 25 -28l-4 -19h-118c-26 0 -39 14 -39 42
c0 8.66699 0.666992 15.334 2 20.001l52 218l-30 50l-224 -288c-14 -18 -25 -29.5 -33 -34.5s-21 -7.5 -39 -7.5h-55c-25.333 -0 -38 8.33301 -38 25c0 5.33301 1 12 3 20l15 65h27c12 0 20 1 24 3s10.333 8.66699 19 20l234 308l-108 196
c-6.66699 12 -13.167 20.333 -19.5 25s-15.833 8 -28.5 10l4 19h103c24.667 0 43.334 -13 56.001 -39l125 -218l46 192c0.666992 3.33301 1.16699 6.83301 1.5 10.5s0.5 6.16699 0.5 7.5c0 16.667 -8 26 -24 28l4 19h118c25.333 0 38 -13.667 38 -41c0 -6 -1 -13 -3 -21z
" />
    <glyph glyph-name="AE" unicode="&#x416;" horiz-adv-x="933" 
d="M609 629l-47 -201.001l215 203c8 8 12 15.333 12 22c0 10.667 -6.66699 17 -20 19l3 19h144c20 0 30 -7 30 -21c0 -8 -4.33301 -16.333 -13 -25l-235 -232l99 -276c4 -12 8.5 -19.5 13.5 -22.5s14.5 -4.5 28.5 -4.5h30l-13 -57c-4.66699 -22 -11.334 -36.333 -20.001 -43
s-24 -10 -46 -10h-34c-20.667 0 -34.5 3.16699 -41.5 9.5s-14.833 21.833 -23.5 46.5l-96 269l-72 -67l-46 -193c-0.666992 -3.33301 -1.16699 -6.83301 -1.5 -10.5s-0.5 -6.16699 -0.5 -7.5c0 -16.667 8.33301 -26 25 -28l-4 -19h-118c-26 0 -39 14 -39 42
c0 8.66699 0.666992 15.334 2 20.001l52 218l-30 50l-224 -288c-14 -18 -25 -29.5 -33 -34.5s-21 -7.5 -39 -7.5h-55c-25.333 -0 -38 8.33301 -38 25c0 5.33301 1 12 3 20l15 65h27c12 0 20 1 24 3s10.333 8.66699 19 20l234 308l-108 196
c-6.66699 12 -13.167 20.333 -19.5 25s-15.833 8 -28.5 10l4 19h103c24.667 0 43.334 -13 56.001 -39l125 -218l46 192c0.666992 3.33301 1.16699 6.83301 1.5 10.5s0.5 6.16699 0.5 7.5c0 16.667 -8 26 -24 28l4 19h118c25.333 0 38 -13.667 38 -41c0 -6 -1 -13 -3 -21z
" />
    <glyph glyph-name="Ccedilla" unicode="&#xc7;" horiz-adv-x="540" 
d="M245 321l-55.999 0.000976562c-25.333 0 -38 8.33301 -38 25l3 20l15 65h101c28.667 0 50.167 5 64.5 15s24.833 29.333 31.5 58l4 27c0 32.667 -23.667 49 -71 49h-113c-25.333 0 -38 8.66699 -38 26l3 20l15 65h161c57.333 0 101.333 -13 132 -39s46 -61 46 -105
c0 -5.33301 -0.166992 -10.333 -0.5 -15s-1.83301 -14.334 -4.5 -29.001c-8 -35.333 -19.333 -62.666 -34 -81.999c-18.667 -24 -43.334 -37.667 -74.001 -41c28.667 -10.667 49.834 -27.167 63.501 -49.5s20.5 -48.833 20.5 -79.5c0 -20 -2.66699 -41.667 -8 -65
c-16.667 -69.333 -43.334 -118.5 -80.001 -147.5s-92.667 -43.5 -168 -43.5h-89c-78 0 -117 20.667 -117 62l4 28l14 60h18c2.66699 -14.667 10 -24.167 22 -28.5s31 -6.5 57 -6.5h62c45.333 0 77.833 7.33301 97.5 22s34.167 41 43.5 79c2 6 3.33301 12.167 4 18.5
s1 13.166 1 20.499c0 23.333 -7.33301 41 -22 53s-38 18 -70 18z" />
    <glyph glyph-name="Ccedilla" unicode="&#x417;" horiz-adv-x="540" 
d="M245 321l-55.999 0.000976562c-25.333 0 -38 8.33301 -38 25l3 20l15 65h101c28.667 0 50.167 5 64.5 15s24.833 29.333 31.5 58l4 27c0 32.667 -23.667 49 -71 49h-113c-25.333 0 -38 8.66699 -38 26l3 20l15 65h161c57.333 0 101.333 -13 132 -39s46 -61 46 -105
c0 -5.33301 -0.166992 -10.333 -0.5 -15s-1.83301 -14.334 -4.5 -29.001c-8 -35.333 -19.333 -62.666 -34 -81.999c-18.667 -24 -43.334 -37.667 -74.001 -41c28.667 -10.667 49.834 -27.167 63.501 -49.5s20.5 -48.833 20.5 -79.5c0 -20 -2.66699 -41.667 -8 -65
c-16.667 -69.333 -43.334 -118.5 -80.001 -147.5s-92.667 -43.5 -168 -43.5h-89c-78 0 -117 20.667 -117 62l4 28l14 60h18c2.66699 -14.667 10 -24.167 22 -28.5s31 -6.5 57 -6.5h62c45.333 0 77.833 7.33301 97.5 22s34.167 41 43.5 79c2 6 3.33301 12.167 4 18.5
s1 13.166 1 20.499c0 23.333 -7.33301 41 -22 53s-38 18 -70 18z" />
    <glyph glyph-name="Egrave" unicode="&#xc8;" horiz-adv-x="659" 
d="M460 415l-307 -341.002l-2 -9c-0.666992 -3.33301 -1.16699 -6.83301 -1.5 -10.5s-0.5 -6.16699 -0.5 -7.5c0 -16.667 8.33301 -26 25 -28l-4 -19h-118c-26 0 -39 14 -39 42c0 8.66699 0.666992 15.334 2 20.001l133 564c0.666992 3.33301 1.16699 6.83301 1.5 10.5
s0.5 6.16699 0.5 7.5c0 16.667 -8 26 -24 28l4 19h118c25.333 0 38 -13.667 38 -41c0 -6 -1 -13 -3 -21l-82 -351l306 337l2 11c0.666992 3.33301 1.16699 6.83301 1.5 10.5s0.5 6.16699 0.5 7.5c0 16.667 -8 26 -24 28l4 19h118c25.333 0 38 -13.667 38 -41
c0 -6 -1 -13 -3 -21l-132 -564c-0.666992 -3.33301 -1.16699 -6.83301 -1.5 -10.5s-0.5 -6.16699 -0.5 -7.5c0 -16.667 8.33301 -26 25 -28l-4 -19h-118c-26 0 -39 14 -39 42c0 8.66699 0.666992 15.334 2 20.001z" />
    <glyph glyph-name="Egrave" unicode="&#x418;" horiz-adv-x="659" 
d="M460 415l-307 -341.002l-2 -9c-0.666992 -3.33301 -1.16699 -6.83301 -1.5 -10.5s-0.5 -6.16699 -0.5 -7.5c0 -16.667 8.33301 -26 25 -28l-4 -19h-118c-26 0 -39 14 -39 42c0 8.66699 0.666992 15.334 2 20.001l133 564c0.666992 3.33301 1.16699 6.83301 1.5 10.5
s0.5 6.16699 0.5 7.5c0 16.667 -8 26 -24 28l4 19h118c25.333 0 38 -13.667 38 -41c0 -6 -1 -13 -3 -21l-82 -351l306 337l2 11c0.666992 3.33301 1.16699 6.83301 1.5 10.5s0.5 6.16699 0.5 7.5c0 16.667 -8 26 -24 28l4 19h118c25.333 0 38 -13.667 38 -41
c0 -6 -1 -13 -3 -21l-132 -564c-0.666992 -3.33301 -1.16699 -6.83301 -1.5 -10.5s-0.5 -6.16699 -0.5 -7.5c0 -16.667 8.33301 -26 25 -28l-4 -19h-118c-26 0 -39 14 -39 42c0 8.66699 0.666992 15.334 2 20.001z" />
    <glyph glyph-name="Eacute" unicode="&#xc9;" horiz-adv-x="657" 
d="M459 415l-307 -341.002l-2 -9c-0.666992 -3.33301 -1.16699 -6.83301 -1.5 -10.5s-0.5 -6.16699 -0.5 -7.5c0 -16.667 8.33301 -26 25 -28l-4 -19h-118c-26 0 -39 14 -39 42c0 8.66699 0.666992 15.334 2 20.001l133 564c0.666992 3.33301 1.16699 6.83301 1.5 10.5
s0.5 6.16699 0.5 7.5c0 16.667 -8 26 -24 28l4 19h118c25.333 0 38 -13.667 38 -41c0 -6 -1 -13 -3 -21l-82 -351l306 337l2 11c0.666992 3.33301 1.16699 6.83301 1.5 10.5s0.5 6.16699 0.5 7.5c0 16.667 -8 26 -24 28l4 19h118c25.333 0 38 -13.667 38 -41
c0 -6 -1 -13 -3 -21l-132 -564c-0.666992 -3.33301 -1.16699 -6.83301 -1.5 -10.5s-0.5 -6.16699 -0.5 -7.5c0 -16.667 8.33301 -26 25 -28l-4 -19h-118c-26 0 -39 14 -39 42c0 8.66699 0.666992 15.334 2 20.001zM534 751.998h-245c-18 0 -27 7 -27 21
c0 7.33301 0.666992 13 2 17l10 42h245c18 0 27 -7 27 -21c0 -7.33301 -0.666992 -13 -2 -17z" />
    <glyph glyph-name="Eacute" unicode="&#x419;" horiz-adv-x="657" 
d="M459 415l-307 -341.002l-2 -9c-0.666992 -3.33301 -1.16699 -6.83301 -1.5 -10.5s-0.5 -6.16699 -0.5 -7.5c0 -16.667 8.33301 -26 25 -28l-4 -19h-118c-26 0 -39 14 -39 42c0 8.66699 0.666992 15.334 2 20.001l133 564c0.666992 3.33301 1.16699 6.83301 1.5 10.5
s0.5 6.16699 0.5 7.5c0 16.667 -8 26 -24 28l4 19h118c25.333 0 38 -13.667 38 -41c0 -6 -1 -13 -3 -21l-82 -351l306 337l2 11c0.666992 3.33301 1.16699 6.83301 1.5 10.5s0.5 6.16699 0.5 7.5c0 16.667 -8 26 -24 28l4 19h118c25.333 0 38 -13.667 38 -41
c0 -6 -1 -13 -3 -21l-132 -564c-0.666992 -3.33301 -1.16699 -6.83301 -1.5 -10.5s-0.5 -6.16699 -0.5 -7.5c0 -16.667 8.33301 -26 25 -28l-4 -19h-118c-26 0 -39 14 -39 42c0 8.66699 0.666992 15.334 2 20.001zM534 751.998h-245c-18 0 -27 7 -27 21
c0 7.33301 0.666992 13 2 17l10 42h245c18 0 27 -7 27 -21c0 -7.33301 -0.666992 -13 -2 -17z" />
    <glyph glyph-name="Ecircumflex" unicode="&#xca;" horiz-adv-x="600" 
d="M14 62l133.001 563.999c0.666992 3.33301 1.16699 6.83301 1.5 10.5s0.5 6.16699 0.5 7.5c0 16.667 -8 26 -24 28l4 19h118c25.333 0 38 -13.667 38 -41c0 -6 -1 -13 -3 -21l-48 -201l215 203c8 8 12 15.333 12 22c0 10.667 -6.66699 17 -20 19l3 19h144
c20 0 30 -7 30 -21c0 -8 -4.33301 -16.333 -13 -25l-235 -232l99 -276c4 -12 8.5 -19.5 13.5 -22.5s14.5 -4.5 28.5 -4.5h30l-13 -57c-4.66699 -22 -11.334 -36.333 -20.001 -43s-24 -10 -46 -10h-34c-20.667 0 -34.5 3.16699 -41.5 9.5s-14.833 21.833 -23.5 46.5l-96 269
l-72 -67l-45 -193c-0.666992 -3.33301 -1.16699 -6.83301 -1.5 -10.5s-0.5 -6.16699 -0.5 -7.5c0 -16.667 8.33301 -26 25 -28l-4 -19h-118c-26 0 -39 14 -39 42c0 8.66699 0.666992 15.334 2 20.001z" />
    <glyph glyph-name="Ecircumflex" unicode="&#x41a;" horiz-adv-x="600" 
d="M14 62l133.001 563.999c0.666992 3.33301 1.16699 6.83301 1.5 10.5s0.5 6.16699 0.5 7.5c0 16.667 -8 26 -24 28l4 19h118c25.333 0 38 -13.667 38 -41c0 -6 -1 -13 -3 -21l-48 -201l215 203c8 8 12 15.333 12 22c0 10.667 -6.66699 17 -20 19l3 19h144
c20 0 30 -7 30 -21c0 -8 -4.33301 -16.333 -13 -25l-235 -232l99 -276c4 -12 8.5 -19.5 13.5 -22.5s14.5 -4.5 28.5 -4.5h30l-13 -57c-4.66699 -22 -11.334 -36.333 -20.001 -43s-24 -10 -46 -10h-34c-20.667 0 -34.5 3.16699 -41.5 9.5s-14.833 21.833 -23.5 46.5l-96 269
l-72 -67l-45 -193c-0.666992 -3.33301 -1.16699 -6.83301 -1.5 -10.5s-0.5 -6.16699 -0.5 -7.5c0 -16.667 8.33301 -26 25 -28l-4 -19h-118c-26 0 -39 14 -39 42c0 8.66699 0.666992 15.334 2 20.001z" />
    <glyph glyph-name="Edieresis" unicode="&#xcb;" horiz-adv-x="537" 
d="M224 691h156.001c17.333 0 30 -5 38 -15c6 -8 10 -20.667 12 -38l51 -579c1.33301 -16 3.83301 -26.667 7.5 -32s11.167 -8 22.5 -8l-4 -19h-113c-16.667 0 -28.834 3.5 -36.501 10.5s-11.5 20.167 -11.5 39.5l-38 473l-224 -463c-4.66699 -10.667 -7 -18 -7 -22
c0 -10 8.33301 -16.333 25 -19l-4 -19h-108c-24 0 -36 7.66699 -36 23c0 6.66699 2.66699 15.334 8 26.001l275 568c6 12 9 22 9 30c0 13.333 -9.33301 21.666 -28 24.999z" />
    <glyph glyph-name="Edieresis" unicode="&#x41b;" horiz-adv-x="537" 
d="M224 691h156.001c17.333 0 30 -5 38 -15c6 -8 10 -20.667 12 -38l51 -579c1.33301 -16 3.83301 -26.667 7.5 -32s11.167 -8 22.5 -8l-4 -19h-113c-16.667 0 -28.834 3.5 -36.501 10.5s-11.5 20.167 -11.5 39.5l-38 473l-224 -463c-4.66699 -10.667 -7 -18 -7 -22
c0 -10 8.33301 -16.333 25 -19l-4 -19h-108c-24 0 -36 7.66699 -36 23c0 6.66699 2.66699 15.334 8 26.001l275 568c6 12 9 22 9 30c0 13.333 -9.33301 21.666 -28 24.999z" />
    <glyph glyph-name="Igrave" unicode="&#xcc;" horiz-adv-x="770" 
d="M510 691l146 -0.000976562c17.333 0 30.166 -5.16699 38.499 -15.5s12.5 -24.833 12.5 -43.5v-581c0 -11.333 2 -19 6 -23s12 -7 24 -9l-5 -19h-119c-24 0 -36 14.333 -36 43v408l-195 -451h-72c-20.667 0 -34.167 3.16699 -40.5 9.5s-10.833 21.833 -13.5 46.5l-38 376
l-131 -366c-4.66699 -14 -7 -23.333 -7 -28c0 -10.667 7.66699 -17 23 -19l-5 -19h-112c-18 0 -27 6.66699 -27 20c0 6 1.33301 12.667 4 20l211 577c3.33301 11.333 5 20 5 26c0 14.667 -9 24.334 -27 29.001l4 19h113c18.667 0 31.834 -4 39.501 -12
s12.167 -20.333 13.5 -37l43 -414l163 389c4 10 6 18.667 6 26c0 15.333 -9.33301 25 -28 29z" />
    <glyph glyph-name="Igrave" unicode="&#x41c;" horiz-adv-x="770" 
d="M510 691l146 -0.000976562c17.333 0 30.166 -5.16699 38.499 -15.5s12.5 -24.833 12.5 -43.5v-581c0 -11.333 2 -19 6 -23s12 -7 24 -9l-5 -19h-119c-24 0 -36 14.333 -36 43v408l-195 -451h-72c-20.667 0 -34.167 3.16699 -40.5 9.5s-10.833 21.833 -13.5 46.5l-38 376
l-131 -366c-4.66699 -14 -7 -23.333 -7 -28c0 -10.667 7.66699 -17 23 -19l-5 -19h-112c-18 0 -27 6.66699 -27 20c0 6 1.33301 12.667 4 20l211 577c3.33301 11.333 5 20 5 26c0 14.667 -9 24.334 -27 29.001l4 19h113c18.667 0 31.834 -4 39.501 -12
s12.167 -20.333 13.5 -37l43 -414l163 389c4 10 6 18.667 6 26c0 15.333 -9.33301 25 -28 29z" />
    <glyph glyph-name="Iacute" unicode="&#xcd;" horiz-adv-x="647" 
d="M426 322l-216 -0.00195312l-60 -257c-0.666992 -3.33301 -1.16699 -6.83301 -1.5 -10.5s-0.5 -6.16699 -0.5 -7.5c0 -16.667 8.33301 -26 25 -28l-4 -19h-118c-26 0 -39 14 -39 42c0 8.66699 0.666992 15.334 2 20.001l133 564
c0.666992 3.33301 1.16699 6.83301 1.5 10.5s0.5 6.16699 0.5 7.5c0 16.667 -8 26 -24 28l4 19h118c25.333 0 38 -13.667 38 -41c0 -6 -1 -13 -3 -21l-46 -197h216l46 194c0.666992 3.33301 1.16699 6.83301 1.5 10.5s0.5 6.16699 0.5 7.5c0 16.667 -8 26 -24 28l4 19h118
c25.333 0 38 -13.667 38 -41c0 -6 -1 -13 -3 -21l-132 -564c-0.666992 -3.33301 -1.16699 -6.83301 -1.5 -10.5s-0.5 -6.16699 -0.5 -7.5c0 -16.667 8.33301 -26 25 -28l-4 -19h-118c-26 0 -39 14 -39 42c0 8.66699 0.666992 15.334 2 20.001z" />
    <glyph glyph-name="Iacute" unicode="&#x41d;" horiz-adv-x="647" 
d="M426 322l-216 -0.00195312l-60 -257c-0.666992 -3.33301 -1.16699 -6.83301 -1.5 -10.5s-0.5 -6.16699 -0.5 -7.5c0 -16.667 8.33301 -26 25 -28l-4 -19h-118c-26 0 -39 14 -39 42c0 8.66699 0.666992 15.334 2 20.001l133 564
c0.666992 3.33301 1.16699 6.83301 1.5 10.5s0.5 6.16699 0.5 7.5c0 16.667 -8 26 -24 28l4 19h118c25.333 0 38 -13.667 38 -41c0 -6 -1 -13 -3 -21l-46 -197h216l46 194c0.666992 3.33301 1.16699 6.83301 1.5 10.5s0.5 6.16699 0.5 7.5c0 16.667 -8 26 -24 28l4 19h118
c25.333 0 38 -13.667 38 -41c0 -6 -1 -13 -3 -21l-132 -564c-0.666992 -3.33301 -1.16699 -6.83301 -1.5 -10.5s-0.5 -6.16699 -0.5 -7.5c0 -16.667 8.33301 -26 25 -28l-4 -19h-118c-26 0 -39 14 -39 42c0 8.66699 0.666992 15.334 2 20.001z" />
    <glyph glyph-name="Icircumflex" unicode="&#xce;" horiz-adv-x="611" 
d="M42 349c29.333 127.333 64.667 215.333 106 264c49.333 58 124 87 224 87c146.667 0 220 -68.333 220 -205c0 -20 -1.5 -41.667 -4.5 -65s-7.83301 -49.333 -14.5 -78c-31.333 -134.667 -68.333 -226.667 -111 -276c-48 -55.333 -121.667 -83 -221 -83
c-76.667 0 -132.667 16 -168 48s-53 81.333 -53 148c0 42.667 7.33301 96 22 160zM185.001 352c-16 -65.333 -23.999 -115.998 -23.999 -151.998c0 -32.667 7.66699 -56.334 23 -71.001s40.333 -22 75 -22c46 0 80.5 17.333 103.5 52s46.5 102 70.5 202
c11.333 48.667 17 88 17 118c0 71.333 -32.667 107 -98 107c-44.667 0 -78.834 -16.833 -102.501 -50.5s-45.167 -94.834 -64.5 -183.501z" />
    <glyph glyph-name="Icircumflex" unicode="&#x41e;" horiz-adv-x="611" 
d="M42 349c29.333 127.333 64.667 215.333 106 264c49.333 58 124 87 224 87c146.667 0 220 -68.333 220 -205c0 -20 -1.5 -41.667 -4.5 -65s-7.83301 -49.333 -14.5 -78c-31.333 -134.667 -68.333 -226.667 -111 -276c-48 -55.333 -121.667 -83 -221 -83
c-76.667 0 -132.667 16 -168 48s-53 81.333 -53 148c0 42.667 7.33301 96 22 160zM185.001 352c-16 -65.333 -23.999 -115.998 -23.999 -151.998c0 -32.667 7.66699 -56.334 23 -71.001s40.333 -22 75 -22c46 0 80.5 17.333 103.5 52s46.5 102 70.5 202
c11.333 48.667 17 88 17 118c0 71.333 -32.667 107 -98 107c-44.667 0 -78.834 -16.833 -102.501 -50.5s-45.167 -94.834 -64.5 -183.501z" />
    <glyph glyph-name="Idieresis" unicode="&#xcf;" horiz-adv-x="649" 
d="M487 581l-215 -0.00195312l-122 -516c-0.666992 -3.33301 -1.16699 -6.83301 -1.5 -10.5s-0.5 -6.16699 -0.5 -7.5c0 -16.667 8.33301 -26 25 -28l-4 -19h-118c-26 0 -39 14 -39 42c0 8.66699 0.666992 15.334 2 20.001l133 564
c0.666992 3.33301 1.16699 6.83301 1.5 10.5s0.5 6.16699 0.5 7.5c0 16.667 -8 26 -24 28l4 19h469c25.333 0 38 -13.667 38 -41c0 -6 -1 -13 -3 -21l-132 -564c-0.666992 -3.33301 -1.16699 -6.83301 -1.5 -10.5s-0.5 -6.16699 -0.5 -7.5c0 -16.667 8.33301 -26 25 -28
l-4 -19h-118c-26 0 -39 14 -39 42c0 8.66699 0.666992 15.334 2 20.001z" />
    <glyph glyph-name="Idieresis" unicode="&#x41f;" horiz-adv-x="649" 
d="M487 581l-215 -0.00195312l-122 -516c-0.666992 -3.33301 -1.16699 -6.83301 -1.5 -10.5s-0.5 -6.16699 -0.5 -7.5c0 -16.667 8.33301 -26 25 -28l-4 -19h-118c-26 0 -39 14 -39 42c0 8.66699 0.666992 15.334 2 20.001l133 564
c0.666992 3.33301 1.16699 6.83301 1.5 10.5s0.5 6.16699 0.5 7.5c0 16.667 -8 26 -24 28l4 19h469c25.333 0 38 -13.667 38 -41c0 -6 -1 -13 -3 -21l-132 -564c-0.666992 -3.33301 -1.16699 -6.83301 -1.5 -10.5s-0.5 -6.16699 -0.5 -7.5c0 -16.667 8.33301 -26 25 -28
l-4 -19h-118c-26 0 -39 14 -39 42c0 8.66699 0.666992 15.334 2 20.001z" />
    <glyph glyph-name="Eth" unicode="&#xd0;" horiz-adv-x="581" 
d="M221 364l85.999 -0.000976562c44 0 74.833 6.83301 92.5 20.5s31.5 41.167 41.5 82.5c2 9.33301 3.66699 17.833 5 25.5s2 14.834 2 21.501c0 22.667 -7.16699 39.5 -21.5 50.5s-37.166 16.5 -68.499 16.5h-87zM193.999 253.999l-44.001 -189.001
c-0.666992 -3.33301 -1.16699 -6.83301 -1.5 -10.5s-0.5 -6.16699 -0.5 -7.5c0 -16.667 8.33301 -26 25 -28l-4 -19h-118c-26 0 -39 14 -39 42c0 8.66699 0.666992 15.334 2 20.001l133 564c0.666992 3.33301 1.16699 6.83301 1.5 10.5s0.5 6.16699 0.5 7.5
c0 16.667 -8 26 -24 28l4 19h280c56 0 99.833 -14.833 131.5 -44.5s47.5 -70.5 47.5 -122.5c0 -21.333 -3 -45 -9 -71c-19.333 -82.667 -49.666 -137.667 -90.999 -165c-34.667 -22.667 -94 -34 -178 -34h-116z" />
    <glyph glyph-name="Eth" unicode="&#x420;" horiz-adv-x="581" 
d="M221 364l85.999 -0.000976562c44 0 74.833 6.83301 92.5 20.5s31.5 41.167 41.5 82.5c2 9.33301 3.66699 17.833 5 25.5s2 14.834 2 21.501c0 22.667 -7.16699 39.5 -21.5 50.5s-37.166 16.5 -68.499 16.5h-87zM193.999 253.999l-44.001 -189.001
c-0.666992 -3.33301 -1.16699 -6.83301 -1.5 -10.5s-0.5 -6.16699 -0.5 -7.5c0 -16.667 8.33301 -26 25 -28l-4 -19h-118c-26 0 -39 14 -39 42c0 8.66699 0.666992 15.334 2 20.001l133 564c0.666992 3.33301 1.16699 6.83301 1.5 10.5s0.5 6.16699 0.5 7.5
c0 16.667 -8 26 -24 28l4 19h280c56 0 99.833 -14.833 131.5 -44.5s47.5 -70.5 47.5 -122.5c0 -21.333 -3 -45 -9 -71c-19.333 -82.667 -49.666 -137.667 -90.999 -165c-34.667 -22.667 -94 -34 -178 -34h-116z" />
    <glyph glyph-name="Ntilde" unicode="&#xd1;" horiz-adv-x="539" 
d="M327 -5l-145 0.00195312c-60 0 -103.333 17 -130 51c-23.333 29.333 -35 72.666 -35 129.999c0 25.333 2.33301 53.5 7 84.5s11.334 64.5 20.001 100.5c29.333 125.333 67 212.666 113 261.999c42 45.333 100.667 68 176 68h196l-13 -57
c-4.66699 -20 -11.5 -33.833 -20.5 -41.5s-24.167 -11.5 -45.5 -11.5h-86c-56 0 -96 -16.667 -120 -50c-19.333 -26.667 -38.666 -81.667 -57.999 -165s-29 -141.333 -29 -174c0 -31.333 7.16699 -52.833 21.5 -64.5s39.166 -17.5 74.499 -17.5h106c24 0 39 1 45 3
c11.333 4 22.666 13.333 33.999 28h19l-16 -69c-6.66699 -28 -19.5 -47.833 -38.5 -59.5s-44.167 -17.5 -75.5 -17.5z" />
    <glyph glyph-name="Ntilde" unicode="&#x421;" horiz-adv-x="539" 
d="M327 -5l-145 0.00195312c-60 0 -103.333 17 -130 51c-23.333 29.333 -35 72.666 -35 129.999c0 25.333 2.33301 53.5 7 84.5s11.334 64.5 20.001 100.5c29.333 125.333 67 212.666 113 261.999c42 45.333 100.667 68 176 68h196l-13 -57
c-4.66699 -20 -11.5 -33.833 -20.5 -41.5s-24.167 -11.5 -45.5 -11.5h-86c-56 0 -96 -16.667 -120 -50c-19.333 -26.667 -38.666 -81.667 -57.999 -165s-29 -141.333 -29 -174c0 -31.333 7.16699 -52.833 21.5 -64.5s39.166 -17.5 74.499 -17.5h106c24 0 39 1 45 3
c11.333 4 22.666 13.333 33.999 28h19l-16 -69c-6.66699 -28 -19.5 -47.833 -38.5 -59.5s-44.167 -17.5 -75.5 -17.5z" />
    <glyph glyph-name="Ograve" unicode="&#xd2;" horiz-adv-x="489" 
d="M121 690l345 -0.000976562c21.333 0 36 1.66699 44 5s16.333 12 25 26h19l-22 -93c-7.33301 -32 -28 -48 -62 -48h-111l-121 -515c-0.666992 -3.33301 -1.16699 -6.83301 -1.5 -10.5s-0.5 -6.16699 -0.5 -7.5c0 -16.667 8.33301 -26 25 -28l-4 -19h-118
c-26 0 -39 14 -39 42c0 8.66699 0.666992 15.334 2 20.001l122 518h-99c-21.333 0 -36 -1.66699 -44 -5s-16.333 -12 -25 -26h-19l22 93c7.33301 32 28 48 62 48z" />
    <glyph glyph-name="Ograve" unicode="&#x422;" horiz-adv-x="489" 
d="M121 690l345 -0.000976562c21.333 0 36 1.66699 44 5s16.333 12 25 26h19l-22 -93c-7.33301 -32 -28 -48 -62 -48h-111l-121 -515c-0.666992 -3.33301 -1.16699 -6.83301 -1.5 -10.5s-0.5 -6.16699 -0.5 -7.5c0 -16.667 8.33301 -26 25 -28l-4 -19h-118
c-26 0 -39 14 -39 42c0 8.66699 0.666992 15.334 2 20.001l122 518h-99c-21.333 0 -36 -1.66699 -44 -5s-16.333 -12 -25 -26h-19l22 93c7.33301 32 28 48 62 48z" />
    <glyph glyph-name="Oacute" unicode="&#xd3;" horiz-adv-x="504" 
d="M74 110l51.001 -0.000976562c16.667 0 28 2.33301 34 7s13.667 16.667 23 36l11 22l-143 468c-2.66699 9.33301 -6.33398 16.5 -11.001 21.5s-12 7.5 -22 7.5l5 19h117c13.333 0 23.333 -3.33301 30 -10s12 -16.334 16 -29.001l88 -320l150 299
c4.66699 10.667 7 18.334 7 23.001c0 9.33301 -6.66699 15.333 -20 18l4 19h105c23.333 0 35 -6.66699 35 -20c0 -5.33301 -3 -14.666 -9 -27.999l-275 -553c-18 -36 -35.833 -60 -53.5 -72s-41.5 -18 -71.5 -18h-45c-28 0 -42 11 -42 33c0 7.33301 0.666992 13.333 2 18z
" />
    <glyph glyph-name="Oacute" unicode="&#x423;" horiz-adv-x="504" 
d="M74 110l51.001 -0.000976562c16.667 0 28 2.33301 34 7s13.667 16.667 23 36l11 22l-143 468c-2.66699 9.33301 -6.33398 16.5 -11.001 21.5s-12 7.5 -22 7.5l5 19h117c13.333 0 23.333 -3.33301 30 -10s12 -16.334 16 -29.001l88 -320l150 299
c4.66699 10.667 7 18.334 7 23.001c0 9.33301 -6.66699 15.333 -20 18l4 19h105c23.333 0 35 -6.66699 35 -20c0 -5.33301 -3 -14.666 -9 -27.999l-275 -553c-18 -36 -35.833 -60 -53.5 -72s-41.5 -18 -71.5 -18h-45c-28 0 -42 11 -42 33c0 7.33301 0.666992 13.333 2 18z
" />
    <glyph glyph-name="Ocircumflex" unicode="&#xd4;" horiz-adv-x="783" 
d="M517 602l36.001 -0.000976562c68 0 119.667 -13 155 -39c38.667 -28.667 58 -72.667 58 -132c0 -26 -3.33301 -53.333 -10 -82c-22.667 -99.333 -55.667 -165.333 -99 -198c-36.667 -28 -98.667 -42 -186 -42h-70l-10 -44
c-0.666992 -3.33301 -1.16699 -6.83301 -1.5 -10.5s-0.5 -6.16699 -0.5 -7.5c0 -16.667 8.33301 -26 25 -28l-4 -19h-118c-26 0 -39 14 -39 42c0 8.66699 0.666992 15.334 2 20.001l11 47h-45c-66 0 -116 12.667 -150 38c-36.667 27.333 -55 70 -55 128
c0 24.667 3.66699 53.667 11 87c21.333 94 55.333 158.333 102 193c41.333 31.333 105.666 47 192.999 47h60l6 24c0.666992 3.33301 1.16699 6.83301 1.5 10.5s0.5 6.16699 0.5 7.5c0 16.667 -8 26 -24 28l4 19h118c25.333 0 38 -13.667 38 -41c0 -6 -1 -13 -3 -21z
M491.001 491.999l-64 -273h46c44 0 76.167 9.5 96.5 28.5s36.833 54.5 49.5 106.5c6 25.333 9 46 9 62c0 28 -8.33301 47.667 -25 59s-42.667 17 -78 17h-34zM291.001 218.999l64 273h-46c-44 0 -76.167 -9.5 -96.5 -28.5s-36.833 -54.5 -49.5 -106.5
c-6.66699 -30 -10 -52.333 -10 -67c0 -26.667 7.66699 -45.167 23 -55.5s40.333 -15.5 75 -15.5h40z" />
    <glyph glyph-name="Ocircumflex" unicode="&#x424;" horiz-adv-x="783" 
d="M517 602l36.001 -0.000976562c68 0 119.667 -13 155 -39c38.667 -28.667 58 -72.667 58 -132c0 -26 -3.33301 -53.333 -10 -82c-22.667 -99.333 -55.667 -165.333 -99 -198c-36.667 -28 -98.667 -42 -186 -42h-70l-10 -44
c-0.666992 -3.33301 -1.16699 -6.83301 -1.5 -10.5s-0.5 -6.16699 -0.5 -7.5c0 -16.667 8.33301 -26 25 -28l-4 -19h-118c-26 0 -39 14 -39 42c0 8.66699 0.666992 15.334 2 20.001l11 47h-45c-66 0 -116 12.667 -150 38c-36.667 27.333 -55 70 -55 128
c0 24.667 3.66699 53.667 11 87c21.333 94 55.333 158.333 102 193c41.333 31.333 105.666 47 192.999 47h60l6 24c0.666992 3.33301 1.16699 6.83301 1.5 10.5s0.5 6.16699 0.5 7.5c0 16.667 -8 26 -24 28l4 19h118c25.333 0 38 -13.667 38 -41c0 -6 -1 -13 -3 -21z
M491.001 491.999l-64 -273h46c44 0 76.167 9.5 96.5 28.5s36.833 54.5 49.5 106.5c6 25.333 9 46 9 62c0 28 -8.33301 47.667 -25 59s-42.667 17 -78 17h-34zM291.001 218.999l64 273h-46c-44 0 -76.167 -9.5 -96.5 -28.5s-36.833 -54.5 -49.5 -106.5
c-6.66699 -30 -10 -52.333 -10 -67c0 -26.667 7.66699 -45.167 23 -55.5s40.333 -15.5 75 -15.5h40z" />
    <glyph glyph-name="Otilde" unicode="&#xd5;" horiz-adv-x="543" 
d="M425 691l131 -0.00195312c22 0 33 -7.33301 33 -22c0 -7.33301 -3.66699 -15.666 -11 -24.999l-216 -271l117 -333c4.66699 -8.66699 8.5 -14.334 11.5 -17.001s10.167 -4 21.5 -4l-4 -19h-120c-22 0 -37 12.333 -45 37l-72 221l-163 -201
c-7.33301 -8.66699 -11 -15.667 -11 -21c0 -9.33301 8.66699 -15 26 -17l-5 -19h-127c-21.333 0 -32 8.33301 -32 25c0 8.66699 4.66699 19.334 14 32.001l252 312l-96 256c-6.66699 17.333 -12.5 29 -17.5 35s-13.5 10 -25.5 12l4 19h113c16.667 0 28.667 -2.83301 36 -8.5
s13.333 -15.167 18 -28.5l60 -176l115 149c7.33301 10.667 11 19.334 11 26.001c0 10.667 -7.33301 17 -22 19z" />
    <glyph glyph-name="Otilde" unicode="&#x425;" horiz-adv-x="543" 
d="M425 691l131 -0.00195312c22 0 33 -7.33301 33 -22c0 -7.33301 -3.66699 -15.666 -11 -24.999l-216 -271l117 -333c4.66699 -8.66699 8.5 -14.334 11.5 -17.001s10.167 -4 21.5 -4l-4 -19h-120c-22 0 -37 12.333 -45 37l-72 221l-163 -201
c-7.33301 -8.66699 -11 -15.667 -11 -21c0 -9.33301 8.66699 -15 26 -17l-5 -19h-127c-21.333 0 -32 8.33301 -32 25c0 8.66699 4.66699 19.334 14 32.001l252 312l-96 256c-6.66699 17.333 -12.5 29 -17.5 35s-13.5 10 -25.5 12l4 19h113c16.667 0 28.667 -2.83301 36 -8.5
s13.333 -15.167 18 -28.5l60 -176l115 149c7.33301 10.667 11 19.334 11 26.001c0 10.667 -7.33301 17 -22 19z" />
    <glyph glyph-name="Odieresis" unicode="&#xd6;" horiz-adv-x="649" 
d="M409 0l-354 -0.000976562c-26 0 -39 14 -39 42c0 8.66699 0.666992 15.334 2 20.001l133 564c0.666992 3.33301 1.16699 6.83301 1.5 10.5s0.5 6.16699 0.5 7.5c0 16.667 -8 26 -24 28l4 19h118c25.333 0 38 -13.667 38 -41c0 -6 -1 -13 -3 -21l-121 -519h212l122 516
c0.666992 3.33301 1.16699 6.83301 1.5 10.5s0.5 6.16699 0.5 7.5c0 16.667 -8 26 -24 28l4 19h118c25.333 0 38 -13.667 38 -41c0 -6 -1 -13 -3 -21l-121 -519h60l-47 -201c-4 -16.667 -15 -25 -33 -25h-31c-17.333 0 -28.333 9.33301 -33 28z" />
    <glyph glyph-name="Odieresis" unicode="&#x426;" horiz-adv-x="649" 
d="M409 0l-354 -0.000976562c-26 0 -39 14 -39 42c0 8.66699 0.666992 15.334 2 20.001l133 564c0.666992 3.33301 1.16699 6.83301 1.5 10.5s0.5 6.16699 0.5 7.5c0 16.667 -8 26 -24 28l4 19h118c25.333 0 38 -13.667 38 -41c0 -6 -1 -13 -3 -21l-121 -519h212l122 516
c0.666992 3.33301 1.16699 6.83301 1.5 10.5s0.5 6.16699 0.5 7.5c0 16.667 -8 26 -24 28l4 19h118c25.333 0 38 -13.667 38 -41c0 -6 -1 -13 -3 -21l-121 -519h60l-47 -201c-4 -16.667 -15 -25 -33 -25h-31c-17.333 0 -28.333 9.33301 -33 28z" />
    <glyph glyph-name="multiply" unicode="&#xd7;" horiz-adv-x="628" 
d="M345 62l51.001 219.999h-163c-48.667 0 -85.834 11.5 -111.501 34.5s-38.5 55.5 -38.5 97.5c0 17.333 2.66699 37.333 8 60l37 152c0.666992 3.33301 1.16699 6.83301 1.5 10.5s0.5 6.16699 0.5 7.5c0 16.667 -8 26 -24 28l4 19h118c25.333 0 38 -13.667 38 -41
c0 -6 -1 -13 -3 -21l-37 -155c-3.33301 -14.667 -5 -25.667 -5 -33c0 -16.667 5.33301 -29 16 -37s28.667 -12 54 -12h131l56 234c0.666992 3.33301 1.16699 6.83301 1.5 10.5s0.5 6.16699 0.5 7.5c0 16.667 -8 26 -24 28l4 19h118c25.333 0 38 -13.667 38 -41
c0 -6 -1 -13 -3 -21l-132 -564c-0.666992 -3.33301 -1.16699 -6.83301 -1.5 -10.5s-0.5 -6.16699 -0.5 -7.5c0 -16.667 8.33301 -26 25 -28l-4 -19h-118c-26 0 -39 14 -39 42c0 8.66699 0.666992 15.334 2 20.001z" />
    <glyph glyph-name="multiply" unicode="&#x427;" horiz-adv-x="628" 
d="M345 62l51.001 219.999h-163c-48.667 0 -85.834 11.5 -111.501 34.5s-38.5 55.5 -38.5 97.5c0 17.333 2.66699 37.333 8 60l37 152c0.666992 3.33301 1.16699 6.83301 1.5 10.5s0.5 6.16699 0.5 7.5c0 16.667 -8 26 -24 28l4 19h118c25.333 0 38 -13.667 38 -41
c0 -6 -1 -13 -3 -21l-37 -155c-3.33301 -14.667 -5 -25.667 -5 -33c0 -16.667 5.33301 -29 16 -37s28.667 -12 54 -12h131l56 234c0.666992 3.33301 1.16699 6.83301 1.5 10.5s0.5 6.16699 0.5 7.5c0 16.667 -8 26 -24 28l4 19h118c25.333 0 38 -13.667 38 -41
c0 -6 -1 -13 -3 -21l-132 -564c-0.666992 -3.33301 -1.16699 -6.83301 -1.5 -10.5s-0.5 -6.16699 -0.5 -7.5c0 -16.667 8.33301 -26 25 -28l-4 -19h-118c-26 0 -39 14 -39 42c0 8.66699 0.666992 15.334 2 20.001z" />
    <glyph glyph-name="Oslash" unicode="&#xd8;" horiz-adv-x="958" 
d="M168 110l189 -0.000976562l122 516c0.666992 3.33301 1.16699 6.83301 1.5 10.5s0.5 6.16699 0.5 7.5c0 16.667 -8 26 -24 28l4 19h118c25.333 0 38 -13.667 38 -41c0 -6 -1 -13 -3 -21l-121 -519h189l122 516c0.666992 3.33301 1.16699 6.83301 1.5 10.5
s0.5 6.16699 0.5 7.5c0 16.667 -8 26 -24 28l4 19h118c25.333 0 38 -13.667 38 -41c0 -6 -1 -13 -3 -21l-132 -564c-0.666992 -3.33301 -1.16699 -6.83301 -1.5 -10.5s-0.5 -6.16699 -0.5 -7.5c0 -16.667 8.33301 -26 25 -28l-4 -19h-768c-26 0 -39 14 -39 42
c0 8.66699 0.666992 15.334 2 20.001l133 564c0.666992 3.33301 1.16699 6.83301 1.5 10.5s0.5 6.16699 0.5 7.5c0 16.667 -8 26 -24 28l4 19h118c25.333 0 38 -13.667 38 -41c0 -6 -1 -13 -3 -21z" />
    <glyph glyph-name="Oslash" unicode="&#x428;" horiz-adv-x="958" 
d="M168 110l189 -0.000976562l122 516c0.666992 3.33301 1.16699 6.83301 1.5 10.5s0.5 6.16699 0.5 7.5c0 16.667 -8 26 -24 28l4 19h118c25.333 0 38 -13.667 38 -41c0 -6 -1 -13 -3 -21l-121 -519h189l122 516c0.666992 3.33301 1.16699 6.83301 1.5 10.5
s0.5 6.16699 0.5 7.5c0 16.667 -8 26 -24 28l4 19h118c25.333 0 38 -13.667 38 -41c0 -6 -1 -13 -3 -21l-132 -564c-0.666992 -3.33301 -1.16699 -6.83301 -1.5 -10.5s-0.5 -6.16699 -0.5 -7.5c0 -16.667 8.33301 -26 25 -28l-4 -19h-768c-26 0 -39 14 -39 42
c0 8.66699 0.666992 15.334 2 20.001l133 564c0.666992 3.33301 1.16699 6.83301 1.5 10.5s0.5 6.16699 0.5 7.5c0 16.667 -8 26 -24 28l4 19h118c25.333 0 38 -13.667 38 -41c0 -6 -1 -13 -3 -21z" />
    <glyph glyph-name="Ugrave" unicode="&#xd9;" horiz-adv-x="956" 
d="M168 110l189 -0.000976562l122 516c0.666992 3.33301 1.16699 6.83301 1.5 10.5s0.5 6.16699 0.5 7.5c0 16.667 -8 26 -24 28l4 19h118c25.333 0 38 -13.667 38 -41c0 -6 -1 -13 -3 -21l-121 -519h189l122 516c0.666992 3.33301 1.16699 6.83301 1.5 10.5
s0.5 6.16699 0.5 7.5c0 16.667 -8 26 -24 28l4 19h118c25.333 0 38 -13.667 38 -41c0 -6 -1 -13 -3 -21l-122 -519h60l-47 -201c-4 -16.667 -15 -25 -33 -25h-31c-17.333 0 -28.333 9.33301 -33 28l-20 88h-655c-26 0 -39 14 -39 42c0 8.66699 0.666992 15.334 2 20.001
l133 564c0.666992 3.33301 1.16699 6.83301 1.5 10.5s0.5 6.16699 0.5 7.5c0 16.667 -8 26 -24 28l4 19h118c25.333 0 38 -13.667 38 -41c0 -6 -1 -13 -3 -21z" />
    <glyph glyph-name="Ugrave" unicode="&#x429;" horiz-adv-x="956" 
d="M168 110l189 -0.000976562l122 516c0.666992 3.33301 1.16699 6.83301 1.5 10.5s0.5 6.16699 0.5 7.5c0 16.667 -8 26 -24 28l4 19h118c25.333 0 38 -13.667 38 -41c0 -6 -1 -13 -3 -21l-121 -519h189l122 516c0.666992 3.33301 1.16699 6.83301 1.5 10.5
s0.5 6.16699 0.5 7.5c0 16.667 -8 26 -24 28l4 19h118c25.333 0 38 -13.667 38 -41c0 -6 -1 -13 -3 -21l-122 -519h60l-47 -201c-4 -16.667 -15 -25 -33 -25h-31c-17.333 0 -28.333 9.33301 -33 28l-20 88h-655c-26 0 -39 14 -39 42c0 8.66699 0.666992 15.334 2 20.001
l133 564c0.666992 3.33301 1.16699 6.83301 1.5 10.5s0.5 6.16699 0.5 7.5c0 16.667 -8 26 -24 28l4 19h118c25.333 0 38 -13.667 38 -41c0 -6 -1 -13 -3 -21z" />
    <glyph glyph-name="Uacute" unicode="&#xda;" horiz-adv-x="577" 
d="M20 691l229 -0.000976562c25.333 0 38 -13.667 38 -41c0 -6 -1 -13 -3 -21l-46 -196h107c60.667 0 108.167 -14.167 142.5 -42.5s51.5 -68.833 51.5 -121.5c0 -18 -2.66699 -39.333 -8 -64c-18 -77.333 -46.167 -130.833 -84.5 -160.5s-97.5 -44.5 -177.5 -44.5h-216
c-26 0 -39 14 -39 42c0 8.66699 0.666992 15.334 2 20.001l123 519h-99c-25.333 0 -38 8.33301 -38 25c0 5.33301 1 12 3 20zM212 322.999l-49 -212.999h100c36 0 62.667 6.66699 80 20c20 15.333 35 43.333 45 84c4 17.333 6 32.666 6 45.999c0 22 -7 38 -21 48
s-37.333 15 -70 15h-91z" />
    <glyph glyph-name="Uacute" unicode="&#x42a;" horiz-adv-x="577" 
d="M20 691l229 -0.000976562c25.333 0 38 -13.667 38 -41c0 -6 -1 -13 -3 -21l-46 -196h107c60.667 0 108.167 -14.167 142.5 -42.5s51.5 -68.833 51.5 -121.5c0 -18 -2.66699 -39.333 -8 -64c-18 -77.333 -46.167 -130.833 -84.5 -160.5s-97.5 -44.5 -177.5 -44.5h-216
c-26 0 -39 14 -39 42c0 8.66699 0.666992 15.334 2 20.001l123 519h-99c-25.333 0 -38 8.33301 -38 25c0 5.33301 1 12 3 20zM212 322.999l-49 -212.999h100c36 0 62.667 6.66699 80 20c20 15.333 35 43.333 45 84c4 17.333 6 32.666 6 45.999c0 22 -7 38 -21 48
s-37.333 15 -70 15h-91z" />
    <glyph glyph-name="Ucircumflex" unicode="&#xdb;" horiz-adv-x="887" 
d="M238 433l107 -0.000976562c60.667 0 108.167 -14.167 142.5 -42.5s51.5 -68.833 51.5 -121.5c0 -18 -2.66699 -39.333 -8 -64c-18 -77.333 -46.167 -130.833 -84.5 -160.5s-97.5 -44.5 -177.5 -44.5h-216c-26 0 -39 14 -39 42c0 8.66699 0.666992 15.334 2 20.001
l133 564c0.666992 3.33301 1.16699 6.83301 1.5 10.5s0.5 6.16699 0.5 7.5c0 16.667 -8 26 -24 28l4 19h118c25.333 0 38 -13.667 38 -41c0 -6 -1 -13 -3 -21zM212 322.999l-49 -212.999h100c36 0 62.667 6.66699 80 20c20 15.333 35 43.333 45 84
c4 17.333 6 32.666 6 45.999c0 22 -7 38 -21 48s-37.333 15 -70 15h-91zM609 62l133 563.999c0.666992 3.33301 1.16699 6.83301 1.5 10.5s0.5 6.16699 0.5 7.5c0 16.667 -8 26 -24 28l4 19h118c25.333 0 38 -13.667 38 -41c0 -6 -1 -13 -3 -21l-132 -564
c-0.666992 -3.33301 -1.16699 -6.83301 -1.5 -10.5s-0.5 -6.16699 -0.5 -7.5c0 -16.667 8.33301 -26 25 -28l-4 -19h-118c-26 0 -39 14 -39 42c0 8.66699 0.666992 15.334 2 20.001z" />
    <glyph glyph-name="Ucircumflex" unicode="&#x42b;" horiz-adv-x="887" 
d="M238 433l107 -0.000976562c60.667 0 108.167 -14.167 142.5 -42.5s51.5 -68.833 51.5 -121.5c0 -18 -2.66699 -39.333 -8 -64c-18 -77.333 -46.167 -130.833 -84.5 -160.5s-97.5 -44.5 -177.5 -44.5h-216c-26 0 -39 14 -39 42c0 8.66699 0.666992 15.334 2 20.001
l133 564c0.666992 3.33301 1.16699 6.83301 1.5 10.5s0.5 6.16699 0.5 7.5c0 16.667 -8 26 -24 28l4 19h118c25.333 0 38 -13.667 38 -41c0 -6 -1 -13 -3 -21zM212 322.999l-49 -212.999h100c36 0 62.667 6.66699 80 20c20 15.333 35 43.333 45 84
c4 17.333 6 32.666 6 45.999c0 22 -7 38 -21 48s-37.333 15 -70 15h-91zM609 62l133 563.999c0.666992 3.33301 1.16699 6.83301 1.5 10.5s0.5 6.16699 0.5 7.5c0 16.667 -8 26 -24 28l4 19h118c25.333 0 38 -13.667 38 -41c0 -6 -1 -13 -3 -21l-132 -564
c-0.666992 -3.33301 -1.16699 -6.83301 -1.5 -10.5s-0.5 -6.16699 -0.5 -7.5c0 -16.667 8.33301 -26 25 -28l-4 -19h-118c-26 0 -39 14 -39 42c0 8.66699 0.666992 15.334 2 20.001z" />
    <glyph glyph-name="Udieresis" unicode="&#xdc;" horiz-adv-x="577" 
d="M238 433l107 -0.000976562c60.667 0 108.167 -14.167 142.5 -42.5s51.5 -68.833 51.5 -121.5c0 -18 -2.66699 -39.333 -8 -64c-18 -77.333 -46.167 -130.833 -84.5 -160.5s-97.5 -44.5 -177.5 -44.5h-216c-26 0 -39 14 -39 42c0 8.66699 0.666992 15.334 2 20.001
l133 564c0.666992 3.33301 1.16699 6.83301 1.5 10.5s0.5 6.16699 0.5 7.5c0 16.667 -8 26 -24 28l4 19h118c25.333 0 38 -13.667 38 -41c0 -6 -1 -13 -3 -21zM212 322.999l-49 -212.999h100c36 0 62.667 6.66699 80 20c20 15.333 35 43.333 45 84
c4 17.333 6 32.666 6 45.999c0 22 -7 38 -21 48s-37.333 15 -70 15h-91z" />
    <glyph glyph-name="Udieresis" unicode="&#x42c;" horiz-adv-x="577" 
d="M238 433l107 -0.000976562c60.667 0 108.167 -14.167 142.5 -42.5s51.5 -68.833 51.5 -121.5c0 -18 -2.66699 -39.333 -8 -64c-18 -77.333 -46.167 -130.833 -84.5 -160.5s-97.5 -44.5 -177.5 -44.5h-216c-26 0 -39 14 -39 42c0 8.66699 0.666992 15.334 2 20.001
l133 564c0.666992 3.33301 1.16699 6.83301 1.5 10.5s0.5 6.16699 0.5 7.5c0 16.667 -8 26 -24 28l4 19h118c25.333 0 38 -13.667 38 -41c0 -6 -1 -13 -3 -21zM212 322.999l-49 -212.999h100c36 0 62.667 6.66699 80 20c20 15.333 35 43.333 45 84
c4 17.333 6 32.666 6 45.999c0 22 -7 38 -21 48s-37.333 15 -70 15h-91z" />
    <glyph glyph-name="Yacute" unicode="&#xdd;" horiz-adv-x="560" 
d="M291 581l-103 0.000976562c-25.333 0 -38 8.33301 -38 25c0 5.33301 1 12 3 20l15 65h161c70.667 0 123.167 -17.333 157.5 -52s51.5 -85.334 51.5 -152.001c0 -23.333 -1.33301 -45.333 -4 -66s-7.66699 -46 -15 -76c-33.333 -139.333 -69.833 -232.5 -109.5 -279.5
s-103.5 -70.5 -191.5 -70.5h-82c-78 0 -117 21 -117 63c0 4.66699 1.33301 13.667 4 27l14 60h18c2.66699 -14.667 10 -24.167 22 -28.5s31 -6.5 57 -6.5h62c52.667 0 89.5 12.5 110.5 37.5s42.833 83.167 65.5 174.5h-190c-25.333 0 -38 8.33301 -38 25
c0 5.33301 1 12 3 20l15 65h229c3.33301 13.333 5.5 25 6.5 35s1.5 17.667 1.5 23c0 32 -9 55.167 -27 69.5s-45 21.5 -81 21.5z" />
    <glyph glyph-name="Yacute" unicode="&#x42d;" horiz-adv-x="560" 
d="M291 581l-103 0.000976562c-25.333 0 -38 8.33301 -38 25c0 5.33301 1 12 3 20l15 65h161c70.667 0 123.167 -17.333 157.5 -52s51.5 -85.334 51.5 -152.001c0 -23.333 -1.33301 -45.333 -4 -66s-7.66699 -46 -15 -76c-33.333 -139.333 -69.833 -232.5 -109.5 -279.5
s-103.5 -70.5 -191.5 -70.5h-82c-78 0 -117 21 -117 63c0 4.66699 1.33301 13.667 4 27l14 60h18c2.66699 -14.667 10 -24.167 22 -28.5s31 -6.5 57 -6.5h62c52.667 0 89.5 12.5 110.5 37.5s42.833 83.167 65.5 174.5h-190c-25.333 0 -38 8.33301 -38 25
c0 5.33301 1 12 3 20l15 65h229c3.33301 13.333 5.5 25 6.5 35s1.5 17.667 1.5 23c0 32 -9 55.167 -27 69.5s-45 21.5 -81 21.5z" />
    <glyph glyph-name="Thorn" unicode="&#xde;" horiz-adv-x="892" 
d="M236 432h106c27.333 95.333 62.333 163 105 203c47.333 44.667 115.333 67 204 67c146.667 0 220 -68.333 220 -205c0 -20 -1.5 -41.667 -4.5 -65s-7.83301 -49.333 -14.5 -78c-31.333 -134.667 -68.333 -226.667 -111 -276c-48 -55.333 -121.667 -83 -221 -83
c-76.667 0 -132.667 16 -168 48s-53 81.667 -53 149c0 37.333 5 80.666 15 129.999h-104l-60 -257c-0.666992 -3.33301 -1.16699 -6.83301 -1.5 -10.5s-0.5 -6.16699 -0.5 -7.5c0 -16.667 8.33301 -26 25 -28l-4 -19h-118c-26 0 -39 14 -39 42
c0 8.66699 0.666992 15.334 2 20.001l133 564c0.666992 3.33301 1.16699 6.83301 1.5 10.5s0.5 6.16699 0.5 7.5c0 16.667 -8 26 -24 28l4 19h118c25.333 0 38 -13.667 38 -41c0 -6 -1 -13 -3 -21zM464 354c-16 -65.333 -23.999 -115.998 -23.999 -151.998
c0 -32.667 7.66699 -56.334 23 -71.001s40.333 -22 75 -22c46 0 80.5 17.333 103.5 52s46.5 102 70.5 202c11.333 48.667 17 88 17 118c0 71.333 -32.667 107 -98 107c-44.667 0 -78.834 -16.833 -102.501 -50.5s-45.167 -94.834 -64.5 -183.501z" />
    <glyph glyph-name="Thorn" unicode="&#x42e;" horiz-adv-x="892" 
d="M236 432h106c27.333 95.333 62.333 163 105 203c47.333 44.667 115.333 67 204 67c146.667 0 220 -68.333 220 -205c0 -20 -1.5 -41.667 -4.5 -65s-7.83301 -49.333 -14.5 -78c-31.333 -134.667 -68.333 -226.667 -111 -276c-48 -55.333 -121.667 -83 -221 -83
c-76.667 0 -132.667 16 -168 48s-53 81.667 -53 149c0 37.333 5 80.666 15 129.999h-104l-60 -257c-0.666992 -3.33301 -1.16699 -6.83301 -1.5 -10.5s-0.5 -6.16699 -0.5 -7.5c0 -16.667 8.33301 -26 25 -28l-4 -19h-118c-26 0 -39 14 -39 42
c0 8.66699 0.666992 15.334 2 20.001l133 564c0.666992 3.33301 1.16699 6.83301 1.5 10.5s0.5 6.16699 0.5 7.5c0 16.667 -8 26 -24 28l4 19h118c25.333 0 38 -13.667 38 -41c0 -6 -1 -13 -3 -21zM464 354c-16 -65.333 -23.999 -115.998 -23.999 -151.998
c0 -32.667 7.66699 -56.334 23 -71.001s40.333 -22 75 -22c46 0 80.5 17.333 103.5 52s46.5 102 70.5 202c11.333 48.667 17 88 17 118c0 71.333 -32.667 107 -98 107c-44.667 0 -78.834 -16.833 -102.501 -50.5s-45.167 -94.834 -64.5 -183.501z" />
    <glyph glyph-name="germandbls" unicode="&#xdf;" horiz-adv-x="609" 
d="M324 62l45 191.999h-67l-142 -195c-18 -24.667 -34 -40.667 -48 -48s-33.667 -11 -59 -11h-45c-25.333 0 -38 8.33301 -38 25c0 5.33301 1 12 3 20l15 65h25c16 0 27 1.33301 33 4s13.333 10 22 22l100 141c-28 12 -49.833 31.167 -65.5 57.5s-23.5 58.166 -23.5 95.499
c0 18.667 2.66699 40.334 8 65.001c16.667 71.333 44 121.833 82 151.5s89.667 44.5 155 44.5h233c25.333 0 38 -13.667 38 -41c0 -6 -1 -13 -3 -21l-132 -564c-0.666992 -3.33301 -1.16699 -6.83301 -1.5 -10.5s-0.5 -6.16699 -0.5 -7.5c0 -16.667 8.33301 -26 25 -28
l-4 -19h-118c-26 0 -39 14 -39 42c0 8.66699 0.666992 15.334 2 20.001zM395 363.999l51 217h-99c-37.333 0 -66 -7.5 -86 -22.5s-34.333 -40.5 -43 -76.5c-4.66699 -18 -7 -34.667 -7 -50c0 -23.333 6.83301 -40.5 20.5 -51.5s36.5 -16.5 68.5 -16.5h95z" />
    <glyph glyph-name="germandbls" unicode="&#x42f;" horiz-adv-x="609" 
d="M324 62l45 191.999h-67l-142 -195c-18 -24.667 -34 -40.667 -48 -48s-33.667 -11 -59 -11h-45c-25.333 0 -38 8.33301 -38 25c0 5.33301 1 12 3 20l15 65h25c16 0 27 1.33301 33 4s13.333 10 22 22l100 141c-28 12 -49.833 31.167 -65.5 57.5s-23.5 58.166 -23.5 95.499
c0 18.667 2.66699 40.334 8 65.001c16.667 71.333 44 121.833 82 151.5s89.667 44.5 155 44.5h233c25.333 0 38 -13.667 38 -41c0 -6 -1 -13 -3 -21l-132 -564c-0.666992 -3.33301 -1.16699 -6.83301 -1.5 -10.5s-0.5 -6.16699 -0.5 -7.5c0 -16.667 8.33301 -26 25 -28
l-4 -19h-118c-26 0 -39 14 -39 42c0 8.66699 0.666992 15.334 2 20.001zM395 363.999l51 217h-99c-37.333 0 -66 -7.5 -86 -22.5s-34.333 -40.5 -43 -76.5c-4.66699 -18 -7 -34.667 -7 -50c0 -23.333 6.83301 -40.5 20.5 -51.5s36.5 -16.5 68.5 -16.5h95z" />
    <glyph glyph-name="agrave" unicode="&#xe0;" horiz-adv-x="522" 
d="M305 124l31.999 135.001h-88c-29.333 0 -51.666 -6.66699 -66.999 -20s-26.333 -34 -33 -62c-4 -16 -6 -29 -6 -39c0 -16 5.5 -27.333 16.5 -34s30.167 -10 57.5 -10c18.667 0 35 2.66699 49 8s27 12.666 39 21.999zM171.999 540.001l226 0.000976562
c68 0 102 -28.667 102 -86c0 -13.333 -2 -28.666 -6 -45.999l-82 -349c-2 -8 -3 -14.333 -3 -19c0 -12 8.33301 -20 25 -24l-3 -16h-97c-16.667 0 -28.5 3.16699 -35.5 9.5s-10.5 16.166 -10.5 29.499c0 8.66699 1.66699 19.667 5 33h-9l-38 -56
c-12 -8.66699 -23.833 -14.667 -35.5 -18s-33.167 -5 -64.5 -5c-40 0 -71 8 -93 24c-28 20 -42 52 -42 96c0 18 3 39.667 9 65c16 65.333 39.333 111.166 70 137.499s77.667 39.5 141 39.5h90c14 0 24.5 2.83301 31.5 8.5s12.833 17.167 17.5 34.5
c2.66699 13.333 4 21.333 4 24c0 14.667 -11 22 -33 22h-145c-14 0 -24 1.83301 -30 5.5s-9 11.167 -9 22.5c0 4.66699 1 10.667 3 18z" />
    <glyph glyph-name="agrave" unicode="&#x430;" horiz-adv-x="522" 
d="M305 124l31.999 135.001h-88c-29.333 0 -51.666 -6.66699 -66.999 -20s-26.333 -34 -33 -62c-4 -16 -6 -29 -6 -39c0 -16 5.5 -27.333 16.5 -34s30.167 -10 57.5 -10c18.667 0 35 2.66699 49 8s27 12.666 39 21.999zM171.999 540.001l226 0.000976562
c68 0 102 -28.667 102 -86c0 -13.333 -2 -28.666 -6 -45.999l-82 -349c-2 -8 -3 -14.333 -3 -19c0 -12 8.33301 -20 25 -24l-3 -16h-97c-16.667 0 -28.5 3.16699 -35.5 9.5s-10.5 16.166 -10.5 29.499c0 8.66699 1.66699 19.667 5 33h-9l-38 -56
c-12 -8.66699 -23.833 -14.667 -35.5 -18s-33.167 -5 -64.5 -5c-40 0 -71 8 -93 24c-28 20 -42 52 -42 96c0 18 3 39.667 9 65c16 65.333 39.333 111.166 70 137.499s77.667 39.5 141 39.5h90c14 0 24.5 2.83301 31.5 8.5s12.833 17.167 17.5 34.5
c2.66699 13.333 4 21.333 4 24c0 14.667 -11 22 -33 22h-145c-14 0 -24 1.83301 -30 5.5s-9 11.167 -9 22.5c0 4.66699 1 10.667 3 18z" />
    <glyph glyph-name="aacute" unicode="&#xe1;" horiz-adv-x="529" 
d="M308 691l221.001 -0.00195312l-15 -63c-4.66699 -22 -20.334 -33 -47.001 -33h-128c-32.667 0 -60 -10.667 -82 -32c-24 -24 -41.667 -60 -53 -108h7l41 45c13.333 8.66699 26.166 14.834 38.499 18.501s29.5 5.5 51.5 5.5c52.667 0 93 -14 121 -42s42 -68.667 42 -122
c0 -26 -4.33301 -58 -13 -96c-26 -107.333 -59 -179.333 -99 -216s-102 -55 -186 -55c-62.667 0 -107.834 14.5 -135.501 43.5s-41.5 73.833 -41.5 134.5c0 26 2.33301 54.833 7 86.5s11.334 66.834 20.001 105.501c25.333 110.667 56.333 191.667 93 243
c40.667 56.667 93.334 85 158.001 85zM224.001 93.998c36 0 63.333 10.999 82 32.999c21.333 24.667 41 73 59 145c7.33301 30.667 11 56.334 11 77.001c0 24.667 -5.5 43.167 -16.5 55.5s-29.5 18.5 -55.5 18.5c-39.333 0 -69 -11.333 -89 -34s-36.333 -60 -49 -112
c-10 -42 -15 -76.333 -15 -103c0 -53.333 24.333 -80 73 -80z" />
    <glyph glyph-name="aacute" unicode="&#x431;" horiz-adv-x="529" 
d="M308 691l221.001 -0.00195312l-15 -63c-4.66699 -22 -20.334 -33 -47.001 -33h-128c-32.667 0 -60 -10.667 -82 -32c-24 -24 -41.667 -60 -53 -108h7l41 45c13.333 8.66699 26.166 14.834 38.499 18.501s29.5 5.5 51.5 5.5c52.667 0 93 -14 121 -42s42 -68.667 42 -122
c0 -26 -4.33301 -58 -13 -96c-26 -107.333 -59 -179.333 -99 -216s-102 -55 -186 -55c-62.667 0 -107.834 14.5 -135.501 43.5s-41.5 73.833 -41.5 134.5c0 26 2.33301 54.833 7 86.5s11.334 66.834 20.001 105.501c25.333 110.667 56.333 191.667 93 243
c40.667 56.667 93.334 85 158.001 85zM224.001 93.998c36 0 63.333 10.999 82 32.999c21.333 24.667 41 73 59 145c7.33301 30.667 11 56.334 11 77.001c0 24.667 -5.5 43.167 -16.5 55.5s-29.5 18.5 -55.5 18.5c-39.333 0 -69 -11.333 -89 -34s-36.333 -60 -49 -112
c-10 -42 -15 -76.333 -15 -103c0 -53.333 24.333 -80 73 -80z" />
    <glyph glyph-name="acircumflex" unicode="&#xe2;" horiz-adv-x="515" 
d="M232 444l-25 -108.999h80c19.333 0 35 4.16699 47 12.5s20.333 22.166 25 41.499c1.33301 8 2 13.667 2 17c0 25.333 -17 38 -51 38h-78zM186 245.001l-35 -148.999h81c30 0 53 5.33301 69 16s27 29 33 55c2 9.33301 3 17.666 3 24.999c0 35.333 -23.333 53 -70 53h-81z
M259 0.00195312l-194.999 0.00292969c-16.667 0 -28.5 3.16699 -35.5 9.5s-10.5 16.166 -10.5 29.499c0 8.66699 1.66699 19.667 5 33l97 413c1.33301 8 2 13.667 2 17c0 12 -7.33301 19.667 -22 23l4 15h230c45.333 0 81.166 -11 107.499 -33s39.5 -49.333 39.5 -82
c0 -9.33301 -1 -19 -3 -29c-6 -26.667 -14.667 -47.334 -26 -62.001c-13.333 -18 -32.666 -29.333 -57.999 -34c23.333 -10 40.5 -22.833 51.5 -38.5s16.5 -35.834 16.5 -60.501c0 -10.667 -0.333008 -19 -1 -25s-2.66699 -16 -6 -30c-12 -52 -31.667 -88.667 -59 -110
c-30.667 -24 -76.334 -36 -137.001 -36z" />
    <glyph glyph-name="acircumflex" unicode="&#x432;" horiz-adv-x="515" 
d="M232 444l-25 -108.999h80c19.333 0 35 4.16699 47 12.5s20.333 22.166 25 41.499c1.33301 8 2 13.667 2 17c0 25.333 -17 38 -51 38h-78zM186 245.001l-35 -148.999h81c30 0 53 5.33301 69 16s27 29 33 55c2 9.33301 3 17.666 3 24.999c0 35.333 -23.333 53 -70 53h-81z
M259 0.00195312l-194.999 0.00292969c-16.667 0 -28.5 3.16699 -35.5 9.5s-10.5 16.166 -10.5 29.499c0 8.66699 1.66699 19.667 5 33l97 413c1.33301 8 2 13.667 2 17c0 12 -7.33301 19.667 -22 23l4 15h230c45.333 0 81.166 -11 107.499 -33s39.5 -49.333 39.5 -82
c0 -9.33301 -1 -19 -3 -29c-6 -26.667 -14.667 -47.334 -26 -62.001c-13.333 -18 -32.666 -29.333 -57.999 -34c23.333 -10 40.5 -22.833 51.5 -38.5s16.5 -35.834 16.5 -60.501c0 -10.667 -0.333008 -19 -1 -25s-2.66699 -16 -6 -30c-12 -52 -31.667 -88.667 -59 -110
c-30.667 -24 -76.334 -36 -137.001 -36z" />
    <glyph glyph-name="atilde" unicode="&#xe3;" horiz-adv-x="402" 
d="M219 379l-74.999 -319.998c-2 -8 -3 -14.333 -3 -19c0 -12 8.33301 -20 25 -24l-3 -16h-97c-16.667 0 -28.5 3.16699 -35.5 9.5s-10.5 16.166 -10.5 29.499c0 8.66699 1.66699 19.667 5 33l97 413c1.33301 8 2 13.667 2 17c0 12 -7.33301 19.667 -22 23l4 15h363l-16 -64
c-5.33301 -24.667 -20.333 -37 -45 -37h-121c-18.667 0 -33.334 -4.33301 -44.001 -13s-18.667 -24.334 -24 -47.001z" />
    <glyph glyph-name="atilde" unicode="&#x433;" horiz-adv-x="402" 
d="M219 379l-74.999 -319.998c-2 -8 -3 -14.333 -3 -19c0 -12 8.33301 -20 25 -24l-3 -16h-97c-16.667 0 -28.5 3.16699 -35.5 9.5s-10.5 16.166 -10.5 29.499c0 8.66699 1.66699 19.667 5 33l97 413c1.33301 8 2 13.667 2 17c0 12 -7.33301 19.667 -22 23l4 15h363l-16 -64
c-5.33301 -24.667 -20.333 -37 -45 -37h-121c-18.667 0 -33.334 -4.33301 -44.001 -13s-18.667 -24.334 -24 -47.001z" />
    <glyph glyph-name="adieresis" unicode="&#xe4;" horiz-adv-x="559" 
d="M314 93l-9 -0.00195312l-41 -50c-24 -15.333 -59.667 -23 -107 -23c-44.667 0 -77.334 10.333 -98.001 31s-31 53.667 -31 99c0 35.333 6 79 18 131c21.333 90.667 57.333 157.334 108 200.001c46.667 39.333 106.334 59 179.001 59h159c26.667 0 40 -11.667 40 -35
c0 -6 -1 -13 -3 -21l-110 -464c-12 -52.667 -34.667 -93 -68 -121c-36 -30.667 -84.333 -46 -145 -46h-118c-30.667 0 -53.667 4.33301 -69 13s-23 24.334 -23 47.001c0 10 1.33301 20 4 30l11 45h12c6.66699 -13.333 16 -22.333 28 -27s29.667 -7 53 -7h72
c37.333 0 66 7 86 21s34.667 39.667 44 77zM397 443.998h-63.999c-78 0 -129.667 -54.333 -155 -163c-10.667 -44.667 -16 -79 -16 -103c0 -22 5 -37 15 -45s26.667 -12 50 -12c34.667 0 60.667 7.66699 78 23s30.666 43.333 39.999 84z" />
    <glyph glyph-name="adieresis" unicode="&#x434;" horiz-adv-x="559" 
d="M314 93l-9 -0.00195312l-41 -50c-24 -15.333 -59.667 -23 -107 -23c-44.667 0 -77.334 10.333 -98.001 31s-31 53.667 -31 99c0 35.333 6 79 18 131c21.333 90.667 57.333 157.334 108 200.001c46.667 39.333 106.334 59 179.001 59h159c26.667 0 40 -11.667 40 -35
c0 -6 -1 -13 -3 -21l-110 -464c-12 -52.667 -34.667 -93 -68 -121c-36 -30.667 -84.333 -46 -145 -46h-118c-30.667 0 -53.667 4.33301 -69 13s-23 24.334 -23 47.001c0 10 1.33301 20 4 30l11 45h12c6.66699 -13.333 16 -22.333 28 -27s29.667 -7 53 -7h72
c37.333 0 66 7 86 21s34.667 39.667 44 77zM397 443.998h-63.999c-78 0 -129.667 -54.333 -155 -163c-10.667 -44.667 -16 -79 -16 -103c0 -22 5 -37 15 -45s26.667 -12 50 -12c34.667 0 60.667 7.66699 78 23s30.666 43.333 39.999 84z" />
    <glyph glyph-name="aring" unicode="&#xe5;" horiz-adv-x="511" 
d="M402 248l-238.003 0.00195312l-8 -44c-2.66699 -14.667 -4 -29 -4 -43c0 -23.333 6.16699 -40.333 18.5 -51s33.833 -16 64.5 -16h92c26 0 44.667 1.5 56 4.5s22 10.167 32 21.5h14l-13 -54c-6.66699 -28 -19.167 -47.167 -37.5 -57.5s-50.166 -15.5 -95.499 -15.5h-79
c-58 0 -101 10.667 -129 32c-33.333 25.333 -50 68.666 -50 129.999c0 37.333 5.66699 79.666 17 126.999c21.333 92 52 157.333 92 196c42.667 41.333 103.334 62 182.001 62c120.667 0 181 -46 181 -138c0 -10 -1 -20.833 -3 -32.5s-3.33301 -20.167 -4 -25.5
c-8.66699 -40 -18.667 -66 -30 -78s-30.666 -18 -57.999 -18zM368.997 344.002c4.66699 18.667 7 35 7 49c0 18 -5.5 31 -16.5 39s-29.167 12 -54.5 12c-35.333 0 -62 -9.33301 -80 -28c-13.333 -14 -25 -38 -35 -72h179z" />
    <glyph glyph-name="aring" unicode="&#x435;" horiz-adv-x="511" 
d="M402 248l-238.003 0.00195312l-8 -44c-2.66699 -14.667 -4 -29 -4 -43c0 -23.333 6.16699 -40.333 18.5 -51s33.833 -16 64.5 -16h92c26 0 44.667 1.5 56 4.5s22 10.167 32 21.5h14l-13 -54c-6.66699 -28 -19.167 -47.167 -37.5 -57.5s-50.166 -15.5 -95.499 -15.5h-79
c-58 0 -101 10.667 -129 32c-33.333 25.333 -50 68.666 -50 129.999c0 37.333 5.66699 79.666 17 126.999c21.333 92 52 157.333 92 196c42.667 41.333 103.334 62 182.001 62c120.667 0 181 -46 181 -138c0 -10 -1 -20.833 -3 -32.5s-3.33301 -20.167 -4 -25.5
c-8.66699 -40 -18.667 -66 -30 -78s-30.666 -18 -57.999 -18zM368.997 344.002c4.66699 18.667 7 35 7 49c0 18 -5.5 31 -16.5 39s-29.167 12 -54.5 12c-35.333 0 -62 -9.33301 -80 -28c-13.333 -14 -25 -38 -35 -72h179z" />
    <glyph glyph-name="ae" unicode="&#xe6;" horiz-adv-x="784" 
d="M305 72l45.998 190.003h-79c-46 0 -74.333 -23.333 -85 -70l-34 -144c-8 -32 -25 -48 -51 -48h-106l4 16c12 2.66699 19.833 6.66699 23.5 12s7.83398 18 12.501 38l36 155c9.33301 42 24.333 73.667 45 95c23.333 24.667 54 37 92 37l56 -1l-90 127
c-11.333 16.667 -17 29.667 -17 39c0 14.667 11.667 22 35 22h93l-4 -16c-12 -3.33301 -18 -8 -18 -14c0 -4.66699 3.33301 -12 10 -22l98 -136l66 284c1.33301 8 2 13.667 2 17c0 12 -7.33301 19.667 -22 23l4 15h98c14.667 0 25.334 -3 32.001 -9s10 -14.667 10 -26
c0 -4.66699 -1.33301 -14.334 -4 -29.001l-65 -275l142 136c8.66699 8 13 15.333 13 22c0 7.33301 -5.66699 12 -17 14l5 16h111c17.333 0 26 -7 26 -21c0 -9.33301 -4.66699 -18.666 -14 -27.999l-143 -139h13c36 0 63.667 -8.33301 83 -25s29 -40.334 29 -71.001v-17
c-2 -8 -3.33301 -14 -4 -18l-38 -162c-2 -8 -3 -14.333 -3 -19c0 -12 8.33301 -20 25 -24l-3 -16h-97c-16.667 0 -28.5 3.16699 -35.5 9.5s-10.5 16.166 -10.5 29.499c0 8.66699 1.66699 19.667 5 33l29 122c2.66699 10 4 19.667 4 29c0 26 -17 39 -51 39h-90l-48 -203
c-2 -8 -3 -14.333 -3 -19c0 -12 8.33301 -20 25 -24l-3 -16h-97c-16.667 0 -28.5 3.16699 -35.5 9.5s-10.5 16.166 -10.5 29.499c0 8.66699 1.66699 19.667 5 33z" />
    <glyph glyph-name="ae" unicode="&#x436;" horiz-adv-x="784" 
d="M305 72l45.998 190.003h-79c-46 0 -74.333 -23.333 -85 -70l-34 -144c-8 -32 -25 -48 -51 -48h-106l4 16c12 2.66699 19.833 6.66699 23.5 12s7.83398 18 12.501 38l36 155c9.33301 42 24.333 73.667 45 95c23.333 24.667 54 37 92 37l56 -1l-90 127
c-11.333 16.667 -17 29.667 -17 39c0 14.667 11.667 22 35 22h93l-4 -16c-12 -3.33301 -18 -8 -18 -14c0 -4.66699 3.33301 -12 10 -22l98 -136l66 284c1.33301 8 2 13.667 2 17c0 12 -7.33301 19.667 -22 23l4 15h98c14.667 0 25.334 -3 32.001 -9s10 -14.667 10 -26
c0 -4.66699 -1.33301 -14.334 -4 -29.001l-65 -275l142 136c8.66699 8 13 15.333 13 22c0 7.33301 -5.66699 12 -17 14l5 16h111c17.333 0 26 -7 26 -21c0 -9.33301 -4.66699 -18.666 -14 -27.999l-143 -139h13c36 0 63.667 -8.33301 83 -25s29 -40.334 29 -71.001v-17
c-2 -8 -3.33301 -14 -4 -18l-38 -162c-2 -8 -3 -14.333 -3 -19c0 -12 8.33301 -20 25 -24l-3 -16h-97c-16.667 0 -28.5 3.16699 -35.5 9.5s-10.5 16.166 -10.5 29.499c0 8.66699 1.66699 19.667 5 33l29 122c2.66699 10 4 19.667 4 29c0 26 -17 39 -51 39h-90l-48 -203
c-2 -8 -3 -14.333 -3 -19c0 -12 8.33301 -20 25 -24l-3 -16h-97c-16.667 0 -28.5 3.16699 -35.5 9.5s-10.5 16.166 -10.5 29.499c0 8.66699 1.66699 19.667 5 33z" />
    <glyph glyph-name="ccedilla" unicode="&#xe7;" horiz-adv-x="457" 
d="M336 300c23.333 -10 40.499 -22.8281 51.499 -38.4951s16.5 -35.834 16.5 -60.501c0 -10.667 -0.333008 -19 -1 -25s-2.66699 -16 -6 -30c-12 -52.667 -32 -90.667 -60 -114c-31.333 -26 -77.333 -39 -138 -39h-116c-24.667 0 -43.667 3.66699 -57 11
s-20 20.666 -20 39.999c0 4 1.33301 12.667 4 26l14 58h12c4 -10.667 10.167 -19 18.5 -25s20.5 -9 36.5 -9h83c30 0 53 5.5 69 16.5s27 29.833 33 56.5c2 9.33301 3 17.666 3 24.999c0 35.333 -23.333 53 -70 53h-69c-14 0 -24 1.83301 -30 5.5s-9 11.167 -9 22.5
c0 4.66699 1 10.667 3 18l12 50h115c20.667 0 36.5 3.66699 47.5 11s18.833 20.666 23.5 39.999c1.33301 8 2 13.667 2 17c0 23.333 -17.333 35 -52 35h-115c-14 0 -24 1.83301 -30 5.5s-9 11.167 -9 22.5c0 4.66699 1 10.667 3 18l12 50h171c45.333 0 80 -10.333 104 -31
s36 -47.667 36 -81c0 -11.333 -1.33301 -22 -4 -32c-6 -26.667 -14.667 -47.334 -26 -62.001c-13.333 -18 -32.666 -29.333 -57.999 -34z" />
    <glyph glyph-name="ccedilla" unicode="&#x437;" horiz-adv-x="457" 
d="M336 300c23.333 -10 40.499 -22.8281 51.499 -38.4951s16.5 -35.834 16.5 -60.501c0 -10.667 -0.333008 -19 -1 -25s-2.66699 -16 -6 -30c-12 -52.667 -32 -90.667 -60 -114c-31.333 -26 -77.333 -39 -138 -39h-116c-24.667 0 -43.667 3.66699 -57 11
s-20 20.666 -20 39.999c0 4 1.33301 12.667 4 26l14 58h12c4 -10.667 10.167 -19 18.5 -25s20.5 -9 36.5 -9h83c30 0 53 5.5 69 16.5s27 29.833 33 56.5c2 9.33301 3 17.666 3 24.999c0 35.333 -23.333 53 -70 53h-69c-14 0 -24 1.83301 -30 5.5s-9 11.167 -9 22.5
c0 4.66699 1 10.667 3 18l12 50h115c20.667 0 36.5 3.66699 47.5 11s18.833 20.666 23.5 39.999c1.33301 8 2 13.667 2 17c0 23.333 -17.333 35 -52 35h-115c-14 0 -24 1.83301 -30 5.5s-9 11.167 -9 22.5c0 4.66699 1 10.667 3 18l12 50h171c45.333 0 80 -10.333 104 -31
s36 -47.667 36 -81c0 -11.333 -1.33301 -22 -4 -32c-6 -26.667 -14.667 -47.334 -26 -62.001c-13.333 -18 -32.666 -29.333 -57.999 -34z" />
    <glyph glyph-name="egrave" unicode="&#xe8;" horiz-adv-x="550" 
d="M342 191l68.9971 294.003c1.33301 8 2 13.667 2 17c0 12 -7.33301 19.667 -22 23l4 15h98c14.667 0 25.334 -3 32.001 -9s10 -14.667 10 -26c0 -4.66699 -1.33301 -14.334 -4 -29.001l-98 -417c-2 -8 -3 -14.333 -3 -19c0 -12 8.33301 -20 25 -24l-3 -16h-97
c-16.667 0 -28.5 3.16699 -35.5 9.5s-10.5 16.166 -10.5 29.499c0 8.66699 1.66699 19.667 5 33h-7l-41 -56c-12 -9.33301 -25.167 -15.833 -39.5 -19.5s-36.833 -5.5 -67.5 -5.5c-44 0 -76.5 9.83301 -97.5 29.5s-31.5 47.5 -31.5 83.5c0 20 3 42 9 66l74 315
c1.33301 8 2 13.667 2 17c0 12 -7.33301 19.667 -22 23l4 15h98c14.667 0 25.334 -3 32.001 -9s10 -14.667 10 -26c0 -4.66699 -1.33301 -14.334 -4 -29.001l-68 -289c-4.66699 -19.333 -7 -36 -7 -50c0 -18 5.33301 -29.833 16 -35.5s29.334 -8.5 56.001 -8.5
c32 0 56.833 8.5 74.5 25.5s30.167 41.167 37.5 72.5z" />
    <glyph glyph-name="egrave" unicode="&#x438;" horiz-adv-x="550" 
d="M342 191l68.9971 294.003c1.33301 8 2 13.667 2 17c0 12 -7.33301 19.667 -22 23l4 15h98c14.667 0 25.334 -3 32.001 -9s10 -14.667 10 -26c0 -4.66699 -1.33301 -14.334 -4 -29.001l-98 -417c-2 -8 -3 -14.333 -3 -19c0 -12 8.33301 -20 25 -24l-3 -16h-97
c-16.667 0 -28.5 3.16699 -35.5 9.5s-10.5 16.166 -10.5 29.499c0 8.66699 1.66699 19.667 5 33h-7l-41 -56c-12 -9.33301 -25.167 -15.833 -39.5 -19.5s-36.833 -5.5 -67.5 -5.5c-44 0 -76.5 9.83301 -97.5 29.5s-31.5 47.5 -31.5 83.5c0 20 3 42 9 66l74 315
c1.33301 8 2 13.667 2 17c0 12 -7.33301 19.667 -22 23l4 15h98c14.667 0 25.334 -3 32.001 -9s10 -14.667 10 -26c0 -4.66699 -1.33301 -14.334 -4 -29.001l-68 -289c-4.66699 -19.333 -7 -36 -7 -50c0 -18 5.33301 -29.833 16 -35.5s29.334 -8.5 56.001 -8.5
c32 0 56.833 8.5 74.5 25.5s30.167 41.167 37.5 72.5z" />
    <glyph glyph-name="eacute" unicode="&#xe9;" horiz-adv-x="550" 
d="M342 191l68.9971 294.003c1.33301 8 2 13.667 2 17c0 12 -7.33301 19.667 -22 23l4 15h98c14.667 0 25.334 -3 32.001 -9s10 -14.667 10 -26c0 -4.66699 -1.33301 -14.334 -4 -29.001l-98 -417c-2 -8 -3 -14.333 -3 -19c0 -12 8.33301 -20 25 -24l-3 -16h-97
c-16.667 0 -28.5 3.16699 -35.5 9.5s-10.5 16.166 -10.5 29.499c0 8.66699 1.66699 19.667 5 33h-7l-41 -56c-12 -9.33301 -25.167 -15.833 -39.5 -19.5s-36.833 -5.5 -67.5 -5.5c-44 0 -76.5 9.83301 -97.5 29.5s-31.5 47.5 -31.5 83.5c0 20 3 42 9 66l74 315
c1.33301 8 2 13.667 2 17c0 12 -7.33301 19.667 -22 23l4 15h98c14.667 0 25.334 -3 32.001 -9s10 -14.667 10 -26c0 -4.66699 -1.33301 -14.334 -4 -29.001l-68 -289c-4.66699 -19.333 -7 -36 -7 -50c0 -18 5.33301 -29.833 16 -35.5s29.334 -8.5 56.001 -8.5
c32 0 56.833 8.5 74.5 25.5s30.167 41.167 37.5 72.5zM443.997 604.003h-187c-15.333 0 -23 6 -23 18c0 4 1 9 3 15l7 37h187c15.333 0 23 -6 23 -18c0 -4 -1 -9 -3 -15z" />
    <glyph glyph-name="eacute" unicode="&#x439;" horiz-adv-x="550" 
d="M342 191l68.9971 294.003c1.33301 8 2 13.667 2 17c0 12 -7.33301 19.667 -22 23l4 15h98c14.667 0 25.334 -3 32.001 -9s10 -14.667 10 -26c0 -4.66699 -1.33301 -14.334 -4 -29.001l-98 -417c-2 -8 -3 -14.333 -3 -19c0 -12 8.33301 -20 25 -24l-3 -16h-97
c-16.667 0 -28.5 3.16699 -35.5 9.5s-10.5 16.166 -10.5 29.499c0 8.66699 1.66699 19.667 5 33h-7l-41 -56c-12 -9.33301 -25.167 -15.833 -39.5 -19.5s-36.833 -5.5 -67.5 -5.5c-44 0 -76.5 9.83301 -97.5 29.5s-31.5 47.5 -31.5 83.5c0 20 3 42 9 66l74 315
c1.33301 8 2 13.667 2 17c0 12 -7.33301 19.667 -22 23l4 15h98c14.667 0 25.334 -3 32.001 -9s10 -14.667 10 -26c0 -4.66699 -1.33301 -14.334 -4 -29.001l-68 -289c-4.66699 -19.333 -7 -36 -7 -50c0 -18 5.33301 -29.833 16 -35.5s29.334 -8.5 56.001 -8.5
c32 0 56.833 8.5 74.5 25.5s30.167 41.167 37.5 72.5zM443.997 604.003h-187c-15.333 0 -23 6 -23 18c0 4 1 9 3 15l7 37h187c15.333 0 23 -6 23 -18c0 -4 -1 -9 -3 -15z" />
    <glyph glyph-name="ecircumflex" unicode="&#xea;" horiz-adv-x="527" 
d="M24 72l129.999 564.003c1.33301 8 2 13.667 2 17c0 12 -7.33301 19.667 -22 23l4 15h98c14.667 0 25.334 -3 32.001 -9s10 -14.667 10 -26c0 -4.66699 -1.33301 -14.334 -4 -29.001l-63 -275l142 136c8.66699 8 13 15.333 13 22c0 7.33301 -5.66699 12 -17 14l5 16h111
c17.333 0 26 -7 26 -21c0 -9.33301 -4.66699 -18.666 -14 -27.999l-143 -139h31c36 0 63.667 -8.33301 83 -25s29 -40.334 29 -71.001v-17c-2 -8 -3.33301 -14 -4 -18l-38 -162c-2 -8 -3 -14.333 -3 -19c0 -12 8.33301 -20 25 -24l-3 -16h-97
c-16.667 0 -28.5 3.16699 -35.5 9.5s-10.5 16.166 -10.5 29.499c0 8.66699 1.66699 19.667 5 33l29 122c2.66699 10 4 19.667 4 29c0 26 -17 39 -51 39h-108l-47 -203c-2 -8 -3 -14.333 -3 -19c0 -12 8.33301 -20 25 -24l-3 -16h-97c-16.667 0 -28.5 3.16699 -35.5 9.5
s-10.5 16.166 -10.5 29.499c0 8.66699 1.66699 19.667 5 33z" />
    <glyph glyph-name="ecircumflex" unicode="&#x43a;" horiz-adv-x="527" 
d="M24 72l129.999 564.003c1.33301 8 2 13.667 2 17c0 12 -7.33301 19.667 -22 23l4 15h98c14.667 0 25.334 -3 32.001 -9s10 -14.667 10 -26c0 -4.66699 -1.33301 -14.334 -4 -29.001l-63 -275l142 136c8.66699 8 13 15.333 13 22c0 7.33301 -5.66699 12 -17 14l5 16h111
c17.333 0 26 -7 26 -21c0 -9.33301 -4.66699 -18.666 -14 -27.999l-143 -139h31c36 0 63.667 -8.33301 83 -25s29 -40.334 29 -71.001v-17c-2 -8 -3.33301 -14 -4 -18l-38 -162c-2 -8 -3 -14.333 -3 -19c0 -12 8.33301 -20 25 -24l-3 -16h-97
c-16.667 0 -28.5 3.16699 -35.5 9.5s-10.5 16.166 -10.5 29.499c0 8.66699 1.66699 19.667 5 33l29 122c2.66699 10 4 19.667 4 29c0 26 -17 39 -51 39h-108l-47 -203c-2 -8 -3 -14.333 -3 -19c0 -12 8.33301 -20 25 -24l-3 -16h-97c-16.667 0 -28.5 3.16699 -35.5 9.5
s-10.5 16.166 -10.5 29.499c0 8.66699 1.66699 19.667 5 33z" />
    <glyph glyph-name="edieresis" unicode="&#xeb;" horiz-adv-x="451" 
d="M428 0l-102 0.00195312c-28.667 0 -43 16.333 -43 49l-20 346l-164 -338c-4.66699 -9.33301 -7 -17.333 -7 -24c0 -8.66699 6.66699 -14.334 20 -17.001l-4 -16h-100c-20 0 -30 7 -30 21c0 6 2 13.667 6 23l214 431c5.33301 10 8 19.333 8 28c0 12 -7 19 -21 21l4 16h143
c27.333 0 41 -15.333 41 -46l27 -443c0 -12.667 2 -21.334 6 -26.001s12.333 -7.66699 25 -9z" />
    <glyph glyph-name="edieresis" unicode="&#x43b;" horiz-adv-x="451" 
d="M428 0l-102 0.00195312c-28.667 0 -43 16.333 -43 49l-20 346l-164 -338c-4.66699 -9.33301 -7 -17.333 -7 -24c0 -8.66699 6.66699 -14.334 20 -17.001l-4 -16h-100c-20 0 -30 7 -30 21c0 6 2 13.667 6 23l214 431c5.33301 10 8 19.333 8 28c0 12 -7 19 -21 21l4 16h143
c27.333 0 41 -15.333 41 -46l27 -443c0 -12.667 2 -21.334 6 -26.001s12.333 -7.66699 25 -9z" />
    <glyph glyph-name="igrave" unicode="&#xec;" horiz-adv-x="654" 
d="M320 242l99 230.999c6 14 9 24.667 9 32c0 10 -7.33301 16.333 -22 19l3 16h125c22.667 0 38.5 -5.16699 47.5 -15.5s13.5 -27.166 13.5 -50.499v-420c0 -14 1.5 -23.333 4.5 -28s10.5 -8 22.5 -10l-4 -16h-101c-16.667 0 -27.5 3.16699 -32.5 9.5s-7.5 17.833 -7.5 34.5
v319l-155 -363h-99l-35 363l-104 -309c-2 -7.33301 -3 -13 -3 -17c0 -10 7.33301 -17 22 -21l-3 -16h-105c-15.333 0 -23 7 -23 21c0 8 2 17 6 27l145 427c2.66699 7.33301 4 14 4 20c0 15.333 -8 25 -24 29l4 16h137c18 0 30.5 -3.83301 37.5 -11.5s11.5 -22.5 13.5 -44.5z
" />
    <glyph glyph-name="igrave" unicode="&#x43c;" horiz-adv-x="654" 
d="M320 242l99 230.999c6 14 9 24.667 9 32c0 10 -7.33301 16.333 -22 19l3 16h125c22.667 0 38.5 -5.16699 47.5 -15.5s13.5 -27.166 13.5 -50.499v-420c0 -14 1.5 -23.333 4.5 -28s10.5 -8 22.5 -10l-4 -16h-101c-16.667 0 -27.5 3.16699 -32.5 9.5s-7.5 17.833 -7.5 34.5
v319l-155 -363h-99l-35 363l-104 -309c-2 -7.33301 -3 -13 -3 -17c0 -10 7.33301 -17 22 -21l-3 -16h-105c-15.333 0 -23 7 -23 21c0 8 2 17 6 27l145 427c2.66699 7.33301 4 14 4 20c0 15.333 -8 25 -24 29l4 16h137c18 0 30.5 -3.83301 37.5 -11.5s11.5 -22.5 13.5 -44.5z
" />
    <glyph glyph-name="iacute" unicode="&#xed;" horiz-adv-x="558" 
d="M210 332l171.998 0.00390625l36 153c1.33301 8 2 13.667 2 17c0 12 -7.33301 19.667 -22 23l4 15h98c14.667 0 25.334 -3 32.001 -9s10 -14.667 10 -26c0 -4.66699 -1.33301 -14.334 -4 -29.001l-98 -417c-2 -8 -3 -14.333 -3 -19c0 -12 8.33301 -20 25 -24l-3 -16h-97
c-16.667 0 -28.5 3.16699 -35.5 9.5s-10.5 16.166 -10.5 29.499c0 8.66699 1.66699 19.667 5 33l39 164h-172l-42 -177c-2 -8 -3 -14.333 -3 -19c0 -12 8.33301 -20 25 -24l-3 -16h-97c-16.667 0 -28.5 3.16699 -35.5 9.5s-10.5 16.166 -10.5 29.499
c0 8.66699 1.66699 19.667 5 33l97 413c1.33301 8 2 13.667 2 17c0 12 -7.33301 19.667 -22 23l4 15h98c14.667 0 25.334 -3 32.001 -9s10 -14.667 10 -26c0 -4.66699 -1.33301 -14.334 -4 -29.001z" />
    <glyph glyph-name="iacute" unicode="&#x43d;" horiz-adv-x="558" 
d="M210 332l171.998 0.00390625l36 153c1.33301 8 2 13.667 2 17c0 12 -7.33301 19.667 -22 23l4 15h98c14.667 0 25.334 -3 32.001 -9s10 -14.667 10 -26c0 -4.66699 -1.33301 -14.334 -4 -29.001l-98 -417c-2 -8 -3 -14.333 -3 -19c0 -12 8.33301 -20 25 -24l-3 -16h-97
c-16.667 0 -28.5 3.16699 -35.5 9.5s-10.5 16.166 -10.5 29.499c0 8.66699 1.66699 19.667 5 33l39 164h-172l-42 -177c-2 -8 -3 -14.333 -3 -19c0 -12 8.33301 -20 25 -24l-3 -16h-97c-16.667 0 -28.5 3.16699 -35.5 9.5s-10.5 16.166 -10.5 29.499
c0 8.66699 1.66699 19.667 5 33l97 413c1.33301 8 2 13.667 2 17c0 12 -7.33301 19.667 -22 23l4 15h98c14.667 0 25.334 -3 32.001 -9s10 -14.667 10 -26c0 -4.66699 -1.33301 -14.334 -4 -29.001z" />
    <glyph glyph-name="icircumflex" unicode="&#xee;" horiz-adv-x="530" 
d="M208 -7c-60.667 0 -106 13.001 -136 39.001c-32 28 -48 72.333 -48 133c0 32 5 70.667 15 116c24 102.667 56 173 96 211s103.333 57 190 57c62 0 107.833 -15.333 137.5 -46s44.5 -74.667 44.5 -132c0 -30.667 -4.66699 -66.334 -14 -107.001
c-26 -107.333 -59 -179.333 -99 -216s-102 -55 -186 -55zM225 94.001c36 0 63.334 11 82.001 33c21.333 24.667 41 73 59 145c10 40 15 73 15 99c0 51.333 -25 77 -75 77c-37.333 0 -65 -10.333 -83 -31c-20.667 -23.333 -39.334 -70 -56.001 -140
c-10.667 -48 -16 -83.667 -16 -107c0 -27.333 5.83301 -46.833 17.5 -58.5s30.5 -17.5 56.5 -17.5z" />
    <glyph glyph-name="icircumflex" unicode="&#x43e;" horiz-adv-x="530" 
d="M208 -7c-60.667 0 -106 13.001 -136 39.001c-32 28 -48 72.333 -48 133c0 32 5 70.667 15 116c24 102.667 56 173 96 211s103.333 57 190 57c62 0 107.833 -15.333 137.5 -46s44.5 -74.667 44.5 -132c0 -30.667 -4.66699 -66.334 -14 -107.001
c-26 -107.333 -59 -179.333 -99 -216s-102 -55 -186 -55zM225 94.001c36 0 63.334 11 82.001 33c21.333 24.667 41 73 59 145c10 40 15 73 15 99c0 51.333 -25 77 -75 77c-37.333 0 -65 -10.333 -83 -31c-20.667 -23.333 -39.334 -70 -56.001 -140
c-10.667 -48 -16 -83.667 -16 -107c0 -27.333 5.83301 -46.833 17.5 -58.5s30.5 -17.5 56.5 -17.5z" />
    <glyph glyph-name="idieresis" unicode="&#xef;" horiz-adv-x="542" 
d="M208 348l-68.001 -288.999c-2 -8 -3 -14.333 -3 -19c0 -12 8.33301 -20 25 -24l-3 -16h-97c-16.667 0 -28.5 3.16699 -35.5 9.5s-10.5 16.166 -10.5 29.499c0 8.66699 1.66699 19.667 5 33l97 413c1.33301 8 2 13.667 2 17c0 12 -7.33301 19.667 -22 23l4 15h98
c28 0 42 -11.333 42 -34c0 -4.66699 -1.33301 -13.667 -4 -27h8l35 42c14 10.667 28 18 42 22s36.667 6 68 6c45.333 0 78.5 -8.5 99.5 -25.5s31.5 -43.167 31.5 -78.5c0 -17.333 -2.66699 -38.333 -8 -63l-76 -323c-2 -8 -3 -14.333 -3 -19c0 -12 8.33301 -20 25 -24
l-3 -16h-97c-16.667 0 -28.5 3.16699 -35.5 9.5s-10.5 16.166 -10.5 29.499c0 8.66699 1.66699 19.667 5 33l66 281c4.66699 18 7 33.667 7 47c0 18.667 -5.5 31.334 -16.5 38.001s-29.833 10 -56.5 10c-30 0 -54.167 -8.83301 -72.5 -26.5s-31.166 -42.167 -38.499 -73.5z
" />
    <glyph glyph-name="idieresis" unicode="&#x43f;" horiz-adv-x="542" 
d="M208 348l-68.001 -288.999c-2 -8 -3 -14.333 -3 -19c0 -12 8.33301 -20 25 -24l-3 -16h-97c-16.667 0 -28.5 3.16699 -35.5 9.5s-10.5 16.166 -10.5 29.499c0 8.66699 1.66699 19.667 5 33l97 413c1.33301 8 2 13.667 2 17c0 12 -7.33301 19.667 -22 23l4 15h98
c28 0 42 -11.333 42 -34c0 -4.66699 -1.33301 -13.667 -4 -27h8l35 42c14 10.667 28 18 42 22s36.667 6 68 6c45.333 0 78.5 -8.5 99.5 -25.5s31.5 -43.167 31.5 -78.5c0 -17.333 -2.66699 -38.333 -8 -63l-76 -323c-2 -8 -3 -14.333 -3 -19c0 -12 8.33301 -20 25 -24
l-3 -16h-97c-16.667 0 -28.5 3.16699 -35.5 9.5s-10.5 16.166 -10.5 29.499c0 8.66699 1.66699 19.667 5 33l66 281c4.66699 18 7 33.667 7 47c0 18.667 -5.5 31.334 -16.5 38.001s-29.833 10 -56.5 10c-30 0 -54.167 -8.83301 -72.5 -26.5s-31.166 -42.167 -38.499 -73.5z
" />
    <glyph glyph-name="eth" unicode="&#xf0;" horiz-adv-x="555" 
d="M161 100l55.001 0.000976562c51.333 0 87.666 11 108.999 33s41 70 59 144c9.33301 40.667 14 72 14 94c0 51.333 -24.667 77 -74 77c-28.667 0 -51.167 -7.83301 -67.5 -23.5s-29.5 -44.834 -39.5 -87.501zM-1.99902 -74.999l131.001 560.001c1.33301 8 2 13.667 2 17
c0 12 -7.33301 19.667 -22 23l4 15h98c15.333 0 26.166 -3 32.499 -9s9.5 -15 9.5 -27c0 -6.66699 -1 -14 -3 -22h8l39 48c10 7.33301 21.333 12.333 34 15s28.667 4 48 4c99.333 0 149 -55.667 149 -167c0 -32 -4.66699 -69.667 -14 -113
c-24 -108.667 -56.667 -181.667 -98 -219c-36.667 -33.333 -96 -50 -178 -50h-101l-20 -88c-2 -8 -3 -14.333 -3 -19c0 -12 8.33301 -20 25 -24l-3 -16h-97c-16.667 0 -28.5 3.16699 -35.5 9.5s-10.5 16.166 -10.5 29.499c0 8.66699 1.66699 19.667 5 33z" />
    <glyph glyph-name="eth" unicode="&#x440;" horiz-adv-x="555" 
d="M161 100l55.001 0.000976562c51.333 0 87.666 11 108.999 33s41 70 59 144c9.33301 40.667 14 72 14 94c0 51.333 -24.667 77 -74 77c-28.667 0 -51.167 -7.83301 -67.5 -23.5s-29.5 -44.834 -39.5 -87.501zM-1.99902 -74.999l131.001 560.001c1.33301 8 2 13.667 2 17
c0 12 -7.33301 19.667 -22 23l4 15h98c15.333 0 26.166 -3 32.499 -9s9.5 -15 9.5 -27c0 -6.66699 -1 -14 -3 -22h8l39 48c10 7.33301 21.333 12.333 34 15s28.667 4 48 4c99.333 0 149 -55.667 149 -167c0 -32 -4.66699 -69.667 -14 -113
c-24 -108.667 -56.667 -181.667 -98 -219c-36.667 -33.333 -96 -50 -178 -50h-101l-20 -88c-2 -8 -3 -14.333 -3 -19c0 -12 8.33301 -20 25 -24l-3 -16h-97c-16.667 0 -28.5 3.16699 -35.5 9.5s-10.5 16.166 -10.5 29.499c0 8.66699 1.66699 19.667 5 33z" />
    <glyph glyph-name="ntilde" unicode="&#xf1;" horiz-adv-x="482" 
d="M308 444c-35.333 0 -62.666 -11.333 -81.999 -34c-22 -25.333 -40.667 -71.333 -56 -138c-11.333 -48.667 -17 -84.667 -17 -108c0 -26.667 6.66699 -45 20 -55s35.666 -15 66.999 -15h63c26 0 44.667 1.5 56 4.5s22 10.167 32 21.5h14l-13 -54
c-6.66699 -28 -19.167 -47.167 -37.5 -57.5s-50.166 -15.5 -95.499 -15.5h-64c-54.667 0 -96 12 -124 36c-31.333 26.667 -47 69 -47 127c0 29.333 4.66699 65.333 14 108c24 104 59.667 178.667 107 224c36 34.667 77.667 52 125 52h192l-15 -63
c-4.66699 -22 -19.334 -33 -44.001 -33h-95z" />
    <glyph glyph-name="ntilde" unicode="&#x441;" horiz-adv-x="482" 
d="M308 444c-35.333 0 -62.666 -11.333 -81.999 -34c-22 -25.333 -40.667 -71.333 -56 -138c-11.333 -48.667 -17 -84.667 -17 -108c0 -26.667 6.66699 -45 20 -55s35.666 -15 66.999 -15h63c26 0 44.667 1.5 56 4.5s22 10.167 32 21.5h14l-13 -54
c-6.66699 -28 -19.167 -47.167 -37.5 -57.5s-50.166 -15.5 -95.499 -15.5h-64c-54.667 0 -96 12 -124 36c-31.333 26.667 -47 69 -47 127c0 29.333 4.66699 65.333 14 108c24 104 59.667 178.667 107 224c36 34.667 77.667 52 125 52h192l-15 -63
c-4.66699 -22 -19.334 -33 -44.001 -33h-95z" />
    <glyph glyph-name="ograve" unicode="&#xf2;" horiz-adv-x="817" 
d="M208 352l-69.0039 -292.998c-2 -8 -3 -14.333 -3 -19c0 -12 8.33301 -20 25 -24l-3 -16h-97c-16.667 0 -28.5 3.16699 -35.5 9.5s-10.5 16.166 -10.5 29.499c0 8.66699 1.66699 19.667 5 33l97 413c1.33301 8 2 13.667 2 17c0 12 -7.33301 19.667 -22 23l4 15h98
c14.667 0 25.334 -3 32.001 -9s10 -14.667 10 -26c0 -4.66699 -1.33301 -14.334 -4 -29.001h7l38 48c11.333 8 25.833 14.167 43.5 18.5s41.834 6.5 72.501 6.5c32.667 0 57.5 -5.83301 74.5 -17.5s28.833 -30.5 35.5 -56.5l42 49c14.667 9.33301 27.667 15.333 39 18
c18 4.66699 45.333 7 82 7c39.333 0 68.333 -9.66699 87 -29s28 -46.333 28 -81c0 -19.333 -2.33301 -38.333 -7 -57l-76 -323c-2 -8 -3 -14.333 -3 -19c0 -12 8.33301 -20 25 -24l-3 -16h-97c-16.667 0 -28.5 3.16699 -35.5 9.5s-10.5 16.166 -10.5 29.499
c0 8.66699 1.66699 19.667 5 33l72 306c2.66699 10 4 19.333 4 28c0 28 -19.333 42 -58 42c-33.333 0 -58.166 -6.66699 -74.499 -20s-28.833 -38.666 -37.5 -75.999l-69 -293c-2 -8 -3 -14.333 -3 -19c0 -12 8.33301 -20 25 -24l-3 -16h-97
c-16.667 0 -28.5 3.16699 -35.5 9.5s-10.5 16.166 -10.5 29.499c0 8.66699 1.66699 19.667 5 33l72 306c2.66699 10 4 19.333 4 28c0 28 -19.333 42 -58 42c-33.333 0 -58.166 -6.66699 -74.499 -20s-28.833 -38.666 -37.5 -75.999z" />
    <glyph glyph-name="ograve" unicode="&#x442;" horiz-adv-x="817" 
d="M208 352l-69.0039 -292.998c-2 -8 -3 -14.333 -3 -19c0 -12 8.33301 -20 25 -24l-3 -16h-97c-16.667 0 -28.5 3.16699 -35.5 9.5s-10.5 16.166 -10.5 29.499c0 8.66699 1.66699 19.667 5 33l97 413c1.33301 8 2 13.667 2 17c0 12 -7.33301 19.667 -22 23l4 15h98
c14.667 0 25.334 -3 32.001 -9s10 -14.667 10 -26c0 -4.66699 -1.33301 -14.334 -4 -29.001h7l38 48c11.333 8 25.833 14.167 43.5 18.5s41.834 6.5 72.501 6.5c32.667 0 57.5 -5.83301 74.5 -17.5s28.833 -30.5 35.5 -56.5l42 49c14.667 9.33301 27.667 15.333 39 18
c18 4.66699 45.333 7 82 7c39.333 0 68.333 -9.66699 87 -29s28 -46.333 28 -81c0 -19.333 -2.33301 -38.333 -7 -57l-76 -323c-2 -8 -3 -14.333 -3 -19c0 -12 8.33301 -20 25 -24l-3 -16h-97c-16.667 0 -28.5 3.16699 -35.5 9.5s-10.5 16.166 -10.5 29.499
c0 8.66699 1.66699 19.667 5 33l72 306c2.66699 10 4 19.333 4 28c0 28 -19.333 42 -58 42c-33.333 0 -58.166 -6.66699 -74.499 -20s-28.833 -38.666 -37.5 -75.999l-69 -293c-2 -8 -3 -14.333 -3 -19c0 -12 8.33301 -20 25 -24l-3 -16h-97
c-16.667 0 -28.5 3.16699 -35.5 9.5s-10.5 16.166 -10.5 29.499c0 8.66699 1.66699 19.667 5 33l72 306c2.66699 10 4 19.333 4 28c0 28 -19.333 42 -58 42c-33.333 0 -58.166 -6.66699 -74.499 -20s-28.833 -38.666 -37.5 -75.999z" />
    <glyph glyph-name="oacute" unicode="&#xf3;" horiz-adv-x="550" 
d="M349 220l61.998 265.004c1.33301 8 2 13.667 2 17c0 12 -7.33301 19.667 -22 23l4 15h98c14.667 0 25.334 -3 32.001 -9s10 -14.667 10 -26c0 -4.66699 -1.33301 -14.334 -4 -29.001l-105 -452c-12.667 -54.667 -33.334 -95.667 -62.001 -123
c-33.333 -32 -80 -48 -140 -48h-149c-24.667 0 -43.667 3.66699 -57 11s-20 20.666 -20 39.999c0 4 1.33301 12.667 4 26l14 58h12c4 -10.667 10.167 -19 18.5 -25s20.5 -9 36.5 -9h120c30 0 53.5 7.16699 70.5 21.5s29.167 38.166 36.5 71.499l11 54h-7l-41 -56
c-12 -9.33301 -25.167 -15.833 -39.5 -19.5s-36.833 -5.5 -67.5 -5.5c-44 0 -76.5 9.83301 -97.5 29.5s-31.5 47.5 -31.5 83.5c0 20 3 42 9 66l67 286c1.33301 8 2 13.667 2 17c0 12 -7.33301 19.667 -22 23l4 15h98c14.667 0 25.334 -3 32.001 -9s10 -14.667 10 -26
c0 -4.66699 -1.33301 -14.334 -4 -29.001l-61 -260c-4.66699 -19.333 -7 -36 -7 -50c0 -18 5.33301 -29.833 16 -35.5s29.334 -8.5 56.001 -8.5c32 0 56.833 8.5 74.5 25.5s30.167 41.167 37.5 72.5z" />
    <glyph glyph-name="oacute" unicode="&#x443;" horiz-adv-x="550" 
d="M349 220l61.998 265.004c1.33301 8 2 13.667 2 17c0 12 -7.33301 19.667 -22 23l4 15h98c14.667 0 25.334 -3 32.001 -9s10 -14.667 10 -26c0 -4.66699 -1.33301 -14.334 -4 -29.001l-105 -452c-12.667 -54.667 -33.334 -95.667 -62.001 -123
c-33.333 -32 -80 -48 -140 -48h-149c-24.667 0 -43.667 3.66699 -57 11s-20 20.666 -20 39.999c0 4 1.33301 12.667 4 26l14 58h12c4 -10.667 10.167 -19 18.5 -25s20.5 -9 36.5 -9h120c30 0 53.5 7.16699 70.5 21.5s29.167 38.166 36.5 71.499l11 54h-7l-41 -56
c-12 -9.33301 -25.167 -15.833 -39.5 -19.5s-36.833 -5.5 -67.5 -5.5c-44 0 -76.5 9.83301 -97.5 29.5s-31.5 47.5 -31.5 83.5c0 20 3 42 9 66l67 286c1.33301 8 2 13.667 2 17c0 12 -7.33301 19.667 -22 23l4 15h98c14.667 0 25.334 -3 32.001 -9s10 -14.667 10 -26
c0 -4.66699 -1.33301 -14.334 -4 -29.001l-61 -260c-4.66699 -19.333 -7 -36 -7 -50c0 -18 5.33301 -29.833 16 -35.5s29.334 -8.5 56.001 -8.5c32 0 56.833 8.5 74.5 25.5s30.167 41.167 37.5 72.5z" />
    <glyph glyph-name="ocircumflex" unicode="&#xf4;" horiz-adv-x="794" 
d="M381 444l-56.001 -0.000976562c-40 0 -71.667 -12 -95 -36c-25.333 -26.667 -45.666 -71.334 -60.999 -134.001c-6 -26 -10.667 -48.667 -14 -68s-5 -35.666 -5 -48.999c0 -23.333 5 -39.666 15 -48.999s26.333 -14 49 -14c34 0 58.333 7.33301 73 22s27 43 37 85z
M401.999 539.999l23.9961 96.002c1.33301 8 2 13.667 2 17c0 12 -7.33301 19.667 -22 23l4 15h98c14.667 0 25.334 -3 32.001 -9s10 -14.667 10 -26c0 -4.66699 -1.33301 -14.334 -4 -29.001l-21 -87h64c54.667 0 98.834 -16.5 132.501 -49.5s50.5 -79.833 50.5 -140.5
c0 -16.667 -0.666992 -31 -2 -43s-4.33301 -27 -9 -45c-24.667 -105.333 -58 -178 -100 -218c-35.333 -34 -84.666 -51 -147.999 -51c-24 0 -43.5 6.16699 -58.5 18.5s-25.5 32.5 -31.5 60.5h-8l-38 -160c-2 -8 -3 -14.333 -3 -19c0 -12 8.33301 -20 25 -24l-3 -16h-97
c-16.667 0 -28.5 3.16699 -35.5 9.5s-10.5 16.166 -10.5 29.499c0 8.66699 1.66699 19.667 5 33l35 147h-7l-44 -56c-17.333 -11.333 -31.5 -18 -42.5 -20s-27.167 -3 -48.5 -3c-87.333 0 -131 48.667 -131 146c0 38 6.33301 83.333 19 136
c24.667 105.333 64.334 178.333 119.001 219c41.333 30.667 96 46 164 46h80zM553.995 444.001l-52 -0.00195312l-57 -243c-2.66699 -11.333 -4.66699 -21.166 -6 -29.499s-2 -16.833 -2 -25.5c0 -18 4.16699 -31.167 12.5 -39.5s20.833 -12.5 37.5 -12.5
c39.333 0 68.833 11.333 88.5 34s38.167 70.334 55.5 143.001c7.33301 30 11 57.667 11 83c0 60 -29.333 90 -88 90z" />
    <glyph glyph-name="ocircumflex" unicode="&#x444;" horiz-adv-x="794" 
d="M381 444l-56.001 -0.000976562c-40 0 -71.667 -12 -95 -36c-25.333 -26.667 -45.666 -71.334 -60.999 -134.001c-6 -26 -10.667 -48.667 -14 -68s-5 -35.666 -5 -48.999c0 -23.333 5 -39.666 15 -48.999s26.333 -14 49 -14c34 0 58.333 7.33301 73 22s27 43 37 85z
M401.999 539.999l23.9961 96.002c1.33301 8 2 13.667 2 17c0 12 -7.33301 19.667 -22 23l4 15h98c14.667 0 25.334 -3 32.001 -9s10 -14.667 10 -26c0 -4.66699 -1.33301 -14.334 -4 -29.001l-21 -87h64c54.667 0 98.834 -16.5 132.501 -49.5s50.5 -79.833 50.5 -140.5
c0 -16.667 -0.666992 -31 -2 -43s-4.33301 -27 -9 -45c-24.667 -105.333 -58 -178 -100 -218c-35.333 -34 -84.666 -51 -147.999 -51c-24 0 -43.5 6.16699 -58.5 18.5s-25.5 32.5 -31.5 60.5h-8l-38 -160c-2 -8 -3 -14.333 -3 -19c0 -12 8.33301 -20 25 -24l-3 -16h-97
c-16.667 0 -28.5 3.16699 -35.5 9.5s-10.5 16.166 -10.5 29.499c0 8.66699 1.66699 19.667 5 33l35 147h-7l-44 -56c-17.333 -11.333 -31.5 -18 -42.5 -20s-27.167 -3 -48.5 -3c-87.333 0 -131 48.667 -131 146c0 38 6.33301 83.333 19 136
c24.667 105.333 64.334 178.333 119.001 219c41.333 30.667 96 46 164 46h80zM553.995 444.001l-52 -0.00195312l-57 -243c-2.66699 -11.333 -4.66699 -21.166 -6 -29.499s-2 -16.833 -2 -25.5c0 -18 4.16699 -31.167 12.5 -39.5s20.833 -12.5 37.5 -12.5
c39.333 0 68.833 11.333 88.5 34s38.167 70.334 55.5 143.001c7.33301 30 11 57.667 11 83c0 60 -29.333 90 -88 90z" />
    <glyph glyph-name="otilde" unicode="&#xf5;" horiz-adv-x="513" 
d="M196 288l-84.001 192.999c-6 14.667 -11 24.334 -15 29.001c-6.66699 8 -16 12.667 -28 14l5 16h96c16.667 0 28.834 -2.83301 36.501 -8.5s15.167 -17.167 22.5 -34.5l49 -112l89 100c8 9.33301 12 17.333 12 24c0 8 -6.33301 13 -19 15l4 16h124c17.333 0 26 -6 26 -18
c0 -8 -4.66699 -17.333 -14 -28l-178 -206l110 -248c4 -9.33301 7.66699 -15.333 11 -18s10.333 -4.66699 21 -6l-4 -16h-98c-16 0 -28 3.16699 -36 9.5s-15.667 17.833 -23 34.5l-64 148l-118 -137c-6.66699 -7.33301 -10 -14.333 -10 -21
c0 -9.33301 7.33301 -15.333 22 -18l-5 -16h-126c-7.33301 0 -13 2 -17 6s-6 9 -6 15c0 8 2.33301 14.333 7 19z" />
    <glyph glyph-name="otilde" unicode="&#x445;" horiz-adv-x="513" 
d="M196 288l-84.001 192.999c-6 14.667 -11 24.334 -15 29.001c-6.66699 8 -16 12.667 -28 14l5 16h96c16.667 0 28.834 -2.83301 36.501 -8.5s15.167 -17.167 22.5 -34.5l49 -112l89 100c8 9.33301 12 17.333 12 24c0 8 -6.33301 13 -19 15l4 16h124c17.333 0 26 -6 26 -18
c0 -8 -4.66699 -17.333 -14 -28l-178 -206l110 -248c4 -9.33301 7.66699 -15.333 11 -18s10.333 -4.66699 21 -6l-4 -16h-98c-16 0 -28 3.16699 -36 9.5s-15.667 17.833 -23 34.5l-64 148l-118 -137c-6.66699 -7.33301 -10 -14.333 -10 -21
c0 -9.33301 7.33301 -15.333 22 -18l-5 -16h-126c-7.33301 0 -13 2 -17 6s-6 9 -6 15c0 8 2.33301 14.333 7 19z" />
    <glyph glyph-name="odieresis" unicode="&#xf6;" horiz-adv-x="550" 
d="M314 72l-7.00293 0.00195312l-41 -56c-12 -9.33301 -25.167 -15.833 -39.5 -19.5s-36.833 -5.5 -67.5 -5.5c-44 0 -76.5 9.83301 -97.5 29.5s-31.5 47.5 -31.5 83.5c0 20 3 42 9 66l74 315c1.33301 8 2 13.667 2 17c0 12 -7.33301 19.667 -22 23l4 15h98
c14.667 0 25.334 -3 32.001 -9s10 -14.667 10 -26c0 -4.66699 -1.33301 -14.334 -4 -29.001l-68 -289c-4.66699 -19.333 -7 -36 -7 -50c0 -18 5.33301 -29.833 16 -35.5s29.334 -8.5 56.001 -8.5c32 0 56.833 8.5 74.5 25.5s30.167 41.167 37.5 72.5l69 294
c1.33301 8 2 13.667 2 17c0 12 -7.33301 19.667 -22 23l4 15h98c14.667 0 25.334 -3 32.001 -9s10 -14.667 10 -26c0 -4.66699 -1.33301 -14.334 -4 -29.001l-73 -310c-7.33301 -31.333 -11 -53.333 -11 -66c0 -18.667 11 -28 33 -28c10.667 0 24.667 1 42 3l-42 -179
c-4 -16.667 -9.33301 -28 -16 -34s-18 -9 -34 -9h-29c-24 0 -36 7.33301 -36 22c0 8.66699 3 22 9 40l26 76c-26 0 -46.333 6 -61 18c-16.667 14 -25 35 -25 63z" />
    <glyph glyph-name="odieresis" unicode="&#x446;" horiz-adv-x="550" 
d="M314 72l-7.00293 0.00195312l-41 -56c-12 -9.33301 -25.167 -15.833 -39.5 -19.5s-36.833 -5.5 -67.5 -5.5c-44 0 -76.5 9.83301 -97.5 29.5s-31.5 47.5 -31.5 83.5c0 20 3 42 9 66l74 315c1.33301 8 2 13.667 2 17c0 12 -7.33301 19.667 -22 23l4 15h98
c14.667 0 25.334 -3 32.001 -9s10 -14.667 10 -26c0 -4.66699 -1.33301 -14.334 -4 -29.001l-68 -289c-4.66699 -19.333 -7 -36 -7 -50c0 -18 5.33301 -29.833 16 -35.5s29.334 -8.5 56.001 -8.5c32 0 56.833 8.5 74.5 25.5s30.167 41.167 37.5 72.5l69 294
c1.33301 8 2 13.667 2 17c0 12 -7.33301 19.667 -22 23l4 15h98c14.667 0 25.334 -3 32.001 -9s10 -14.667 10 -26c0 -4.66699 -1.33301 -14.334 -4 -29.001l-73 -310c-7.33301 -31.333 -11 -53.333 -11 -66c0 -18.667 11 -28 33 -28c10.667 0 24.667 1 42 3l-42 -179
c-4 -16.667 -9.33301 -28 -16 -34s-18 -9 -34 -9h-29c-24 0 -36 7.33301 -36 22c0 8.66699 3 22 9 40l26 76c-26 0 -46.333 6 -61 18c-16.667 14 -25 35 -25 63z" />
    <glyph glyph-name="divide" unicode="&#xf7;" horiz-adv-x="537" 
d="M515 476l-98.002 -416.996c-2 -8 -3 -14.333 -3 -19c0 -12 8.33301 -20 25 -24l-3 -16h-97c-16.667 0 -28.5 3.16699 -35.5 9.5s-10.5 16.166 -10.5 29.499c0 8.66699 1.66699 19.667 5 33l35 147h-137c-40 0 -70.333 7.66699 -91 23c-23.333 17.333 -35 43.333 -35 78
c0 14 2 30 6 48l27 117c1.33301 8 2 13.667 2 17c0 12 -7.33301 19.667 -22 23l4 15h98c14.667 0 25.334 -3 32.001 -9s10 -14.667 10 -26c0 -4.66699 -1.33301 -14.334 -4 -29.001l-22 -97c-2.66699 -10.667 -4 -20.334 -4 -29.001c0 -12.667 4.16699 -21.667 12.5 -27
s22.5 -8 42.5 -8h104l39 170c1.33301 8 2 13.667 2 17c0 12 -7.33301 19.667 -22 23l4 15h98c14.667 0 25.334 -3 32.001 -9s10 -14.667 10 -26c0 -4.66699 -1.33301 -14.334 -4 -29.001z" />
    <glyph glyph-name="divide" unicode="&#x447;" horiz-adv-x="537" 
d="M515 476l-98.002 -416.996c-2 -8 -3 -14.333 -3 -19c0 -12 8.33301 -20 25 -24l-3 -16h-97c-16.667 0 -28.5 3.16699 -35.5 9.5s-10.5 16.166 -10.5 29.499c0 8.66699 1.66699 19.667 5 33l35 147h-137c-40 0 -70.333 7.66699 -91 23c-23.333 17.333 -35 43.333 -35 78
c0 14 2 30 6 48l27 117c1.33301 8 2 13.667 2 17c0 12 -7.33301 19.667 -22 23l4 15h98c14.667 0 25.334 -3 32.001 -9s10 -14.667 10 -26c0 -4.66699 -1.33301 -14.334 -4 -29.001l-22 -97c-2.66699 -10.667 -4 -20.334 -4 -29.001c0 -12.667 4.16699 -21.667 12.5 -27
s22.5 -8 42.5 -8h104l39 170c1.33301 8 2 13.667 2 17c0 12 -7.33301 19.667 -22 23l4 15h98c14.667 0 25.334 -3 32.001 -9s10 -14.667 10 -26c0 -4.66699 -1.33301 -14.334 -4 -29.001z" />
    <glyph glyph-name="oslash" unicode="&#xf8;" horiz-adv-x="811" 
d="M598 188l70.002 297.006c1.33301 8 2 13.667 2 17c0 12 -7.33301 19.667 -22 23l4 15h98c14.667 0 25.334 -3 32.001 -9s10 -14.667 10 -26c0 -4.66699 -1.33301 -14.334 -4 -29.001l-98 -417c-2 -8 -3 -14.333 -3 -19c0 -12 8.33301 -20 25 -24l-3 -16h-97
c-16.667 0 -28.5 3.16699 -35.5 9.5s-10.5 16.166 -10.5 29.499c0 8.66699 1.66699 19.667 5 33h-8l-39 -56c-11.333 -8 -25.833 -14.167 -43.5 -18.5s-41.834 -6.5 -72.501 -6.5c-32.667 0 -57.5 5.83301 -74.5 17.5s-28.833 30.5 -35.5 56.5l-42 -49
c-14.667 -9.33301 -29.334 -15.833 -44.001 -19.5s-40.334 -5.5 -77.001 -5.5c-39.333 0 -68.333 9.66699 -87 29s-28 46.333 -28 81c0 19.333 2.33301 38.333 7 57l77 327c1.33301 8 2 13.667 2 17c0 12 -7.33301 19.667 -22 23l4 15h98c14.667 0 25.334 -3 32.001 -9
s10 -14.667 10 -26c0 -4.66699 -1.33301 -14.334 -4 -29.001l-74 -314c-2.66699 -10 -4 -19.333 -4 -28c0 -28 19.333 -42 58 -42c33.333 0 58.166 6.66699 74.499 20s28.833 38.666 37.5 75.999l70 297c1.33301 8 2 13.667 2 17c0 12 -7.33301 19.667 -22 23l4 15h98
c14.667 0 25.334 -3 32.001 -9s10 -14.667 10 -26c0 -4.66699 -1.33301 -14.334 -4 -29.001l-74 -314c-2.66699 -10 -4 -19.333 -4 -28c0 -28 19.333 -42 58 -42c33.333 0 58.166 6.66699 74.499 20s28.833 38.666 37.5 75.999z" />
    <glyph glyph-name="oslash" unicode="&#x448;" horiz-adv-x="811" 
d="M598 188l70.002 297.006c1.33301 8 2 13.667 2 17c0 12 -7.33301 19.667 -22 23l4 15h98c14.667 0 25.334 -3 32.001 -9s10 -14.667 10 -26c0 -4.66699 -1.33301 -14.334 -4 -29.001l-98 -417c-2 -8 -3 -14.333 -3 -19c0 -12 8.33301 -20 25 -24l-3 -16h-97
c-16.667 0 -28.5 3.16699 -35.5 9.5s-10.5 16.166 -10.5 29.499c0 8.66699 1.66699 19.667 5 33h-8l-39 -56c-11.333 -8 -25.833 -14.167 -43.5 -18.5s-41.834 -6.5 -72.501 -6.5c-32.667 0 -57.5 5.83301 -74.5 17.5s-28.833 30.5 -35.5 56.5l-42 -49
c-14.667 -9.33301 -29.334 -15.833 -44.001 -19.5s-40.334 -5.5 -77.001 -5.5c-39.333 0 -68.333 9.66699 -87 29s-28 46.333 -28 81c0 19.333 2.33301 38.333 7 57l77 327c1.33301 8 2 13.667 2 17c0 12 -7.33301 19.667 -22 23l4 15h98c14.667 0 25.334 -3 32.001 -9
s10 -14.667 10 -26c0 -4.66699 -1.33301 -14.334 -4 -29.001l-74 -314c-2.66699 -10 -4 -19.333 -4 -28c0 -28 19.333 -42 58 -42c33.333 0 58.166 6.66699 74.499 20s28.833 38.666 37.5 75.999l70 297c1.33301 8 2 13.667 2 17c0 12 -7.33301 19.667 -22 23l4 15h98
c14.667 0 25.334 -3 32.001 -9s10 -14.667 10 -26c0 -4.66699 -1.33301 -14.334 -4 -29.001l-74 -314c-2.66699 -10 -4 -19.333 -4 -28c0 -28 19.333 -42 58 -42c33.333 0 58.166 6.66699 74.499 20s28.833 38.666 37.5 75.999z" />
    <glyph glyph-name="ugrave" unicode="&#xf9;" horiz-adv-x="811" 
d="M598 188l70.002 297.005c1.33301 8 2 13.667 2 17c0 12 -7.33301 19.667 -22 23l4 15h98c14.667 0 25.334 -3 32.001 -9s10 -14.667 10 -26c0 -4.66699 -1.33301 -14.334 -4 -29.001l-73 -310c-7.33301 -31.333 -11 -53.333 -11 -66c0 -18.667 11 -28 33 -28
c10.667 0 24.667 1 42 3l-42 -179c-4 -16.667 -9.33301 -28 -16 -34s-18 -9 -34 -9h-29c-24 0 -36 7.33301 -36 22c0 8.66699 3 22 9 40l26 76c-26 0 -46.333 6 -61 18c-16.667 14 -25 35 -25 63h-8l-39 -56c-11.333 -8 -25.833 -14.167 -43.5 -18.5
s-41.834 -6.5 -72.501 -6.5c-32.667 0 -57.5 5.83301 -74.5 17.5s-28.833 30.5 -35.5 56.5l-42 -49c-14.667 -9.33301 -29.334 -15.833 -44.001 -19.5s-40.334 -5.5 -77.001 -5.5c-39.333 0 -68.333 9.66699 -87 29s-28 46.333 -28 81c0 19.333 2.33301 38.333 7 57l77 327
c1.33301 8 2 13.667 2 17c0 12 -7.33301 19.667 -22 23l4 15h98c14.667 0 25.334 -3 32.001 -9s10 -14.667 10 -26c0 -4.66699 -1.33301 -14.334 -4 -29.001l-74 -314c-2.66699 -10 -4 -19.333 -4 -28c0 -28 19.333 -42 58 -42c33.333 0 58.166 6.66699 74.499 20
s28.833 38.666 37.5 75.999l70 297c1.33301 8 2 13.667 2 17c0 12 -7.33301 19.667 -22 23l4 15h98c14.667 0 25.334 -3 32.001 -9s10 -14.667 10 -26c0 -4.66699 -1.33301 -14.334 -4 -29.001l-74 -314c-2.66699 -10 -4 -19.333 -4 -28c0 -28 19.333 -42 58 -42
c33.333 0 58.166 6.66699 74.499 20s28.833 38.666 37.5 75.999z" />
    <glyph glyph-name="ugrave" unicode="&#x449;" horiz-adv-x="811" 
d="M598 188l70.002 297.005c1.33301 8 2 13.667 2 17c0 12 -7.33301 19.667 -22 23l4 15h98c14.667 0 25.334 -3 32.001 -9s10 -14.667 10 -26c0 -4.66699 -1.33301 -14.334 -4 -29.001l-73 -310c-7.33301 -31.333 -11 -53.333 -11 -66c0 -18.667 11 -28 33 -28
c10.667 0 24.667 1 42 3l-42 -179c-4 -16.667 -9.33301 -28 -16 -34s-18 -9 -34 -9h-29c-24 0 -36 7.33301 -36 22c0 8.66699 3 22 9 40l26 76c-26 0 -46.333 6 -61 18c-16.667 14 -25 35 -25 63h-8l-39 -56c-11.333 -8 -25.833 -14.167 -43.5 -18.5
s-41.834 -6.5 -72.501 -6.5c-32.667 0 -57.5 5.83301 -74.5 17.5s-28.833 30.5 -35.5 56.5l-42 -49c-14.667 -9.33301 -29.334 -15.833 -44.001 -19.5s-40.334 -5.5 -77.001 -5.5c-39.333 0 -68.333 9.66699 -87 29s-28 46.333 -28 81c0 19.333 2.33301 38.333 7 57l77 327
c1.33301 8 2 13.667 2 17c0 12 -7.33301 19.667 -22 23l4 15h98c14.667 0 25.334 -3 32.001 -9s10 -14.667 10 -26c0 -4.66699 -1.33301 -14.334 -4 -29.001l-74 -314c-2.66699 -10 -4 -19.333 -4 -28c0 -28 19.333 -42 58 -42c33.333 0 58.166 6.66699 74.499 20
s28.833 38.666 37.5 75.999l70 297c1.33301 8 2 13.667 2 17c0 12 -7.33301 19.667 -22 23l4 15h98c14.667 0 25.334 -3 32.001 -9s10 -14.667 10 -26c0 -4.66699 -1.33301 -14.334 -4 -29.001l-74 -314c-2.66699 -10 -4 -19.333 -4 -28c0 -28 19.333 -42 58 -42
c33.333 0 58.166 6.66699 74.499 20s28.833 38.666 37.5 75.999z" />
    <glyph glyph-name="uacute" unicode="&#xfa;" horiz-adv-x="488" 
d="M238 476l-32.0029 -137.998h82c52.667 0 93.334 -9.83301 122.001 -29.5s43 -50.167 43 -91.5c0 -18 -2.33301 -36.333 -7 -55c-16 -66 -40 -110.333 -72 -133c-27.333 -19.333 -72.666 -29 -135.999 -29h-176c-16.667 0 -28.5 3.16699 -35.5 9.5
s-10.5 16.166 -10.5 29.499c0 8.66699 1.66699 19.667 5 33l87 372h-58c-14 0 -24 1.83301 -30 5.5s-9 11.167 -9 22.5c0 4.66699 1 10.667 3 18l12 50h174c14.667 0 25.334 -3 32.001 -9s10 -14.667 10 -26c0 -4.66699 -1.33301 -14.334 -4 -29.001zM148.997 96.002
l75.999 -0.00292969c28.667 0 49.334 4 62.001 12c16 10.667 27.667 31.334 35 62.001c1.33301 4.66699 2.33301 9.83398 3 15.501s1 10.834 1 15.501c0 14 -5 24.333 -15 31s-27.333 10 -52 10h-75z" />
    <glyph glyph-name="uacute" unicode="&#x44a;" horiz-adv-x="488" 
d="M238 476l-32.0029 -137.998h82c52.667 0 93.334 -9.83301 122.001 -29.5s43 -50.167 43 -91.5c0 -18 -2.33301 -36.333 -7 -55c-16 -66 -40 -110.333 -72 -133c-27.333 -19.333 -72.666 -29 -135.999 -29h-176c-16.667 0 -28.5 3.16699 -35.5 9.5
s-10.5 16.166 -10.5 29.499c0 8.66699 1.66699 19.667 5 33l87 372h-58c-14 0 -24 1.83301 -30 5.5s-9 11.167 -9 22.5c0 4.66699 1 10.667 3 18l12 50h174c14.667 0 25.334 -3 32.001 -9s10 -14.667 10 -26c0 -4.66699 -1.33301 -14.334 -4 -29.001zM148.997 96.002
l75.999 -0.00292969c28.667 0 49.334 4 62.001 12c16 10.667 27.667 31.334 35 62.001c1.33301 4.66699 2.33301 9.83398 3 15.501s1 10.834 1 15.501c0 14 -5 24.333 -15 31s-27.333 10 -52 10h-75z" />
    <glyph glyph-name="ucircumflex" unicode="&#xfb;" horiz-adv-x="731" 
d="M238 476l-32.0029 -137.998h82c52.667 0 93.334 -9.83301 122.001 -29.5s43 -50.167 43 -91.5c0 -18 -2.33301 -36.333 -7 -55c-16 -66 -40 -110.333 -72 -133c-27.333 -19.333 -72.666 -29 -135.999 -29h-176c-16.667 0 -28.5 3.16699 -35.5 9.5
s-10.5 16.166 -10.5 29.499c0 8.66699 1.66699 19.667 5 33l97 413c1.33301 8 2 13.667 2 17c0 12 -7.33301 19.667 -22 23l4 15h98c14.667 0 25.334 -3 32.001 -9s10 -14.667 10 -26c0 -4.66699 -1.33301 -14.334 -4 -29.001zM148.997 96.002l75.999 -0.00292969
c28.667 0 49.334 4 62.001 12c16 10.667 27.667 31.334 35 62.001c1.33301 4.66699 2.33301 9.83398 3 15.501s1 10.834 1 15.501c0 14 -5 24.333 -15 31s-27.333 10 -52 10h-75zM712.996 475.999l-98.001 -416.998c-2 -8 -3 -14.333 -3 -19c0 -12 8.33301 -20 25 -24
l-3 -16h-97c-16.667 0 -28.5 3.16699 -35.5 9.5s-10.5 16.166 -10.5 29.499c0 8.66699 1.66699 19.667 5 33l97 413c1.33301 8 2 13.667 2 17c0 12 -7.33301 19.667 -22 23l4 15h98c14.667 0 25.334 -3 32.001 -9s10 -14.667 10 -26c0 -4.66699 -1.33301 -14.334 -4 -29.001
z" />
    <glyph glyph-name="ucircumflex" unicode="&#x44b;" horiz-adv-x="731" 
d="M238 476l-32.0029 -137.998h82c52.667 0 93.334 -9.83301 122.001 -29.5s43 -50.167 43 -91.5c0 -18 -2.33301 -36.333 -7 -55c-16 -66 -40 -110.333 -72 -133c-27.333 -19.333 -72.666 -29 -135.999 -29h-176c-16.667 0 -28.5 3.16699 -35.5 9.5
s-10.5 16.166 -10.5 29.499c0 8.66699 1.66699 19.667 5 33l97 413c1.33301 8 2 13.667 2 17c0 12 -7.33301 19.667 -22 23l4 15h98c14.667 0 25.334 -3 32.001 -9s10 -14.667 10 -26c0 -4.66699 -1.33301 -14.334 -4 -29.001zM148.997 96.002l75.999 -0.00292969
c28.667 0 49.334 4 62.001 12c16 10.667 27.667 31.334 35 62.001c1.33301 4.66699 2.33301 9.83398 3 15.501s1 10.834 1 15.501c0 14 -5 24.333 -15 31s-27.333 10 -52 10h-75zM712.996 475.999l-98.001 -416.998c-2 -8 -3 -14.333 -3 -19c0 -12 8.33301 -20 25 -24
l-3 -16h-97c-16.667 0 -28.5 3.16699 -35.5 9.5s-10.5 16.166 -10.5 29.499c0 8.66699 1.66699 19.667 5 33l97 413c1.33301 8 2 13.667 2 17c0 12 -7.33301 19.667 -22 23l4 15h98c14.667 0 25.334 -3 32.001 -9s10 -14.667 10 -26c0 -4.66699 -1.33301 -14.334 -4 -29.001
z" />
    <glyph glyph-name="udieresis" unicode="&#xfc;" horiz-adv-x="488" 
d="M238 476l-32.0029 -137.998h82c52.667 0 93.334 -9.83301 122.001 -29.5s43 -50.167 43 -91.5c0 -18 -2.33301 -36.333 -7 -55c-16 -66 -40 -110.333 -72 -133c-27.333 -19.333 -72.666 -29 -135.999 -29h-176c-16.667 0 -28.5 3.16699 -35.5 9.5
s-10.5 16.166 -10.5 29.499c0 8.66699 1.66699 19.667 5 33l97 413c1.33301 8 2 13.667 2 17c0 12 -7.33301 19.667 -22 23l4 15h98c14.667 0 25.334 -3 32.001 -9s10 -14.667 10 -26c0 -4.66699 -1.33301 -14.334 -4 -29.001zM148.997 96.002l75.999 -0.00292969
c28.667 0 49.334 4 62.001 12c16 10.667 27.667 31.334 35 62.001c1.33301 4.66699 2.33301 9.83398 3 15.501s1 10.834 1 15.501c0 14 -5 24.333 -15 31s-27.333 10 -52 10h-75z" />
    <glyph glyph-name="udieresis" unicode="&#x44c;" horiz-adv-x="488" 
d="M238 476l-32.0029 -137.998h82c52.667 0 93.334 -9.83301 122.001 -29.5s43 -50.167 43 -91.5c0 -18 -2.33301 -36.333 -7 -55c-16 -66 -40 -110.333 -72 -133c-27.333 -19.333 -72.666 -29 -135.999 -29h-176c-16.667 0 -28.5 3.16699 -35.5 9.5
s-10.5 16.166 -10.5 29.499c0 8.66699 1.66699 19.667 5 33l97 413c1.33301 8 2 13.667 2 17c0 12 -7.33301 19.667 -22 23l4 15h98c14.667 0 25.334 -3 32.001 -9s10 -14.667 10 -26c0 -4.66699 -1.33301 -14.334 -4 -29.001zM148.997 96.002l75.999 -0.00292969
c28.667 0 49.334 4 62.001 12c16 10.667 27.667 31.334 35 62.001c1.33301 4.66699 2.33301 9.83398 3 15.501s1 10.834 1 15.501c0 14 -5 24.333 -15 31s-27.333 10 -52 10h-75z" />
    <glyph glyph-name="yacute" unicode="&#xfd;" horiz-adv-x="470" 
d="M133 540h145c56 0 98.167 -12.167 126.5 -36.5s42.5 -64.833 42.5 -121.5c0 -31.333 -5 -69.666 -15 -114.999c-24 -102.667 -54.667 -174 -92 -214s-95 -60 -173 -60h-72c-24.667 0 -43.667 3.66699 -57 11s-20 20.666 -20 39.999c0 4 1.33301 12.667 4 26l14 58h12
c4 -10.667 10.167 -19 18.5 -25s20.5 -9 36.5 -9h71c32.667 0 57.667 10.667 75 32c15.333 18.667 30.333 54.667 45 108h-148c-14 0 -24 1.83301 -30 5.5s-9 11.167 -9 22.5c0 4.66699 1 10.667 3 18l12 50h196c3.33301 16.667 5 30 5 40c0 26 -7.33301 44.833 -22 56.5
s-35 17.5 -61 17.5h-83c-14 0 -24 1.83301 -30 5.5s-9 11.167 -9 22.5c0 4.66699 1 10.667 3 18z" />
    <glyph glyph-name="yacute" unicode="&#x44d;" horiz-adv-x="470" 
d="M133 540h145c56 0 98.167 -12.167 126.5 -36.5s42.5 -64.833 42.5 -121.5c0 -31.333 -5 -69.666 -15 -114.999c-24 -102.667 -54.667 -174 -92 -214s-95 -60 -173 -60h-72c-24.667 0 -43.667 3.66699 -57 11s-20 20.666 -20 39.999c0 4 1.33301 12.667 4 26l14 58h12
c4 -10.667 10.167 -19 18.5 -25s20.5 -9 36.5 -9h71c32.667 0 57.667 10.667 75 32c15.333 18.667 30.333 54.667 45 108h-148c-14 0 -24 1.83301 -30 5.5s-9 11.167 -9 22.5c0 4.66699 1 10.667 3 18l12 50h196c3.33301 16.667 5 30 5 40c0 26 -7.33301 44.833 -22 56.5
s-35 17.5 -61 17.5h-83c-14 0 -24 1.83301 -30 5.5s-9 11.167 -9 22.5c0 4.66699 1 10.667 3 18z" />
    <glyph glyph-name="thorn" unicode="&#xfe;" horiz-adv-x="768" 
d="M199 332l90.999 0.00292969c23.333 81.333 54.833 137.833 94.5 169.5s99.167 47.5 178.5 47.5c62 0 107.833 -15.333 137.5 -46s44.5 -74.667 44.5 -132c0 -30.667 -4.66699 -66.334 -14 -107.001c-26 -107.333 -59 -179.333 -99 -216s-102 -55 -186 -55
c-60.667 0 -106 13 -136 39c-32 28 -48 72.333 -48 133c0 21.333 2 45 6 71h-91l-42 -177c-2 -8 -3 -14.333 -3 -19c0 -12 8.33301 -20 25 -24l-3 -16h-97c-16.667 0 -28.5 3.16699 -35.5 9.5s-10.5 16.166 -10.5 29.499c0 8.66699 1.66699 19.667 5 33l97 413
c1.33301 8 2 13.667 2 17c0 12 -7.33301 19.667 -22 23l4 15h98c14.667 0 25.334 -3 32.001 -9s10 -14.667 10 -26c0 -4.66699 -1.33301 -14.334 -4 -29.001zM462.999 94.0029c36 0 63.334 11 82.001 33c21.333 24.667 41 73 59 145c10 40 15 73 15 99
c0 51.333 -25 77 -75 77c-37.333 0 -65 -10.333 -83 -31c-20.667 -23.333 -39.334 -70 -56.001 -140c-10.667 -48 -16 -83.667 -16 -107c0 -27.333 5.83301 -46.833 17.5 -58.5s30.5 -17.5 56.5 -17.5z" />
    <glyph glyph-name="thorn" unicode="&#x44e;" horiz-adv-x="768" 
d="M199 332l90.999 0.00292969c23.333 81.333 54.833 137.833 94.5 169.5s99.167 47.5 178.5 47.5c62 0 107.833 -15.333 137.5 -46s44.5 -74.667 44.5 -132c0 -30.667 -4.66699 -66.334 -14 -107.001c-26 -107.333 -59 -179.333 -99 -216s-102 -55 -186 -55
c-60.667 0 -106 13 -136 39c-32 28 -48 72.333 -48 133c0 21.333 2 45 6 71h-91l-42 -177c-2 -8 -3 -14.333 -3 -19c0 -12 8.33301 -20 25 -24l-3 -16h-97c-16.667 0 -28.5 3.16699 -35.5 9.5s-10.5 16.166 -10.5 29.499c0 8.66699 1.66699 19.667 5 33l97 413
c1.33301 8 2 13.667 2 17c0 12 -7.33301 19.667 -22 23l4 15h98c14.667 0 25.334 -3 32.001 -9s10 -14.667 10 -26c0 -4.66699 -1.33301 -14.334 -4 -29.001zM462.999 94.0029c36 0 63.334 11 82.001 33c21.333 24.667 41 73 59 145c10 40 15 73 15 99
c0 51.333 -25 77 -75 77c-37.333 0 -65 -10.333 -83 -31c-20.667 -23.333 -39.334 -70 -56.001 -140c-10.667 -48 -16 -83.667 -16 -107c0 -27.333 5.83301 -46.833 17.5 -58.5s30.5 -17.5 56.5 -17.5z" />
    <glyph glyph-name="ydieresis" unicode="&#xff;" horiz-adv-x="501" 
d="M39 96l97 119.999c-26 8 -46.5 22 -61.5 42s-22.5 45.667 -22.5 77c0 6 0.5 12.833 1.5 20.5s2.83301 18.5 5.5 32.5c13.333 56.667 34.5 96.167 63.5 118.5s72.833 33.5 131.5 33.5h185c16.667 0 28.5 -3.16699 35.5 -9.5s10.5 -16.166 10.5 -29.499
c0 -8.66699 -1.66699 -19.667 -5 -33l-96 -409c-2 -8 -3 -14.333 -3 -19c0 -12 8.33301 -20 25 -24l-3 -16h-97c-16.667 0 -28.5 3.16699 -35.5 9.5s-10.5 16.166 -10.5 29.499c0 8.66699 1.66699 19.667 5 33l30 130h-32l-130 -157
c-14.667 -17.333 -27.5 -29.166 -38.5 -35.499s-25.5 -9.5 -43.5 -9.5h-39c-14 -0 -24 1.83301 -30 5.5s-9 11.167 -9 22.5c0 4.66699 1 10.667 3 18l12 50h51zM352 443.999l-75.999 0.000976562c-28.667 0 -49.334 -4 -62.001 -12c-16 -10.667 -27.667 -31.334 -35 -62.001
c-2.66699 -10.667 -4 -21 -4 -31c0 -14 5 -24.333 15 -31s27.333 -10 52 -10h75z" />
    <glyph glyph-name="ydieresis" unicode="&#x44f;" horiz-adv-x="501" 
d="M39 96l97 119.999c-26 8 -46.5 22 -61.5 42s-22.5 45.667 -22.5 77c0 6 0.5 12.833 1.5 20.5s2.83301 18.5 5.5 32.5c13.333 56.667 34.5 96.167 63.5 118.5s72.833 33.5 131.5 33.5h185c16.667 0 28.5 -3.16699 35.5 -9.5s10.5 -16.166 10.5 -29.499
c0 -8.66699 -1.66699 -19.667 -5 -33l-96 -409c-2 -8 -3 -14.333 -3 -19c0 -12 8.33301 -20 25 -24l-3 -16h-97c-16.667 0 -28.5 3.16699 -35.5 9.5s-10.5 16.166 -10.5 29.499c0 8.66699 1.66699 19.667 5 33l30 130h-32l-130 -157
c-14.667 -17.333 -27.5 -29.166 -38.5 -35.499s-25.5 -9.5 -43.5 -9.5h-39c-14 -0 -24 1.83301 -30 5.5s-9 11.167 -9 22.5c0 4.66699 1 10.667 3 18l12 50h51zM352 443.999l-75.999 0.000976562c-28.667 0 -49.334 -4 -62.001 -12c-16 -10.667 -27.667 -31.334 -35 -62.001
c-2.66699 -10.667 -4 -21 -4 -31c0 -14 5 -24.333 15 -31s27.333 -10 52 -10h75z" />
    <glyph glyph-name="endash" unicode="&#x2013;" horiz-adv-x="556" 
d="M556 313v-73h-556v73h556z" />
    <glyph glyph-name="emdash" unicode="&#x2014;" horiz-adv-x="1000" 
d="M1000 313v-73h-1000v73h1000z" />
    <glyph glyph-name="quoteleft" unicode="&#x2018;" horiz-adv-x="205" 
d="M146 513l-86.001 0.000976562c-22 0 -33 8 -33 24c0 2.66699 0.666992 8.66699 2 18l18 78c8.66699 38.667 32 58 70 58h50c10.667 0 14.334 -7 11.001 -21l-6 -25h-50c-12 0 -19.333 -5.66699 -22 -17l-4 -17h34c20.667 0 31 -8.66699 31 -26
c0 -6.66699 -0.666992 -12.334 -2 -17.001z" />
    <glyph glyph-name="quoteright" unicode="&#x2019;" horiz-adv-x="208" 
d="M63 691l86.001 -0.000976562c22 0 33 -8 33 -24c0 -7.33301 -0.666992 -13.333 -2 -18l-18 -78c-8.66699 -38.667 -32 -58 -70 -58h-50c-10.667 0 -14.334 7 -11.001 21l6 25h50c12 0 19.333 5.66699 22 17l4 17h-34c-20.667 0 -31 8.66699 -31 26
c0 6.66699 0.666992 12.334 2 17.001z" />
    <glyph glyph-name="quotesinglbase" unicode="&#x201a;" horiz-adv-x="172" 
d="M40 98l86.001 -0.000976562c22 0 33 -8 33 -24c0 -7.33301 -0.666992 -13.333 -2 -18l-18 -78c-8.66699 -38.667 -32 -58 -70 -58h-50c-10.667 0 -14.334 7 -11.001 21l6 25h50c12 0 19.333 5.66699 22 17l4 17h-34c-20.667 0 -31 8.66699 -31 26
c0 6.66699 0.666992 12.334 2 17.001z" />
    <glyph glyph-name="quotedblleft" unicode="&#x201c;" horiz-adv-x="397" 
d="M338 513l-86.001 0.000976562c-22 0 -33 8 -33 24c0 2.66699 0.666992 8.66699 2 18l18 78c8.66699 38.667 32 58 70 58h50c10.667 0 14.334 -7 11.001 -21l-6 -25h-50c-12 0 -19.333 -5.66699 -22 -17l-4 -17h34c20.667 0 31 -8.66699 31 -26
c0 -6.66699 -0.666992 -12.334 -2 -17.001zM145.999 513.001l-86.001 0.000976562c-22 0 -33 8 -33 24c0 2.66699 0.666992 8.66699 2 18l18 78c8.66699 38.667 32 58 70 58h50c10.667 0 14.334 -7 11.001 -21l-6 -25h-50c-12 0 -19.333 -5.66699 -22 -17l-4 -17h34
c20.667 0 31 -8.66699 31 -26c0 -6.66699 -0.666992 -12.334 -2 -17.001z" />
    <glyph glyph-name="quotedblright" unicode="&#x201d;" horiz-adv-x="393" 
d="M63 691l86.001 -0.000976562c22 0 33 -8 33 -24c0 -7.33301 -0.666992 -13.333 -2 -18l-18 -78c-8.66699 -38.667 -32 -58 -70 -58h-50c-10.667 0 -14.334 7 -11.001 21l6 25h50c12 0 19.333 5.66699 22 17l4 17h-34c-20.667 0 -31 8.66699 -31 26
c0 6.66699 0.666992 12.334 2 17.001zM255.001 690.999l86.001 -0.000976562c22 0 33 -8 33 -24c0 -7.33301 -0.666992 -13.333 -2 -18l-18 -78c-8.66699 -38.667 -32 -58 -70 -58h-50c-10.667 0 -14.334 7 -11.001 21l6 25h50c12 0 19.333 5.66699 22 17l4 17h-34
c-20.667 0 -31 8.66699 -31 26c0 6.66699 0.666992 12.334 2 17.001z" />
    <glyph glyph-name="quotedblbase" unicode="&#x201e;" horiz-adv-x="369" 
d="M40 98l86.001 -0.000976562c22 0 33 -8 33 -24c0 -7.33301 -0.666992 -13.333 -2 -18l-18 -78c-8.66699 -38.667 -32 -58 -70 -58h-50c-10.667 0 -14.334 7 -11.001 21l6 25h50c12 0 19.333 5.66699 22 17l4 17h-34c-20.667 0 -31 8.66699 -31 26
c0 6.66699 0.666992 12.334 2 17.001zM232.001 97.999l86.001 -0.000976562c22 0 33 -8 33 -24c0 -7.33301 -0.666992 -13.333 -2 -18l-18 -78c-8.66699 -38.667 -32 -58 -70 -58h-50c-10.667 0 -14.334 7 -11.001 21l6 25h50c12 0 19.333 5.66699 22 17l4 17h-34
c-20.667 0 -31 8.66699 -31 26c0 6.66699 0.666992 12.334 2 17.001z" />
    <glyph glyph-name="bullet" unicode="&#x2022;" horiz-adv-x="350" 
d="M10 375c0 45.333 16.001 84 48.001 116s71 48 117 48s85 -15.667 117 -47s48 -70.333 48 -117s-16 -86 -48 -118s-71 -48 -117 -48c-46.667 0 -85.834 15.833 -117.501 47.5s-47.5 71.167 -47.5 118.5z" />
    <glyph glyph-name="ellipsis" unicode="&#x2026;" horiz-adv-x="524" 
d="M135 0l-83 0.000976562c-22.667 0 -34 9 -34 27c0 8 0.666992 14.333 2 19l12 52h83c23.333 0 35 -8.33301 35 -25c0 -6.66699 -0.666992 -12.334 -2 -17.001zM315 0.000976562l-83 0.000976562c-22.667 0 -34 9 -34 27c0 8 0.666992 14.333 2 19l12 52h83
c23.333 0 35 -8.33301 35 -25c0 -6.66699 -0.666992 -12.334 -2 -17.001zM495 0.00195312l-83 0.000976562c-22.667 0 -34 9 -34 27c0 8 0.666992 14.333 2 19l12 52h83c23.333 0 35 -8.33301 35 -25c0 -6.66699 -0.666992 -12.334 -2 -17.001z" />
    <glyph glyph-name="perthousand" unicode="&#x2030;" horiz-adv-x="1041" 
d="M66 24l479.001 667h73c10 0 15 -3.66699 15 -11c0 -4.66699 -1.66699 -9.66699 -5 -15l-478 -665h-72c-10.667 0 -16 4 -16 12c1.33301 6 2.66602 10 3.99902 12zM471.001 -9c-40.667 0 -71.168 9.00098 -91.501 27.001s-30.5 47.667 -30.5 89
c0 16.667 1.33301 31.667 4 45l6 30c16 67.333 37.333 113.666 64 138.999s68.334 38 125.001 38c40.667 0 71 -10.333 91 -31s30 -49.667 30 -87c0 -21.333 -3 -45 -9 -71c-18 -71.333 -40 -119 -66 -143s-67 -36 -123 -36zM482 58.001c23.333 0 41.833 7.83301 55.5 23.5
s26.167 47.167 37.5 94.5c7.33301 28 11 50 11 66c0 33.333 -16.333 50 -49 50c-24.667 0 -43.5 -7.16699 -56.5 -21.5s-24.833 -44.833 -35.5 -91.5c-3.33301 -14 -6 -27.167 -8 -39.5s-3 -23.5 -3 -33.5c0 -32 16 -48 48 -48zM143 333.001
c-40.667 0 -71.168 9.00098 -91.501 27.001s-30.5 47.667 -30.5 89c0 16.667 1.33301 31.667 4 45l6 30c16 67.333 37.333 113.666 64 138.999s68.334 38 125.001 38c40.667 0 71 -10.333 91 -31s30 -49.667 30 -87c0 -21.333 -3 -45 -9 -71c-18 -71.333 -40 -119 -66 -143
s-67 -36 -123 -36zM153.999 400.002c23.333 0 41.833 7.83301 55.5 23.5s26.167 47.167 37.5 94.5c7.33301 28 11 50 11 66c0 33.333 -16.333 50 -49 50c-24.667 0 -43.5 -7.16699 -56.5 -21.5s-24.833 -44.833 -35.5 -91.5c-3.33301 -14 -6 -27.167 -8 -39.5
s-3 -23.5 -3 -33.5c0 -32 16 -48 48 -48zM817.999 -8.99805c-40.667 0 -71.168 9.00098 -91.501 27.001s-30.5 47.667 -30.5 89c0 16.667 1.33301 31.667 4 45l6 30c16 67.333 37.333 113.666 64 138.999s68.334 38 125.001 38c40.667 0 71 -10.333 91 -31
s30 -49.667 30 -87c0 -21.333 -3 -45 -9 -71c-18 -71.333 -40 -119 -66 -143s-67 -36 -123 -36zM828.998 58.0029c23.333 0 41.833 7.83301 55.5 23.5s26.167 47.167 37.5 94.5c7.33301 28 11 50 11 66c0 33.333 -16.333 50 -49 50c-24.667 0 -43.5 -7.16699 -56.5 -21.5
s-24.833 -44.833 -35.5 -91.5c-3.33301 -14 -6 -27.167 -8 -39.5s-3 -23.5 -3 -33.5c0 -32 16 -48 48 -48z" />
    <glyph glyph-name="guilsinglleft" unicode="&#x2039;" horiz-adv-x="258" 
d="M42 315l201 110l-26 -126l-102 -58l76 -63l-25 -126l-156 119z" />
    <glyph glyph-name="guilsinglright" unicode="&#x203a;" horiz-adv-x="265" 
d="M82 425l156 -110l-32 -144l-203 -119l28 135l104 61l-79 51z" />
    <glyph glyph-name="trademark" unicode="&#x2122;" horiz-adv-x="703" 
d="M78 691h199.002c12.667 0 21.167 0.833008 25.5 2.5s9.16602 6.5 14.499 14.5h11l-12 -53c-5.33301 -18.667 -17.333 -28 -36 -28h-64l-71 -298c-2.66699 -16.667 1.66602 -26 12.999 -28l-2 -10h-68c-15.333 0 -23 8 -23 24c0 2.66699 0.666992 6.66699 2 12l70 300h-57
c-12 0 -20.333 -1 -25 -3s-9.66699 -7 -15 -15h-11l13 54c4 18.667 16 28 36 28zM546.002 691l85.001 0.00195312c20 0 30 -11.333 30 -34v-337c0 -10.667 5.66699 -17 17 -19l-3 -10h-69c-13.333 0 -20 8.33301 -20 25v237l-114 -262h-41c-12 0 -20.167 2.16699 -24.5 6.5
s-6.5 13.166 -6.5 26.499l-23 217l-76 -211c-2 -7.33301 -3 -13 -3 -17c0 -7.33301 4 -11.333 12 -12l-2 -10h-65c-10.667 0 -16 4.33301 -16 13c0 1.33301 0.666992 4.66602 2 9.99902l123 334c2 5.33301 3 10 3 14c0 9.33301 -5.66699 15.333 -17 18l3 11h66
c10.667 0 18.167 -2.33301 22.5 -7s7.16602 -11.667 8.49902 -21l24 -240l95 225c2 5.33301 3 10 3 14c0 9.33301 -5.33301 15.333 -16 18z" />
    <glyph glyph-name=".null" horiz-adv-x="0" 
 />
    <glyph glyph-name="nonmarkingreturn" horiz-adv-x="278" 
 />
    </font>
</defs>
</svg>
